G04 #@! TF.FileFunction,Paste,Top*
%FSLAX46Y46*%
G04 Gerber Fmt 4.6, Leading zero omitted, Abs format (unit mm)*
G04 Created by KiCad (PCBNEW 4.0.7) date *
%MOMM*%
%LPD*%
G01*
G04 APERTURE LIST*
%ADD10C,0.050000*%
%ADD11C,0.800000*%
%ADD12R,0.900000X1.200000*%
%ADD13R,0.750000X0.800000*%
%ADD14R,1.250000X1.000000*%
%ADD15R,0.800000X0.750000*%
%ADD16R,0.910000X1.220000*%
%ADD17R,0.500000X0.750000*%
%ADD18R,0.797560X0.797560*%
%ADD19R,0.750000X0.500000*%
%ADD20R,1.350000X0.400000*%
%ADD21R,2.000000X2.100000*%
%ADD22R,1.900000X1.600000*%
%ADD23R,0.800100X0.800100*%
%ADD24R,0.900000X0.500000*%
%ADD25R,0.500000X0.900000*%
%ADD26R,0.700000X1.500000*%
%ADD27R,0.250000X0.700000*%
%ADD28R,0.700000X0.250000*%
%ADD29R,1.035000X1.035000*%
%ADD30R,1.500000X1.000000*%
%ADD31R,1.500000X3.300000*%
%ADD32R,1.200000X1.400000*%
G04 APERTURE END LIST*
D10*
D11*
X163800000Y76600000D03*
X163800000Y75400000D03*
X163800000Y74200000D03*
X163800000Y73000000D03*
X163800000Y71800000D03*
X163800000Y70600000D03*
X163800000Y69400000D03*
X162600000Y76600000D03*
X162600000Y69400000D03*
X161400000Y76600000D03*
X161400000Y74200000D03*
X161400000Y73000000D03*
X161400000Y71800000D03*
X161400000Y69400000D03*
X160200000Y76600000D03*
X160200000Y74200000D03*
X160200000Y73000000D03*
X160200000Y71800000D03*
X160200000Y69400000D03*
X159000000Y76600000D03*
X159000000Y74200000D03*
X159000000Y73000000D03*
X159000000Y71800000D03*
X159000000Y69400000D03*
X157800000Y76600000D03*
X157800000Y74200000D03*
X157800000Y73000000D03*
X157800000Y71800000D03*
X157800000Y69400000D03*
X156600000Y76600000D03*
X156600000Y69400000D03*
X155400000Y76600000D03*
X155400000Y75400000D03*
X155400000Y74200000D03*
X155400000Y73000000D03*
X155400000Y71800000D03*
X155400000Y70600000D03*
X155400000Y69400000D03*
D12*
X114350000Y65000000D03*
X117650000Y65000000D03*
X34350000Y65000000D03*
X37650000Y65000000D03*
D13*
X149300000Y96450000D03*
X149300000Y94950000D03*
X153400000Y90750000D03*
X153400000Y89250000D03*
D14*
X133750000Y4500000D03*
X133750000Y2500000D03*
D15*
X152750000Y74000000D03*
X151250000Y74000000D03*
X151550000Y89800000D03*
X150050000Y89800000D03*
X156950000Y86550000D03*
X155450000Y86550000D03*
D13*
X160800000Y100650000D03*
X160800000Y102150000D03*
D15*
X160850000Y93600000D03*
X162350000Y93600000D03*
D13*
X156200000Y107000000D03*
X156200000Y105500000D03*
X144600000Y104750000D03*
X144600000Y103250000D03*
D16*
X141365000Y5000000D03*
X144635000Y5000000D03*
X141365000Y2000000D03*
X144635000Y2000000D03*
D17*
X144750000Y96700000D03*
X145750000Y96700000D03*
X144750000Y95150000D03*
X145750000Y95150000D03*
D18*
X148000000Y71749300D03*
X148000000Y70250700D03*
D19*
X160775000Y51500000D03*
X160775000Y50500000D03*
X159225000Y51500000D03*
X159225000Y50500000D03*
X151775000Y59500000D03*
X151775000Y58500000D03*
X150225000Y59500000D03*
X150225000Y58500000D03*
X151775000Y51500000D03*
X151775000Y50500000D03*
X150225000Y51500000D03*
X150225000Y50500000D03*
X160775000Y59500000D03*
X160775000Y58500000D03*
X159225000Y59500000D03*
X159225000Y58500000D03*
D20*
X165200000Y97800000D03*
X165200000Y97150000D03*
X165200000Y96500000D03*
X165200000Y95850000D03*
X165200000Y95200000D03*
D21*
X165525000Y93400000D03*
X165525000Y99600000D03*
D22*
X168225000Y92400000D03*
X168225000Y100600000D03*
D23*
X129450000Y4500760D03*
X127550000Y4500760D03*
X128500000Y2501780D03*
X138000000Y4500000D03*
X136100000Y4500000D03*
X137050000Y2501020D03*
X162750000Y86949240D03*
X164650000Y86949240D03*
X163700000Y88948220D03*
X150050000Y69599240D03*
X151950000Y69599240D03*
X151000000Y71598220D03*
X146050000Y55999240D03*
X147950000Y55999240D03*
X147000000Y57998220D03*
X147950000Y53000760D03*
X146050000Y53000760D03*
X147000000Y51001780D03*
X154999240Y51950000D03*
X154999240Y50050000D03*
X156998220Y51000000D03*
X156500000Y58000000D03*
X156500000Y59900000D03*
X154501020Y58950000D03*
X152450000Y56000760D03*
X150550000Y56000760D03*
X151500000Y54001780D03*
X165000760Y56550000D03*
X165000760Y58450000D03*
X163001780Y57500000D03*
X165000000Y53500000D03*
X163100000Y53500000D03*
X164050000Y51501020D03*
X3000000Y34000000D03*
X4900000Y34000000D03*
X3950000Y35998980D03*
X3000000Y53999240D03*
X4900000Y53999240D03*
X3950000Y55998220D03*
X3000000Y74000000D03*
X4900000Y74000000D03*
X3950000Y75998980D03*
X3000000Y93999240D03*
X4900000Y93999240D03*
X3950000Y95998220D03*
D24*
X131250000Y3000000D03*
X131250000Y4500000D03*
X159000000Y94150000D03*
X159000000Y92650000D03*
D25*
X150250000Y91600000D03*
X151750000Y91600000D03*
X160750000Y98500000D03*
X162250000Y98500000D03*
X160750000Y96000000D03*
X162250000Y96000000D03*
D24*
X147000000Y98650000D03*
X147000000Y100150000D03*
X144800000Y98650000D03*
X144800000Y100150000D03*
X149200000Y98650000D03*
X149200000Y100150000D03*
X159000000Y102250000D03*
X159000000Y100750000D03*
X157000000Y102250000D03*
X157000000Y100750000D03*
X149500000Y85050000D03*
X149500000Y86550000D03*
X152000000Y85050000D03*
X152000000Y86550000D03*
D25*
X162350000Y90900000D03*
X163850000Y90900000D03*
D24*
X159700000Y89150000D03*
X159700000Y90650000D03*
X148700000Y74650000D03*
X148700000Y73150000D03*
D25*
X148250000Y61000000D03*
X146750000Y61000000D03*
X148250000Y49000000D03*
X146750000Y49000000D03*
X162750000Y49000000D03*
X164250000Y49000000D03*
X144000000Y23000000D03*
X145500000Y23000000D03*
D24*
X125000000Y24000000D03*
X125000000Y25500000D03*
X111000000Y23000000D03*
X111000000Y24500000D03*
X91000000Y23000000D03*
X91000000Y24500000D03*
X71000000Y23000000D03*
X71000000Y24500000D03*
X51000000Y23000000D03*
X51000000Y24500000D03*
X31000000Y23000000D03*
X31000000Y24500000D03*
X11000000Y23000000D03*
X11000000Y24500000D03*
D26*
X145300000Y92500000D03*
X147500000Y92500000D03*
X145300000Y87900000D03*
X147500000Y87900000D03*
D27*
X152450000Y94000000D03*
X152950000Y94000000D03*
X153450000Y94000000D03*
X153950000Y94000000D03*
X154450000Y94000000D03*
X154950000Y94000000D03*
X155450000Y94000000D03*
X155950000Y94000000D03*
D28*
X156600000Y94650000D03*
X156600000Y95150000D03*
X156600000Y95650000D03*
X156600000Y96150000D03*
X156600000Y96650000D03*
X156600000Y97150000D03*
X156600000Y97650000D03*
X156600000Y98150000D03*
D27*
X155950000Y98800000D03*
X155450000Y98800000D03*
X154950000Y98800000D03*
X154450000Y98800000D03*
X153950000Y98800000D03*
X153450000Y98800000D03*
X152950000Y98800000D03*
X152450000Y98800000D03*
D28*
X151800000Y98150000D03*
X151800000Y97650000D03*
X151800000Y97150000D03*
X151800000Y96650000D03*
X151800000Y96150000D03*
X151800000Y95650000D03*
X151800000Y95150000D03*
X151800000Y94650000D03*
D29*
X155062500Y97262500D03*
X153337500Y97262500D03*
X155062500Y95537500D03*
X153337500Y95537500D03*
D30*
X153550000Y102700000D03*
X153550000Y105000000D03*
X153550000Y107300000D03*
D31*
X147250000Y105000000D03*
D12*
X14350000Y44997460D03*
X17650000Y44997460D03*
X34350000Y44997460D03*
X37650000Y44997460D03*
X54350000Y45000000D03*
X57650000Y45000000D03*
X74350000Y45000000D03*
X77650000Y45000000D03*
X94350000Y44997460D03*
X97650000Y44997460D03*
X114350000Y45000000D03*
X117650000Y45000000D03*
X134350000Y45000000D03*
X137650000Y45000000D03*
X154350000Y45000000D03*
X157650000Y45000000D03*
X14350000Y65000000D03*
X17650000Y65000000D03*
X54350000Y65000000D03*
X57650000Y65000000D03*
X74350000Y65000000D03*
X77650000Y65000000D03*
X94350000Y65000000D03*
X97650000Y65000000D03*
X134350000Y65000000D03*
X137650000Y65000000D03*
X154350000Y24997460D03*
X157650000Y24997460D03*
X14350000Y85000000D03*
X17650000Y85000000D03*
X34350000Y85000000D03*
X37650000Y85000000D03*
X54350000Y85000000D03*
X57650000Y85000000D03*
X74350000Y85000000D03*
X77650000Y85000000D03*
X94350000Y85000000D03*
X97650000Y85000000D03*
X114350000Y85000000D03*
X117650000Y85000000D03*
X134350000Y85000000D03*
X137650000Y85000000D03*
X134350000Y25000000D03*
X137650000Y25000000D03*
X14350000Y105000000D03*
X17650000Y105000000D03*
X34350000Y104997460D03*
X37650000Y104997460D03*
X54350000Y105000000D03*
X57650000Y105000000D03*
X74350000Y105000000D03*
X77650000Y105000000D03*
X94350000Y105000000D03*
X97650000Y105000000D03*
X114350000Y105000000D03*
X117650000Y105000000D03*
X134350000Y105000000D03*
X137650000Y105000000D03*
D32*
X155350000Y90800000D03*
X155350000Y88600000D03*
X157050000Y88600000D03*
X157050000Y90800000D03*
M02*
