G04 #@! TF.FileFunction,Legend,Bot*
%FSLAX46Y46*%
G04 Gerber Fmt 4.6, Leading zero omitted, Abs format (unit mm)*
G04 Created by KiCad (PCBNEW 4.0.7) date *
%MOMM*%
%LPD*%
G01*
G04 APERTURE LIST*
%ADD10C,0.050000*%
%ADD11C,0.150000*%
%ADD12C,0.300000*%
%ADD13C,0.200000*%
G04 APERTURE END LIST*
D10*
D11*
X22690476Y7252381D02*
X22642857Y7300000D01*
X22547619Y7347619D01*
X22309523Y7347619D01*
X22214285Y7300000D01*
X22166666Y7252381D01*
X22119047Y7157143D01*
X22119047Y7061905D01*
X22166666Y6919048D01*
X22738095Y6347619D01*
X22119047Y6347619D01*
X21500000Y7347619D02*
X21404761Y7347619D01*
X21309523Y7300000D01*
X21261904Y7252381D01*
X21214285Y7157143D01*
X21166666Y6966667D01*
X21166666Y6728571D01*
X21214285Y6538095D01*
X21261904Y6442857D01*
X21309523Y6395238D01*
X21404761Y6347619D01*
X21500000Y6347619D01*
X21595238Y6395238D01*
X21642857Y6442857D01*
X21690476Y6538095D01*
X21738095Y6728571D01*
X21738095Y6966667D01*
X21690476Y7157143D01*
X21642857Y7252381D01*
X21595238Y7300000D01*
X21500000Y7347619D01*
X20214285Y6347619D02*
X20785714Y6347619D01*
X20500000Y6347619D02*
X20500000Y7347619D01*
X20595238Y7204762D01*
X20690476Y7109524D01*
X20785714Y7061905D01*
X19642857Y6919048D02*
X19738095Y6966667D01*
X19785714Y7014286D01*
X19833333Y7109524D01*
X19833333Y7157143D01*
X19785714Y7252381D01*
X19738095Y7300000D01*
X19642857Y7347619D01*
X19452380Y7347619D01*
X19357142Y7300000D01*
X19309523Y7252381D01*
X19261904Y7157143D01*
X19261904Y7109524D01*
X19309523Y7014286D01*
X19357142Y6966667D01*
X19452380Y6919048D01*
X19642857Y6919048D01*
X19738095Y6871429D01*
X19785714Y6823810D01*
X19833333Y6728571D01*
X19833333Y6538095D01*
X19785714Y6442857D01*
X19738095Y6395238D01*
X19642857Y6347619D01*
X19452380Y6347619D01*
X19357142Y6395238D01*
X19309523Y6442857D01*
X19261904Y6538095D01*
X19261904Y6728571D01*
X19309523Y6823810D01*
X19357142Y6871429D01*
X19452380Y6919048D01*
X18119047Y7395238D02*
X18976190Y6109524D01*
X17595238Y7347619D02*
X17499999Y7347619D01*
X17404761Y7300000D01*
X17357142Y7252381D01*
X17309523Y7157143D01*
X17261904Y6966667D01*
X17261904Y6728571D01*
X17309523Y6538095D01*
X17357142Y6442857D01*
X17404761Y6395238D01*
X17499999Y6347619D01*
X17595238Y6347619D01*
X17690476Y6395238D01*
X17738095Y6442857D01*
X17785714Y6538095D01*
X17833333Y6728571D01*
X17833333Y6966667D01*
X17785714Y7157143D01*
X17738095Y7252381D01*
X17690476Y7300000D01*
X17595238Y7347619D01*
X16309523Y6347619D02*
X16880952Y6347619D01*
X16595238Y6347619D02*
X16595238Y7347619D01*
X16690476Y7204762D01*
X16785714Y7109524D01*
X16880952Y7061905D01*
D12*
X46892857Y12121429D02*
X46321428Y12121429D01*
X46678571Y11121429D02*
X46678571Y12407143D01*
X46607143Y12550000D01*
X46464285Y12621429D01*
X46321428Y12621429D01*
X45607142Y11121429D02*
X45750000Y11192857D01*
X45821428Y11264286D01*
X45892857Y11407143D01*
X45892857Y11835714D01*
X45821428Y11978571D01*
X45750000Y12050000D01*
X45607142Y12121429D01*
X45392857Y12121429D01*
X45250000Y12050000D01*
X45178571Y11978571D01*
X45107142Y11835714D01*
X45107142Y11407143D01*
X45178571Y11264286D01*
X45250000Y11192857D01*
X45392857Y11121429D01*
X45607142Y11121429D01*
X44464285Y11121429D02*
X44464285Y12121429D01*
X44464285Y11835714D02*
X44392857Y11978571D01*
X44321428Y12050000D01*
X44178571Y12121429D01*
X44035714Y12121429D01*
X41678571Y11121429D02*
X42392857Y11121429D01*
X42392857Y12621429D01*
X40607143Y11192857D02*
X40750000Y11121429D01*
X41035714Y11121429D01*
X41178571Y11192857D01*
X41250000Y11335714D01*
X41250000Y11907143D01*
X41178571Y12050000D01*
X41035714Y12121429D01*
X40750000Y12121429D01*
X40607143Y12050000D01*
X40535714Y11907143D01*
X40535714Y11764286D01*
X41250000Y11621429D01*
X40107143Y12121429D02*
X39535714Y12121429D01*
X39892857Y11121429D02*
X39892857Y12407143D01*
X39821429Y12550000D01*
X39678571Y12621429D01*
X39535714Y12621429D01*
X39250000Y12121429D02*
X38678571Y12121429D01*
X39035714Y12621429D02*
X39035714Y11335714D01*
X38964286Y11192857D01*
X38821428Y11121429D01*
X38678571Y11121429D01*
X37035714Y11121429D02*
X37035714Y12621429D01*
X36392857Y11121429D02*
X36392857Y11907143D01*
X36464286Y12050000D01*
X36607143Y12121429D01*
X36821428Y12121429D01*
X36964286Y12050000D01*
X37035714Y11978571D01*
X35035714Y11121429D02*
X35035714Y11907143D01*
X35107143Y12050000D01*
X35250000Y12121429D01*
X35535714Y12121429D01*
X35678571Y12050000D01*
X35035714Y11192857D02*
X35178571Y11121429D01*
X35535714Y11121429D01*
X35678571Y11192857D01*
X35750000Y11335714D01*
X35750000Y11478571D01*
X35678571Y11621429D01*
X35535714Y11692857D01*
X35178571Y11692857D01*
X35035714Y11764286D01*
X34321428Y12121429D02*
X34321428Y11121429D01*
X34321428Y11978571D02*
X34250000Y12050000D01*
X34107142Y12121429D01*
X33892857Y12121429D01*
X33750000Y12050000D01*
X33678571Y11907143D01*
X33678571Y11121429D01*
X32321428Y11121429D02*
X32321428Y12621429D01*
X32321428Y11192857D02*
X32464285Y11121429D01*
X32749999Y11121429D01*
X32892857Y11192857D01*
X32964285Y11264286D01*
X33035714Y11407143D01*
X33035714Y11835714D01*
X32964285Y11978571D01*
X32892857Y12050000D01*
X32749999Y12121429D01*
X32464285Y12121429D01*
X32321428Y12050000D01*
D13*
X45828571Y8757143D02*
X45828571Y9957143D01*
X45542856Y9957143D01*
X45371428Y9900000D01*
X45257142Y9785714D01*
X45199999Y9671429D01*
X45142856Y9442857D01*
X45142856Y9271429D01*
X45199999Y9042857D01*
X45257142Y8928571D01*
X45371428Y8814286D01*
X45542856Y8757143D01*
X45828571Y8757143D01*
X44171428Y8814286D02*
X44285714Y8757143D01*
X44514285Y8757143D01*
X44628571Y8814286D01*
X44685714Y8928571D01*
X44685714Y9385714D01*
X44628571Y9500000D01*
X44514285Y9557143D01*
X44285714Y9557143D01*
X44171428Y9500000D01*
X44114285Y9385714D01*
X44114285Y9271429D01*
X44685714Y9157143D01*
X43657143Y8814286D02*
X43542857Y8757143D01*
X43314285Y8757143D01*
X43200000Y8814286D01*
X43142857Y8928571D01*
X43142857Y8985714D01*
X43200000Y9100000D01*
X43314285Y9157143D01*
X43485714Y9157143D01*
X43600000Y9214286D01*
X43657143Y9328571D01*
X43657143Y9385714D01*
X43600000Y9500000D01*
X43485714Y9557143D01*
X43314285Y9557143D01*
X43200000Y9500000D01*
X42628571Y8757143D02*
X42628571Y9557143D01*
X42628571Y9957143D02*
X42685714Y9900000D01*
X42628571Y9842857D01*
X42571428Y9900000D01*
X42628571Y9957143D01*
X42628571Y9842857D01*
X41542856Y9557143D02*
X41542856Y8585714D01*
X41599999Y8471429D01*
X41657142Y8414286D01*
X41771427Y8357143D01*
X41942856Y8357143D01*
X42057142Y8414286D01*
X41542856Y8814286D02*
X41657142Y8757143D01*
X41885713Y8757143D01*
X41999999Y8814286D01*
X42057142Y8871429D01*
X42114285Y8985714D01*
X42114285Y9328571D01*
X42057142Y9442857D01*
X41999999Y9500000D01*
X41885713Y9557143D01*
X41657142Y9557143D01*
X41542856Y9500000D01*
X40971428Y9557143D02*
X40971428Y8757143D01*
X40971428Y9442857D02*
X40914285Y9500000D01*
X40799999Y9557143D01*
X40628571Y9557143D01*
X40514285Y9500000D01*
X40457142Y9385714D01*
X40457142Y8757143D01*
X39428571Y8814286D02*
X39542857Y8757143D01*
X39771428Y8757143D01*
X39885714Y8814286D01*
X39942857Y8928571D01*
X39942857Y9385714D01*
X39885714Y9500000D01*
X39771428Y9557143D01*
X39542857Y9557143D01*
X39428571Y9500000D01*
X39371428Y9385714D01*
X39371428Y9271429D01*
X39942857Y9157143D01*
X38342857Y8757143D02*
X38342857Y9957143D01*
X38342857Y8814286D02*
X38457143Y8757143D01*
X38685714Y8757143D01*
X38800000Y8814286D01*
X38857143Y8871429D01*
X38914286Y8985714D01*
X38914286Y9328571D01*
X38857143Y9442857D01*
X38800000Y9500000D01*
X38685714Y9557143D01*
X38457143Y9557143D01*
X38342857Y9500000D01*
X36457143Y9385714D02*
X36285714Y9328571D01*
X36228571Y9271429D01*
X36171428Y9157143D01*
X36171428Y8985714D01*
X36228571Y8871429D01*
X36285714Y8814286D01*
X36400000Y8757143D01*
X36857143Y8757143D01*
X36857143Y9957143D01*
X36457143Y9957143D01*
X36342857Y9900000D01*
X36285714Y9842857D01*
X36228571Y9728571D01*
X36228571Y9614286D01*
X36285714Y9500000D01*
X36342857Y9442857D01*
X36457143Y9385714D01*
X36857143Y9385714D01*
X35771428Y9557143D02*
X35485714Y8757143D01*
X35200000Y9557143D02*
X35485714Y8757143D01*
X35600000Y8471429D01*
X35657143Y8414286D01*
X35771428Y8357143D01*
X33085714Y9328571D02*
X33142856Y9385714D01*
X33257142Y9442857D01*
X33371428Y9442857D01*
X33485714Y9385714D01*
X33542856Y9328571D01*
X33599999Y9214286D01*
X33599999Y9100000D01*
X33542856Y8985714D01*
X33485714Y8928571D01*
X33371428Y8871429D01*
X33257142Y8871429D01*
X33142856Y8928571D01*
X33085714Y8985714D01*
X33085714Y9442857D02*
X33085714Y8985714D01*
X33028571Y8928571D01*
X32971428Y8928571D01*
X32857142Y8985714D01*
X32799999Y9100000D01*
X32799999Y9385714D01*
X32914285Y9557143D01*
X33085714Y9671429D01*
X33314285Y9728571D01*
X33542856Y9671429D01*
X33714285Y9557143D01*
X33828571Y9385714D01*
X33885714Y9157143D01*
X33828571Y8928571D01*
X33714285Y8757143D01*
X33542856Y8642857D01*
X33314285Y8585714D01*
X33085714Y8642857D01*
X32914285Y8757143D01*
X32399999Y9557143D02*
X31771428Y9557143D01*
X32399999Y8757143D01*
X31771428Y8757143D01*
X30799999Y9557143D02*
X30799999Y8585714D01*
X30857142Y8471429D01*
X30914285Y8414286D01*
X31028570Y8357143D01*
X31199999Y8357143D01*
X31314285Y8414286D01*
X30799999Y8814286D02*
X30914285Y8757143D01*
X31142856Y8757143D01*
X31257142Y8814286D01*
X31314285Y8871429D01*
X31371428Y8985714D01*
X31371428Y9328571D01*
X31314285Y9442857D01*
X31257142Y9500000D01*
X31142856Y9557143D01*
X30914285Y9557143D01*
X30799999Y9500000D01*
X30399999Y9557143D02*
X29942856Y9557143D01*
X30228571Y9957143D02*
X30228571Y8928571D01*
X30171428Y8814286D01*
X30057142Y8757143D01*
X29942856Y8757143D01*
X29542857Y8757143D02*
X29542857Y9957143D01*
X29428571Y9214286D02*
X29085714Y8757143D01*
X29085714Y9557143D02*
X29542857Y9100000D01*
X28571428Y9214286D02*
X27657142Y9214286D01*
X26571428Y9557143D02*
X26571428Y8585714D01*
X26628571Y8471429D01*
X26685714Y8414286D01*
X26799999Y8357143D01*
X26971428Y8357143D01*
X27085714Y8414286D01*
X26571428Y8814286D02*
X26685714Y8757143D01*
X26914285Y8757143D01*
X27028571Y8814286D01*
X27085714Y8871429D01*
X27142857Y8985714D01*
X27142857Y9328571D01*
X27085714Y9442857D01*
X27028571Y9500000D01*
X26914285Y9557143D01*
X26685714Y9557143D01*
X26571428Y9500000D01*
X25485714Y9557143D02*
X25485714Y8757143D01*
X26000000Y9557143D02*
X26000000Y8928571D01*
X25942857Y8814286D01*
X25828571Y8757143D01*
X25657143Y8757143D01*
X25542857Y8814286D01*
X25485714Y8871429D01*
X24914286Y8757143D02*
X24914286Y9557143D01*
X24914286Y9328571D02*
X24857143Y9442857D01*
X24800000Y9500000D01*
X24685714Y9557143D01*
X24571429Y9557143D01*
X24171429Y8757143D02*
X24171429Y9557143D01*
X24171429Y9957143D02*
X24228572Y9900000D01*
X24171429Y9842857D01*
X24114286Y9900000D01*
X24171429Y9957143D01*
X24171429Y9842857D01*
D12*
X48464285Y13621429D02*
X48464285Y15121429D01*
X48464285Y14407143D02*
X47607142Y14407143D01*
X47607142Y13621429D02*
X47607142Y15121429D01*
X46607142Y15121429D02*
X46321428Y15121429D01*
X46178570Y15050000D01*
X46035713Y14907143D01*
X45964285Y14621429D01*
X45964285Y14121429D01*
X46035713Y13835714D01*
X46178570Y13692857D01*
X46321428Y13621429D01*
X46607142Y13621429D01*
X46749999Y13692857D01*
X46892856Y13835714D01*
X46964285Y14121429D01*
X46964285Y14621429D01*
X46892856Y14907143D01*
X46749999Y15050000D01*
X46607142Y15121429D01*
X44535713Y15050000D02*
X44678570Y15121429D01*
X44892856Y15121429D01*
X45107141Y15050000D01*
X45249999Y14907143D01*
X45321427Y14764286D01*
X45392856Y14478571D01*
X45392856Y14264286D01*
X45321427Y13978571D01*
X45249999Y13835714D01*
X45107141Y13692857D01*
X44892856Y13621429D01*
X44749999Y13621429D01*
X44535713Y13692857D01*
X44464284Y13764286D01*
X44464284Y14264286D01*
X44749999Y14264286D01*
X43821427Y13621429D02*
X43821427Y15121429D01*
X43249999Y15121429D01*
X43107141Y15050000D01*
X43035713Y14978571D01*
X42964284Y14835714D01*
X42964284Y14621429D01*
X43035713Y14478571D01*
X43107141Y14407143D01*
X43249999Y14335714D01*
X43821427Y14335714D01*
X41249999Y13692857D02*
X41035713Y13621429D01*
X40678570Y13621429D01*
X40535713Y13692857D01*
X40464284Y13764286D01*
X40392856Y13907143D01*
X40392856Y14050000D01*
X40464284Y14192857D01*
X40535713Y14264286D01*
X40678570Y14335714D01*
X40964284Y14407143D01*
X41107142Y14478571D01*
X41178570Y14550000D01*
X41249999Y14692857D01*
X41249999Y14835714D01*
X41178570Y14978571D01*
X41107142Y15050000D01*
X40964284Y15121429D01*
X40607142Y15121429D01*
X40392856Y15050000D01*
X39178571Y13692857D02*
X39321428Y13621429D01*
X39607142Y13621429D01*
X39749999Y13692857D01*
X39821428Y13835714D01*
X39821428Y14407143D01*
X39749999Y14550000D01*
X39607142Y14621429D01*
X39321428Y14621429D01*
X39178571Y14550000D01*
X39107142Y14407143D01*
X39107142Y14264286D01*
X39821428Y14121429D01*
X38464285Y14621429D02*
X38464285Y13121429D01*
X38464285Y14550000D02*
X38321428Y14621429D01*
X38035714Y14621429D01*
X37892857Y14550000D01*
X37821428Y14478571D01*
X37749999Y14335714D01*
X37749999Y13907143D01*
X37821428Y13764286D01*
X37892857Y13692857D01*
X38035714Y13621429D01*
X38321428Y13621429D01*
X38464285Y13692857D01*
X36464285Y13621429D02*
X36464285Y14407143D01*
X36535714Y14550000D01*
X36678571Y14621429D01*
X36964285Y14621429D01*
X37107142Y14550000D01*
X36464285Y13692857D02*
X36607142Y13621429D01*
X36964285Y13621429D01*
X37107142Y13692857D01*
X37178571Y13835714D01*
X37178571Y13978571D01*
X37107142Y14121429D01*
X36964285Y14192857D01*
X36607142Y14192857D01*
X36464285Y14264286D01*
X35749999Y13621429D02*
X35749999Y14621429D01*
X35749999Y14335714D02*
X35678571Y14478571D01*
X35607142Y14550000D01*
X35464285Y14621429D01*
X35321428Y14621429D01*
X34178571Y13621429D02*
X34178571Y14407143D01*
X34250000Y14550000D01*
X34392857Y14621429D01*
X34678571Y14621429D01*
X34821428Y14550000D01*
X34178571Y13692857D02*
X34321428Y13621429D01*
X34678571Y13621429D01*
X34821428Y13692857D01*
X34892857Y13835714D01*
X34892857Y13978571D01*
X34821428Y14121429D01*
X34678571Y14192857D01*
X34321428Y14192857D01*
X34178571Y14264286D01*
X33678571Y14621429D02*
X33107142Y14621429D01*
X33464285Y15121429D02*
X33464285Y13835714D01*
X33392857Y13692857D01*
X33249999Y13621429D01*
X33107142Y13621429D01*
X32035714Y13692857D02*
X32178571Y13621429D01*
X32464285Y13621429D01*
X32607142Y13692857D01*
X32678571Y13835714D01*
X32678571Y14407143D01*
X32607142Y14550000D01*
X32464285Y14621429D01*
X32178571Y14621429D01*
X32035714Y14550000D01*
X31964285Y14407143D01*
X31964285Y14264286D01*
X32678571Y14121429D01*
X30178571Y13621429D02*
X30178571Y15121429D01*
X29321428Y13621429D02*
X29964285Y14478571D01*
X29321428Y15121429D02*
X30178571Y14264286D01*
X28107143Y13692857D02*
X28250000Y13621429D01*
X28535714Y13621429D01*
X28678571Y13692857D01*
X28750000Y13835714D01*
X28750000Y14407143D01*
X28678571Y14550000D01*
X28535714Y14621429D01*
X28250000Y14621429D01*
X28107143Y14550000D01*
X28035714Y14407143D01*
X28035714Y14264286D01*
X28750000Y14121429D01*
X27535714Y14621429D02*
X27178571Y13621429D01*
X26821429Y14621429D02*
X27178571Y13621429D01*
X27321429Y13264286D01*
X27392857Y13192857D01*
X27535714Y13121429D01*
X26250000Y13621429D02*
X26250000Y15121429D01*
X26250000Y14550000D02*
X26107143Y14621429D01*
X25821429Y14621429D01*
X25678572Y14550000D01*
X25607143Y14478571D01*
X25535714Y14335714D01*
X25535714Y13907143D01*
X25607143Y13764286D01*
X25678572Y13692857D01*
X25821429Y13621429D01*
X26107143Y13621429D01*
X26250000Y13692857D01*
X24678571Y13621429D02*
X24821429Y13692857D01*
X24892857Y13764286D01*
X24964286Y13907143D01*
X24964286Y14335714D01*
X24892857Y14478571D01*
X24821429Y14550000D01*
X24678571Y14621429D01*
X24464286Y14621429D01*
X24321429Y14550000D01*
X24250000Y14478571D01*
X24178571Y14335714D01*
X24178571Y13907143D01*
X24250000Y13764286D01*
X24321429Y13692857D01*
X24464286Y13621429D01*
X24678571Y13621429D01*
X22892857Y13621429D02*
X22892857Y14407143D01*
X22964286Y14550000D01*
X23107143Y14621429D01*
X23392857Y14621429D01*
X23535714Y14550000D01*
X22892857Y13692857D02*
X23035714Y13621429D01*
X23392857Y13621429D01*
X23535714Y13692857D01*
X23607143Y13835714D01*
X23607143Y13978571D01*
X23535714Y14121429D01*
X23392857Y14192857D01*
X23035714Y14192857D01*
X22892857Y14264286D01*
X22178571Y13621429D02*
X22178571Y14621429D01*
X22178571Y14335714D02*
X22107143Y14478571D01*
X22035714Y14550000D01*
X21892857Y14621429D01*
X21750000Y14621429D01*
X20607143Y13621429D02*
X20607143Y15121429D01*
X20607143Y13692857D02*
X20750000Y13621429D01*
X21035714Y13621429D01*
X21178572Y13692857D01*
X21250000Y13764286D01*
X21321429Y13907143D01*
X21321429Y14335714D01*
X21250000Y14478571D01*
X21178572Y14550000D01*
X21035714Y14621429D01*
X20750000Y14621429D01*
X20607143Y14550000D01*
X17892857Y13621429D02*
X18392857Y14335714D01*
X18750000Y13621429D02*
X18750000Y15121429D01*
X18178572Y15121429D01*
X18035714Y15050000D01*
X17964286Y14978571D01*
X17892857Y14835714D01*
X17892857Y14621429D01*
X17964286Y14478571D01*
X18035714Y14407143D01*
X18178572Y14335714D01*
X18750000Y14335714D01*
X16464286Y13621429D02*
X17321429Y13621429D01*
X16892857Y13621429D02*
X16892857Y15121429D01*
X17035714Y14907143D01*
X17178572Y14764286D01*
X17321429Y14692857D01*
M02*
