G04 #@! TF.FileFunction,Copper,L2,Bot,Signal*
%FSLAX46Y46*%
G04 Gerber Fmt 4.6, Leading zero omitted, Abs format (unit mm)*
G04 Created by KiCad (PCBNEW 4.0.7) date *
%MOMM*%
%LPD*%
G01*
G04 APERTURE LIST*
%ADD10C,0.050000*%
%ADD11C,0.600000*%
%ADD12C,2.500000*%
%ADD13C,1.800000*%
%ADD14C,0.250000*%
%ADD15C,0.600000*%
%ADD16C,0.300000*%
%ADD17C,0.400000*%
%ADD18C,0.500000*%
%ADD19C,0.254000*%
G04 APERTURE END LIST*
D10*
D11*
X143900000Y92600000D03*
X157200000Y104300000D03*
X150600000Y87700000D03*
X148500000Y90500000D03*
X148600000Y87500000D03*
X162200000Y92300000D03*
X167500000Y60000000D03*
X167500000Y42500000D03*
X167500000Y30000000D03*
X167500000Y17500000D03*
X155000000Y22500000D03*
X160000000Y30000000D03*
X145000000Y15000000D03*
X145000000Y20000000D03*
X125000000Y17500000D03*
X115000000Y17500000D03*
X90000000Y17500000D03*
X65000000Y17500000D03*
X40000000Y17500000D03*
X15000000Y17500000D03*
X15000000Y27500000D03*
X30000000Y27500000D03*
X35000000Y27500000D03*
X50000000Y27500000D03*
X55000000Y27500000D03*
X70000000Y27500000D03*
X75000000Y27500000D03*
X90000000Y27500000D03*
X95000000Y27500000D03*
X110000000Y27500000D03*
X115000000Y27500000D03*
X122500000Y27500000D03*
X122500000Y40000000D03*
X110000000Y40000000D03*
X100000000Y40000000D03*
X90000000Y40000000D03*
X80000000Y40000000D03*
X70000000Y40000000D03*
X60000000Y40000000D03*
X50000000Y40000000D03*
X40000000Y40000000D03*
X30000000Y40000000D03*
X20000000Y40000000D03*
X10500000Y41500000D03*
X8500000Y43500000D03*
X10000000Y48500000D03*
X15000000Y48500000D03*
X30000000Y48500000D03*
X35000000Y48500000D03*
X50000000Y48500000D03*
X55000000Y48500000D03*
X70000000Y48500000D03*
X75000000Y48500000D03*
X90000000Y48500000D03*
X95000000Y48500000D03*
X110000000Y48500000D03*
X115000000Y48500000D03*
X125000000Y48500000D03*
X130000000Y48500000D03*
X135000000Y48500000D03*
X140000000Y48500000D03*
X130000000Y67000000D03*
X135000000Y60000000D03*
X130000000Y60000000D03*
X125000000Y60000000D03*
X120000000Y60000000D03*
X115000000Y60000000D03*
X110000000Y60000000D03*
X100000000Y60000000D03*
X90000000Y60000000D03*
X80000000Y60000000D03*
X70000000Y60000000D03*
X60000000Y60000000D03*
X50000000Y60000000D03*
X40000000Y60000000D03*
X30000000Y60000000D03*
X20000000Y60000000D03*
X7750000Y63000000D03*
X10500000Y61250000D03*
X7500000Y83500000D03*
X10500000Y81750000D03*
X135000000Y67000000D03*
X125000000Y67000000D03*
X115000000Y67000000D03*
X110000000Y67000000D03*
X95000000Y67000000D03*
X90000000Y67000000D03*
X75000000Y67000000D03*
X70000000Y67000000D03*
X55000000Y67000000D03*
X50000000Y67000000D03*
X35000000Y67000000D03*
X30000000Y67000000D03*
X15000000Y67000000D03*
X10000000Y67000000D03*
X10000000Y72500000D03*
X17500000Y72500000D03*
X25000000Y72500000D03*
X30000000Y72500000D03*
X37500000Y72500000D03*
X50000000Y72500000D03*
X57500000Y72500000D03*
X70000000Y72500000D03*
X77500000Y72500000D03*
X90250000Y72750000D03*
X85000000Y72500000D03*
X101000000Y72500000D03*
X101000000Y80000000D03*
X95000000Y80000000D03*
X90000000Y80000000D03*
X80000000Y80000000D03*
X70000000Y80000000D03*
X60000000Y80000000D03*
X50000000Y80000000D03*
X40000000Y80000000D03*
X30000000Y80000000D03*
X20000000Y80000000D03*
X50000000Y84500000D03*
X20000000Y85050000D03*
X30000000Y84500000D03*
X10000000Y89000000D03*
X15000000Y89000000D03*
X30000000Y89000000D03*
X35000000Y89000000D03*
X50000000Y89000000D03*
X55000000Y89000000D03*
X70000000Y89000000D03*
X75000000Y89000000D03*
X90000000Y89000000D03*
X95000000Y89000000D03*
X110000000Y89000000D03*
X115000000Y89000000D03*
X125000000Y89000000D03*
X125000000Y93000000D03*
X105000000Y93000000D03*
X85000000Y93000000D03*
X65000000Y93000000D03*
X45000000Y93000000D03*
X25000000Y93000000D03*
X15000000Y102500000D03*
X20000000Y102500000D03*
X35000000Y102500000D03*
X40000000Y102500000D03*
X55000000Y102500000D03*
X60000000Y102500000D03*
X75000000Y102500000D03*
X80000000Y102500000D03*
X95000000Y102500000D03*
X100000000Y102500000D03*
X115000000Y102500000D03*
X122500000Y102500000D03*
X132500000Y102500000D03*
X140500000Y57000000D03*
X140500000Y63500000D03*
X140500000Y66500000D03*
X156000000Y68000000D03*
X153000000Y65000000D03*
X150000000Y68000000D03*
X146000000Y64500000D03*
X162500000Y1500000D03*
X147500000Y1500000D03*
X125000000Y1500000D03*
X112500000Y1500000D03*
X97500000Y1500000D03*
X82500000Y1500000D03*
X67500000Y1500000D03*
X52500000Y1500000D03*
X37500000Y1500000D03*
X22500000Y1500000D03*
X7500000Y1500000D03*
X1500000Y7500000D03*
X1500000Y15000000D03*
X1500000Y27500000D03*
X1500000Y40000000D03*
X1500000Y52500000D03*
X1500000Y65000000D03*
X1500000Y77500000D03*
X1500000Y90000000D03*
X1500000Y102500000D03*
X7500000Y108750000D03*
X12500000Y108750000D03*
X27500000Y108750000D03*
X42500000Y108750000D03*
X57500000Y108750000D03*
X72500000Y108750000D03*
X87500000Y108750000D03*
X102500000Y108750000D03*
X117500000Y108750000D03*
X132500000Y108750000D03*
X145500000Y106000000D03*
X151500000Y106750000D03*
X153500000Y108750000D03*
X162500000Y109000000D03*
X164750000Y103000000D03*
X162250000Y106500000D03*
X155200000Y104250000D03*
X159500000Y105500000D03*
X155500000Y101750000D03*
X151750000Y102750000D03*
X143500000Y102000000D03*
X143500000Y99000000D03*
X146400000Y92800000D03*
X140750000Y86500000D03*
X141000000Y89750000D03*
X143500000Y87250000D03*
X148000000Y86250000D03*
X150750000Y86000000D03*
X154250000Y86500000D03*
X165250000Y84800000D03*
X165250000Y91250000D03*
X168500000Y90500000D03*
D12*
X137540000Y80080000D03*
X131190000Y77540000D03*
X117540000Y60080000D03*
X111190000Y57540000D03*
X97540000Y80080000D03*
X91190000Y77540000D03*
X117540000Y100080000D03*
X111190000Y97540000D03*
X17540000Y40080000D03*
X11190000Y37540000D03*
X37540000Y40080000D03*
X31190000Y37540000D03*
X57540000Y40080000D03*
X51190000Y37540000D03*
X77540000Y40080000D03*
X71190000Y37540000D03*
X97540000Y40080000D03*
X91190000Y37540000D03*
X117540000Y40080000D03*
X111190000Y37540000D03*
X137540000Y40080000D03*
X131190000Y37540000D03*
X157540000Y40080000D03*
X151190000Y37540000D03*
X17540000Y60080000D03*
X11190000Y57540000D03*
X37540000Y60080000D03*
X31190000Y57540000D03*
X57540000Y60080000D03*
X51190000Y57540000D03*
X77540000Y60080000D03*
X71190000Y57540000D03*
X97540000Y60080000D03*
X91190000Y57540000D03*
X137540000Y60080000D03*
X131190000Y57540000D03*
X157540000Y20080000D03*
X151190000Y17540000D03*
X17540000Y80080000D03*
X11190000Y77540000D03*
X37540000Y80080000D03*
X31190000Y77540000D03*
X57540000Y80080000D03*
X51190000Y77540000D03*
X77540000Y80080000D03*
X71190000Y77540000D03*
X117540000Y80080000D03*
X111190000Y77540000D03*
X137540000Y20080000D03*
X131190000Y17540000D03*
X17540000Y100080000D03*
X11190000Y97540000D03*
X37540000Y100080000D03*
X31190000Y97540000D03*
X57540000Y100080000D03*
X51190000Y97540000D03*
X77540000Y100080000D03*
X71190000Y97540000D03*
X97540000Y100080000D03*
X91190000Y97540000D03*
X137540000Y100080000D03*
X131190000Y97540000D03*
D11*
X168500000Y85500000D03*
D13*
X120400000Y10000000D03*
X69600000Y10000000D03*
X60400000Y10000000D03*
X9600000Y10000000D03*
D11*
X147500000Y54600000D03*
X163000000Y55200000D03*
X159600000Y73000000D03*
X6350000Y94000000D03*
X135100000Y2400000D03*
X150150000Y74050000D03*
X153100000Y69600000D03*
X162850000Y74200000D03*
X165500000Y101500000D03*
X162250000Y102250000D03*
X148250000Y95000000D03*
X150287500Y95537500D03*
X155062500Y97262500D03*
X155062500Y95537500D03*
X153337500Y97262500D03*
X153337500Y95537500D03*
X148600000Y93899994D03*
X144750000Y97750000D03*
X148874980Y91600000D03*
X159400000Y91600000D03*
X143500000Y24300000D03*
X153100000Y57200000D03*
X123200000Y21000000D03*
X152750000Y75250000D03*
X155000000Y61200000D03*
X155000000Y49050020D03*
X133800000Y5700000D03*
X159622654Y98275020D03*
X159199984Y96400000D03*
X160000000Y48500000D03*
X156500000Y48500000D03*
X158200000Y59500000D03*
X148900000Y59500000D03*
X150000000Y52600000D03*
X158200000Y51500000D03*
X159200000Y49600000D03*
X159200000Y57600000D03*
X152000000Y45000000D03*
X133500000Y45000000D03*
X113500000Y45000000D03*
X93500000Y45000000D03*
X73500000Y45000000D03*
X53500000Y45000000D03*
X33500000Y45000000D03*
X13500000Y45000000D03*
X10000000Y45000000D03*
X143900000Y65000000D03*
X93400000Y65002540D03*
X113500000Y65002540D03*
X13500000Y65002540D03*
X33500000Y65002540D03*
X53500000Y65002540D03*
X73500000Y65002540D03*
X133500000Y65002540D03*
X10000520Y65002540D03*
X127000000Y37700000D03*
X127700010Y33300000D03*
X127000000Y86400000D03*
X14400000Y86400000D03*
X34400000Y86400000D03*
X54400000Y86400000D03*
X74400000Y86400000D03*
X94400000Y86400000D03*
X114400000Y86400000D03*
X133700000Y86400000D03*
X9840000Y85002540D03*
X132500000Y105002540D03*
X112500000Y105002540D03*
X92500000Y105002540D03*
X72500000Y105002540D03*
X52500000Y105002540D03*
X32500000Y105002540D03*
X10000000Y105002540D03*
X161250000Y86550000D03*
X160500000Y97250000D03*
X160000000Y70500000D03*
X154200000Y63500000D03*
X156100000Y55200000D03*
X161100000Y70600000D03*
X147800000Y52000000D03*
X153900000Y54500000D03*
X163199992Y60800000D03*
X156200000Y53200000D03*
X156600000Y57000000D03*
X162800000Y70400000D03*
X152200026Y62800000D03*
X153600000Y55400000D03*
X166200000Y57000000D03*
X156900000Y72500000D03*
X159100000Y70600000D03*
X164900000Y54700000D03*
X154500000Y100000000D03*
X157600000Y93600000D03*
X154500000Y101000000D03*
X158400000Y95900000D03*
X162825010Y75000010D03*
X159000000Y103400000D03*
X159800000Y103800000D03*
X164200000Y84999996D03*
X161700000Y84300000D03*
X162148855Y73700764D03*
X149600000Y93600000D03*
X149500000Y87600000D03*
X163500000Y83800000D03*
X163000000Y72300000D03*
X150395253Y93212869D03*
X152000000Y87600000D03*
X151161092Y92981547D03*
X153300000Y92500000D03*
X159700000Y88100000D03*
X153900000Y71100000D03*
X143900000Y36200000D03*
X3000000Y32000000D03*
X144800000Y55500000D03*
X3000000Y52000000D03*
X144300000Y69600000D03*
X3000000Y72000000D03*
X150900000Y81500000D03*
X3000000Y92000000D03*
X159000000Y37500000D03*
X161900000Y63200000D03*
X161900000Y70400000D03*
X131900000Y85400000D03*
X160900000Y75700000D03*
X143799999Y78500005D03*
X143500000Y73300000D03*
X160000000Y75400000D03*
X51899994Y85300000D03*
X155600000Y78099980D03*
X149500000Y78100000D03*
X158800000Y75400000D03*
X143900000Y72000000D03*
X146444982Y77655018D03*
D14*
X153100000Y73950000D02*
X153900000Y74750000D01*
X153900000Y74750000D02*
X153900000Y75600000D01*
X153900000Y75600000D02*
X153300000Y76200000D01*
X151950000Y76200000D02*
X150150000Y74400000D01*
X153300000Y76200000D02*
X151950000Y76200000D01*
X150150000Y74400000D02*
X150150000Y74050000D01*
X162850000Y74200000D02*
X162850000Y73450000D01*
X162850000Y73450000D02*
X162200000Y72800000D01*
X162200000Y72800000D02*
X159800000Y72800000D01*
X159800000Y72800000D02*
X159600000Y73000000D01*
X156699999Y73299999D02*
X159300001Y73299999D01*
X154950000Y71550000D02*
X156699999Y73299999D01*
X159300001Y73299999D02*
X159600000Y73000000D01*
X153524264Y69600000D02*
X154950000Y71025736D01*
X153100000Y69600000D02*
X153524264Y69600000D01*
X154950000Y71025736D02*
X154950000Y71550000D01*
D15*
X160800000Y107000000D02*
X162250000Y105550000D01*
X162250000Y105550000D02*
X162250000Y102250000D01*
D16*
X162250000Y102250000D02*
X164750000Y102250000D01*
X164750000Y102250000D02*
X165500000Y101500000D01*
D17*
X145750000Y92500000D02*
X144250000Y92500000D01*
X148250000Y95000000D02*
X145750000Y92500000D01*
D14*
X153337500Y95537500D02*
X150287500Y95537500D01*
X155062500Y95537500D02*
X155062500Y97262500D01*
X153337500Y95537500D02*
X155062500Y95537500D01*
X155062500Y97262500D02*
X153337500Y97262500D01*
X153337500Y97262500D02*
X153337500Y95537500D01*
D17*
X148874980Y93625014D02*
X148600000Y93899994D01*
X149000008Y94300002D02*
X148899999Y94199993D01*
X149147692Y94300002D02*
X149000008Y94300002D01*
X148874980Y91600000D02*
X148874980Y93625014D01*
X148899999Y94199993D02*
X148600000Y93899994D01*
D16*
X148500000Y96250000D02*
X149147692Y95602308D01*
X149147692Y95602308D02*
X149147692Y94300002D01*
X145825736Y96250000D02*
X148500000Y96250000D01*
X144750000Y97750000D02*
X144750000Y97325736D01*
X144750000Y97325736D02*
X145825736Y96250000D01*
D17*
X155999998Y94300002D02*
X149147692Y94300002D01*
X156700000Y93600000D02*
X155999998Y94300002D01*
X159400000Y91600000D02*
X157900000Y91600000D01*
X157900000Y91600000D02*
X156700000Y92800000D01*
X156700000Y92800000D02*
X156700000Y93600000D01*
D15*
X143075736Y24300000D02*
X143500000Y24300000D01*
X142000000Y24200000D02*
X142100000Y24300000D01*
X142100000Y24300000D02*
X143075736Y24300000D01*
X142000000Y24200000D02*
X142000000Y30900000D01*
X142000000Y30900000D02*
X155000000Y43900000D01*
X155000000Y48625756D02*
X155000000Y49050020D01*
X155000000Y43900000D02*
X155000000Y48625756D01*
X155000000Y49050020D02*
X155000000Y57200000D01*
X155000000Y57200000D02*
X155000000Y61200000D01*
D17*
X153100000Y57200000D02*
X155000000Y57200000D01*
D15*
X123200000Y21000000D02*
X125300000Y21000000D01*
X125300000Y21000000D02*
X127500000Y18800000D01*
D18*
X151300000Y73800000D02*
X152750000Y75250000D01*
X151300000Y64900000D02*
X151300000Y73800000D01*
D17*
X155000000Y61200000D02*
X151300000Y64900000D01*
D15*
X130900000Y22200000D02*
X140000000Y22200000D01*
X140000000Y22200000D02*
X142000000Y24200000D01*
X127500000Y18800000D02*
X130900000Y22200000D01*
X127500000Y12000000D02*
X127500000Y18800000D01*
X133800000Y5700000D02*
X127500000Y12000000D01*
D14*
X159622654Y97850756D02*
X159622654Y98275020D01*
X159622654Y96822670D02*
X159622654Y97850756D01*
X159199984Y96400000D02*
X159622654Y96822670D01*
D17*
X156500000Y48500000D02*
X160000000Y48500000D01*
X158200000Y51500000D02*
X158200000Y59500000D01*
X148900000Y59500000D02*
X148900000Y54124264D01*
X148900000Y54124264D02*
X150000000Y53024264D01*
X150000000Y53024264D02*
X150000000Y52600000D01*
X159200000Y57600000D02*
X159200000Y49600000D01*
D18*
X148000000Y45000000D02*
X152000000Y45000000D01*
X133500000Y45000000D02*
X148000000Y45000000D01*
X113500000Y45000000D02*
X133500000Y45000000D01*
X93500000Y45000000D02*
X113500000Y45000000D01*
X73500000Y45000000D02*
X93500000Y45000000D01*
X53500000Y45000000D02*
X73500000Y45000000D01*
X33500000Y45000000D02*
X53500000Y45000000D01*
X13500000Y45000000D02*
X33500000Y45000000D01*
X10000000Y45000000D02*
X13500000Y45000000D01*
X143897460Y65002540D02*
X143900000Y65000000D01*
X133500000Y65002540D02*
X143897460Y65002540D01*
X73500000Y65002540D02*
X93400000Y65002540D01*
X93400000Y65002540D02*
X113500000Y65002540D01*
X113500000Y65002540D02*
X133500000Y65002540D01*
X10000520Y65002540D02*
X13500000Y65002540D01*
X13500000Y65002540D02*
X33500000Y65002540D01*
X33500000Y65002540D02*
X53500000Y65002540D01*
X53500000Y65002540D02*
X73500000Y65002540D01*
D15*
X127000000Y37275736D02*
X127000000Y37700000D01*
X127000000Y34000010D02*
X127000000Y37275736D01*
X127700010Y33300000D02*
X127000000Y34000010D01*
X127000000Y86400000D02*
X133700000Y86400000D01*
X114400000Y86400000D02*
X127000000Y86400000D01*
X11237460Y86400000D02*
X14400000Y86400000D01*
X14400000Y86400000D02*
X34400000Y86400000D01*
X34400000Y86400000D02*
X54400000Y86400000D01*
X54400000Y86400000D02*
X74400000Y86400000D01*
X74400000Y86400000D02*
X94400000Y86400000D01*
X94400000Y86400000D02*
X114400000Y86400000D01*
X9840000Y85002540D02*
X11237460Y86400000D01*
D18*
X112500000Y105002540D02*
X132500000Y105002540D01*
X92500000Y105002540D02*
X112500000Y105002540D01*
X72500000Y105002540D02*
X92500000Y105002540D01*
X52500000Y105002540D02*
X72500000Y105002540D01*
X32500000Y105002540D02*
X52500000Y105002540D01*
X10000000Y105002540D02*
X32500000Y105002540D01*
D14*
X160950001Y86849999D02*
X161250000Y86550000D01*
X160500000Y87300000D02*
X160950001Y86849999D01*
X160500000Y97250000D02*
X160500000Y87300000D01*
X154200000Y64700000D02*
X159700001Y70200001D01*
X159700001Y70200001D02*
X160000000Y70500000D01*
X154200000Y63500000D02*
X154200000Y64700000D01*
X155800001Y55499999D02*
X156100000Y55200000D01*
X161100000Y70600000D02*
X155800001Y65300001D01*
X155800001Y65300001D02*
X155800001Y55499999D01*
X151200000Y51800000D02*
X148000000Y51800000D01*
X148000000Y51800000D02*
X147800000Y52000000D01*
X153900000Y54500000D02*
X151200000Y51800000D01*
X157400000Y60000000D02*
X157700001Y60300001D01*
X157400000Y54400000D02*
X157400000Y60000000D01*
X162899993Y60500001D02*
X163199992Y60800000D01*
X156200000Y53200000D02*
X157400000Y54400000D01*
X157700001Y60300001D02*
X162699993Y60300001D01*
X162699993Y60300001D02*
X162899993Y60500001D01*
X157600000Y61000000D02*
X156600000Y60000000D01*
X156600000Y60000000D02*
X156600000Y57000000D01*
X161600000Y61000000D02*
X157600000Y61000000D01*
X162800000Y62200000D02*
X161600000Y61000000D01*
X162800000Y70400000D02*
X162800000Y62200000D01*
X152200026Y62375736D02*
X152200026Y62800000D01*
X152200026Y56799974D02*
X152200026Y62375736D01*
X153600000Y55400000D02*
X152200026Y56799974D01*
X166200000Y57000000D02*
X166200000Y59600000D01*
X166200000Y59600000D02*
X164100000Y61700000D01*
X162700000Y71600000D02*
X162100000Y72200000D01*
X164100000Y61700000D02*
X164100000Y70900000D01*
X164100000Y70900000D02*
X163400000Y71600000D01*
X163400000Y71600000D02*
X162700000Y71600000D01*
X162100000Y72200000D02*
X157200000Y72200000D01*
X157200000Y72200000D02*
X156900000Y72500000D01*
X162500000Y71100000D02*
X162100000Y71500000D01*
X162100000Y71500000D02*
X160000000Y71500000D01*
X164900000Y54700000D02*
X164900000Y60125006D01*
X160000000Y71500000D02*
X159399999Y70899999D01*
X163000000Y71100000D02*
X162500000Y71100000D01*
X163500000Y61525006D02*
X163500000Y70600000D01*
X159399999Y70899999D02*
X159100000Y70600000D01*
X163500000Y70600000D02*
X163000000Y71100000D01*
X164900000Y60125006D02*
X163500000Y61525006D01*
X157600000Y96900000D02*
X154799999Y99700001D01*
X154799999Y99700001D02*
X154500000Y100000000D01*
X157600000Y93600000D02*
X157600000Y96900000D01*
X154799999Y100700001D02*
X154500000Y101000000D01*
X158400000Y97100000D02*
X154799999Y100700001D01*
X158400000Y95900000D02*
X158400000Y97100000D01*
X162825010Y75424274D02*
X162825010Y75000010D01*
X162825010Y99574990D02*
X162825010Y75424274D01*
X159000000Y103400000D02*
X162825010Y99574990D01*
X160099999Y103500001D02*
X159800000Y103800000D01*
X164200000Y99400000D02*
X160099999Y103500001D01*
X164200000Y84999996D02*
X164200000Y99400000D01*
X161999999Y84000001D02*
X161700000Y84300000D01*
X162200000Y74176173D02*
X162200000Y83800000D01*
X162200000Y83800000D02*
X161999999Y84000001D01*
X162148855Y74125028D02*
X162200000Y74176173D01*
X162148855Y73700764D02*
X162148855Y74125028D01*
X149500000Y87600000D02*
X149500000Y93500000D01*
X149500000Y93500000D02*
X149600000Y93600000D01*
X163500000Y83375736D02*
X163500000Y83800000D01*
X163000000Y72300000D02*
X163500000Y72800000D01*
X163500000Y72800000D02*
X163500000Y83375736D01*
X150395253Y92788605D02*
X150395253Y93212869D01*
X152000000Y87600000D02*
X150395253Y89204747D01*
X150395253Y89204747D02*
X150395253Y92788605D01*
X151585356Y92981547D02*
X151161092Y92981547D01*
X152818453Y92981547D02*
X151585356Y92981547D01*
X153300000Y92500000D02*
X152818453Y92981547D01*
X153900000Y71100000D02*
X153900000Y71900000D01*
X153900000Y71900000D02*
X156200000Y74200000D01*
X156200000Y74200000D02*
X160600000Y74200000D01*
X160600000Y74200000D02*
X161700000Y75300000D01*
X161700000Y75300000D02*
X161700000Y76600000D01*
X161700000Y76600000D02*
X160800000Y77500000D01*
X160800000Y77500000D02*
X160800000Y86100000D01*
X160800000Y86100000D02*
X159700000Y87200000D01*
X159700000Y87200000D02*
X159700000Y88100000D01*
D15*
X143900000Y34800000D02*
X143900000Y36200000D01*
X141100000Y32000000D02*
X143900000Y34800000D01*
X3000000Y32000000D02*
X141100000Y32000000D01*
X3000000Y52000000D02*
X141300000Y52000000D01*
X141300000Y52000000D02*
X144500001Y55200001D01*
X144500001Y55200001D02*
X144800000Y55500000D01*
X3000000Y72000000D02*
X6500000Y68500000D01*
X143875736Y69600000D02*
X144300000Y69600000D01*
X6500000Y68500000D02*
X142775736Y68500000D01*
X142775736Y68500000D02*
X143875736Y69600000D01*
X150600001Y81799999D02*
X150900000Y81500000D01*
X147400000Y85000000D02*
X150600001Y81799999D01*
X144000000Y85000000D02*
X147400000Y85000000D01*
D18*
X3000000Y92000000D02*
X3400000Y91600000D01*
X3400000Y91600000D02*
X137400000Y91600000D01*
X137400000Y91600000D02*
X144000000Y85000000D01*
D17*
X151250000Y37600000D02*
X151900000Y38250000D01*
X151900000Y38250000D02*
X156000000Y38250000D01*
X156000000Y38250000D02*
X156750000Y37500000D01*
X156750000Y37500000D02*
X159000000Y37500000D01*
D14*
X151250000Y37600000D02*
X151190000Y37540000D01*
D17*
X161900000Y70400000D02*
X161900000Y63200000D01*
D15*
X151190000Y17540000D02*
X131190000Y17540000D01*
X132499996Y85400000D02*
X131900000Y85400000D01*
X141600000Y85400000D02*
X132499996Y85400000D01*
X146600000Y80400000D02*
X141600000Y85400000D01*
X156200000Y80400000D02*
X146600000Y80400000D01*
X160900000Y75700000D02*
X156200000Y80400000D01*
X143799999Y78500005D02*
X143200001Y78500005D01*
X143200001Y78500005D02*
X139400006Y82300000D01*
X115950000Y82300000D02*
X139400006Y82300000D01*
X111190000Y77540000D02*
X115950000Y82300000D01*
X143200001Y73000001D02*
X143500000Y73300000D01*
X140900000Y70700000D02*
X143200001Y73000001D01*
X90400000Y70700000D02*
X140900000Y70700000D01*
X87900000Y73200000D02*
X90400000Y70700000D01*
X87900000Y76017766D02*
X87900000Y73200000D01*
X89422234Y77540000D02*
X87900000Y76017766D01*
X91190000Y77540000D02*
X89422234Y77540000D01*
X156200000Y79100000D02*
X152400000Y79100000D01*
D14*
X156300000Y79000000D02*
X156200000Y79100000D01*
D15*
X150100000Y76800000D02*
X144800000Y76800000D01*
X139800000Y71800000D02*
X106000000Y71800000D01*
X152400000Y79100000D02*
X150100000Y76800000D01*
X73800000Y82900000D02*
X71190000Y80290000D01*
X144800000Y76800000D02*
X139800000Y71800000D01*
X71190000Y80290000D02*
X71190000Y77540000D01*
X106000000Y71800000D02*
X103700000Y74100000D01*
X103700000Y74100000D02*
X103700000Y79900000D01*
X103700000Y79900000D02*
X100700000Y82900000D01*
X100700000Y82900000D02*
X73800000Y82900000D01*
D14*
X160000000Y75400000D02*
X159900000Y75400000D01*
X159900000Y75400000D02*
X156300000Y79000000D01*
D15*
X52324258Y85300000D02*
X51899994Y85300000D01*
X129800000Y85300000D02*
X52324258Y85300000D01*
X130700000Y84400000D02*
X129800000Y85300000D01*
X141000000Y84400000D02*
X130700000Y84400000D01*
X149500000Y78100000D02*
X147300000Y78100000D01*
X147300000Y78100000D02*
X141000000Y84400000D01*
D14*
X156100020Y78099980D02*
X156024264Y78099980D01*
X158800000Y75400000D02*
X156100020Y78099980D01*
X156024264Y78099980D02*
X155600000Y78099980D01*
D15*
X27700000Y75817766D02*
X27700000Y72700000D01*
X31190000Y77540000D02*
X29422234Y77540000D01*
X143600001Y71700001D02*
X143900000Y72000000D01*
X141500000Y69600000D02*
X143600001Y71700001D01*
X30800000Y69600000D02*
X141500000Y69600000D01*
X27700000Y72700000D02*
X30800000Y69600000D01*
X29422234Y77540000D02*
X27700000Y75817766D01*
X31190000Y77540000D02*
X31650000Y78000000D01*
X129100000Y84300000D02*
X130100000Y83300000D01*
X52900000Y82300000D02*
X54900000Y84300000D01*
X140800000Y83300000D02*
X146144983Y77955017D01*
X54900000Y84300000D02*
X129100000Y84300000D01*
X15950000Y82300000D02*
X52900000Y82300000D01*
X11190000Y77540000D02*
X15950000Y82300000D01*
X130100000Y83300000D02*
X140800000Y83300000D01*
X146144983Y77955017D02*
X146444982Y77655018D01*
D19*
G36*
X162873718Y107824513D02*
X162872285Y106182690D01*
X163499259Y104665296D01*
X164659190Y103503340D01*
X166175487Y102873718D01*
X167817310Y102872285D01*
X169290000Y103480788D01*
X169290000Y85069930D01*
X169255074Y84894345D01*
X169195225Y84804774D01*
X169105655Y84744926D01*
X168930070Y84710000D01*
X166000000Y84710000D01*
X165931416Y84696358D01*
X165478804Y84620238D01*
X165406632Y84590343D01*
X165222862Y84514223D01*
X164898438Y84297451D01*
X164783354Y84182366D01*
X164702549Y84101561D01*
X164485776Y83777138D01*
X164435581Y83655954D01*
X164434874Y83654247D01*
X164435162Y83985167D01*
X164399754Y84070861D01*
X164728943Y84206879D01*
X164992192Y84469669D01*
X165134838Y84813197D01*
X165135162Y85185163D01*
X164993117Y85528939D01*
X164960000Y85562114D01*
X164960000Y99400000D01*
X164902148Y99690839D01*
X164737401Y99937401D01*
X160735122Y103939680D01*
X160735162Y103985167D01*
X160593117Y104328943D01*
X160330327Y104592192D01*
X159986799Y104734838D01*
X159614833Y104735162D01*
X159271057Y104593117D01*
X159012479Y104334990D01*
X158814833Y104335162D01*
X158471057Y104193117D01*
X158207808Y103930327D01*
X158065162Y103586799D01*
X158064838Y103214833D01*
X158206883Y102871057D01*
X158469673Y102607808D01*
X158813201Y102465162D01*
X158860077Y102465121D01*
X162065010Y99260188D01*
X162065010Y87025958D01*
X162043117Y87078943D01*
X161780327Y87342192D01*
X161436799Y87484838D01*
X161389923Y87484879D01*
X161260000Y87614802D01*
X161260000Y96687537D01*
X161292192Y96719673D01*
X161434838Y97063201D01*
X161435162Y97435167D01*
X161293117Y97778943D01*
X161030327Y98042192D01*
X160686799Y98184838D01*
X160557576Y98184951D01*
X160557816Y98460187D01*
X160415771Y98803963D01*
X160152981Y99067212D01*
X159809453Y99209858D01*
X159437487Y99210182D01*
X159093711Y99068137D01*
X158830462Y98805347D01*
X158687816Y98461819D01*
X158687492Y98089853D01*
X158829537Y97746077D01*
X158862654Y97712902D01*
X158862654Y97712148D01*
X155435122Y101139680D01*
X155435162Y101185167D01*
X155293117Y101528943D01*
X155030327Y101792192D01*
X154686799Y101934838D01*
X154314833Y101935162D01*
X153971057Y101793117D01*
X153707808Y101530327D01*
X153565162Y101186799D01*
X153564838Y100814833D01*
X153695069Y100499649D01*
X153565162Y100186799D01*
X153564838Y99814833D01*
X153706883Y99471057D01*
X153969673Y99207808D01*
X154313201Y99065162D01*
X154360077Y99065121D01*
X156840000Y96585198D01*
X156840000Y94640868D01*
X156590432Y94890436D01*
X156319539Y95071441D01*
X155999998Y95135002D01*
X149932692Y95135002D01*
X149932692Y95602308D01*
X149872937Y95902714D01*
X149702771Y96157387D01*
X149055079Y96805079D01*
X148800407Y96975245D01*
X148500000Y97035000D01*
X146150894Y97035000D01*
X145666604Y97519290D01*
X145684838Y97563201D01*
X145685162Y97935167D01*
X145543117Y98278943D01*
X145280327Y98542192D01*
X144936799Y98684838D01*
X144564833Y98685162D01*
X144221057Y98543117D01*
X143957808Y98280327D01*
X143815162Y97936799D01*
X143814838Y97564833D01*
X143956883Y97221057D01*
X143993023Y97184853D01*
X144024755Y97025329D01*
X144194921Y96770657D01*
X145270657Y95694921D01*
X145525330Y95524755D01*
X145825736Y95465000D01*
X148174842Y95465000D01*
X148362692Y95277150D01*
X148362692Y94843554D01*
X148311667Y94792529D01*
X148071057Y94693111D01*
X147807808Y94430321D01*
X147665162Y94086793D01*
X147664838Y93714827D01*
X147806883Y93371051D01*
X148039980Y93137547D01*
X148039980Y92027234D01*
X147940142Y91786799D01*
X147939818Y91414833D01*
X148081863Y91071057D01*
X148344653Y90807808D01*
X148688181Y90665162D01*
X148740000Y90665117D01*
X148740000Y88162463D01*
X148707808Y88130327D01*
X148565162Y87786799D01*
X148564838Y87414833D01*
X148706883Y87071057D01*
X148969673Y86807808D01*
X149313201Y86665162D01*
X149685167Y86664838D01*
X150028943Y86806883D01*
X150292192Y87069673D01*
X150434838Y87413201D01*
X150435162Y87785167D01*
X150293117Y88128943D01*
X150260000Y88162118D01*
X150260000Y88265198D01*
X151064878Y87460320D01*
X151064838Y87414833D01*
X151206883Y87071057D01*
X151469673Y86807808D01*
X151813201Y86665162D01*
X152185167Y86664838D01*
X152528943Y86806883D01*
X152792192Y87069673D01*
X152934838Y87413201D01*
X152935162Y87785167D01*
X152793117Y88128943D01*
X152530327Y88392192D01*
X152186799Y88534838D01*
X152139923Y88534879D01*
X151155253Y89519549D01*
X151155253Y92046551D01*
X151346259Y92046385D01*
X151690035Y92188430D01*
X151723210Y92221547D01*
X152403383Y92221547D01*
X152506883Y91971057D01*
X152769673Y91707808D01*
X153113201Y91565162D01*
X153485167Y91564838D01*
X153828943Y91706883D01*
X154092192Y91969673D01*
X154234838Y92313201D01*
X154235162Y92685167D01*
X154093117Y93028943D01*
X153830327Y93292192D01*
X153486799Y93434838D01*
X153439923Y93434879D01*
X153409800Y93465002D01*
X155654130Y93465002D01*
X155865000Y93254132D01*
X155865000Y92800000D01*
X155928561Y92480459D01*
X156101561Y92221547D01*
X156109566Y92209566D01*
X157309566Y91009566D01*
X157580459Y90828561D01*
X157900000Y90765000D01*
X158972766Y90765000D01*
X159213201Y90665162D01*
X159585167Y90664838D01*
X159740000Y90728814D01*
X159740000Y89034966D01*
X159514833Y89035162D01*
X159171057Y88893117D01*
X158907808Y88630327D01*
X158765162Y88286799D01*
X158764838Y87914833D01*
X158906883Y87571057D01*
X158940000Y87537882D01*
X158940000Y87200000D01*
X158997852Y86909161D01*
X159162599Y86662599D01*
X160040000Y85785198D01*
X160040000Y77882290D01*
X156861145Y81061145D01*
X156557809Y81263827D01*
X156200000Y81335000D01*
X151834857Y81335000D01*
X151835162Y81685167D01*
X151693117Y82028943D01*
X151430327Y82292192D01*
X151429935Y82292355D01*
X148061145Y85661145D01*
X147757809Y85863827D01*
X147400000Y85935000D01*
X144316579Y85935000D01*
X138025790Y92225790D01*
X137894969Y92313201D01*
X137738675Y92417633D01*
X137651366Y92435000D01*
X137400000Y92485001D01*
X137399995Y92485000D01*
X135813362Y92485000D01*
X136490658Y92764853D01*
X137232542Y93505443D01*
X137634542Y94473567D01*
X137634744Y94705911D01*
X138594743Y94705911D01*
X138820344Y94159914D01*
X139237717Y93741812D01*
X139783319Y93515258D01*
X140374089Y93514743D01*
X140920086Y93740344D01*
X141338188Y94157717D01*
X141564742Y94703319D01*
X141565257Y95294089D01*
X141339656Y95840086D01*
X140922283Y96258188D01*
X140376681Y96484742D01*
X139785911Y96485257D01*
X139239914Y96259656D01*
X138821812Y95842283D01*
X138595258Y95296681D01*
X138594743Y94705911D01*
X137634744Y94705911D01*
X137635457Y95521834D01*
X137235147Y96490658D01*
X136494557Y97232542D01*
X135526433Y97634542D01*
X134478166Y97635457D01*
X133509342Y97235147D01*
X132817815Y96544827D01*
X133074672Y97163405D01*
X133075326Y97913305D01*
X132788957Y98606372D01*
X132259161Y99137093D01*
X131566595Y99424672D01*
X130816695Y99425326D01*
X130123628Y99138957D01*
X129592907Y98609161D01*
X129305328Y97916595D01*
X129304674Y97166695D01*
X129591043Y96473628D01*
X129593006Y96471661D01*
X129079914Y96259656D01*
X128661812Y95842283D01*
X128435258Y95296681D01*
X128434743Y94705911D01*
X128660344Y94159914D01*
X129077717Y93741812D01*
X129623319Y93515258D01*
X130214089Y93514743D01*
X130760086Y93740344D01*
X131178188Y94157717D01*
X131404742Y94703319D01*
X131405257Y95294089D01*
X131256156Y95654942D01*
X131563305Y95654674D01*
X132256372Y95941043D01*
X132736736Y96420569D01*
X132365458Y95526433D01*
X132364543Y94478166D01*
X132764853Y93509342D01*
X133505443Y92767458D01*
X134185678Y92485000D01*
X115813362Y92485000D01*
X116490658Y92764853D01*
X117232542Y93505443D01*
X117634542Y94473567D01*
X117634744Y94705911D01*
X118594743Y94705911D01*
X118820344Y94159914D01*
X119237717Y93741812D01*
X119783319Y93515258D01*
X120374089Y93514743D01*
X120920086Y93740344D01*
X121338188Y94157717D01*
X121564742Y94703319D01*
X121565257Y95294089D01*
X121339656Y95840086D01*
X120922283Y96258188D01*
X120376681Y96484742D01*
X119785911Y96485257D01*
X119239914Y96259656D01*
X118821812Y95842283D01*
X118595258Y95296681D01*
X118594743Y94705911D01*
X117634744Y94705911D01*
X117635457Y95521834D01*
X117235147Y96490658D01*
X116494557Y97232542D01*
X115526433Y97634542D01*
X114478166Y97635457D01*
X113509342Y97235147D01*
X112817815Y96544827D01*
X113074672Y97163405D01*
X113075326Y97913305D01*
X112788957Y98606372D01*
X112259161Y99137093D01*
X111566595Y99424672D01*
X110816695Y99425326D01*
X110123628Y99138957D01*
X109592907Y98609161D01*
X109305328Y97916595D01*
X109304674Y97166695D01*
X109591043Y96473628D01*
X109593006Y96471661D01*
X109079914Y96259656D01*
X108661812Y95842283D01*
X108435258Y95296681D01*
X108434743Y94705911D01*
X108660344Y94159914D01*
X109077717Y93741812D01*
X109623319Y93515258D01*
X110214089Y93514743D01*
X110760086Y93740344D01*
X111178188Y94157717D01*
X111404742Y94703319D01*
X111405257Y95294089D01*
X111256156Y95654942D01*
X111563305Y95654674D01*
X112256372Y95941043D01*
X112736736Y96420569D01*
X112365458Y95526433D01*
X112364543Y94478166D01*
X112764853Y93509342D01*
X113505443Y92767458D01*
X114185678Y92485000D01*
X95813362Y92485000D01*
X96490658Y92764853D01*
X97232542Y93505443D01*
X97634542Y94473567D01*
X97634744Y94705911D01*
X98594743Y94705911D01*
X98820344Y94159914D01*
X99237717Y93741812D01*
X99783319Y93515258D01*
X100374089Y93514743D01*
X100920086Y93740344D01*
X101338188Y94157717D01*
X101564742Y94703319D01*
X101565257Y95294089D01*
X101339656Y95840086D01*
X100922283Y96258188D01*
X100376681Y96484742D01*
X99785911Y96485257D01*
X99239914Y96259656D01*
X98821812Y95842283D01*
X98595258Y95296681D01*
X98594743Y94705911D01*
X97634744Y94705911D01*
X97635457Y95521834D01*
X97235147Y96490658D01*
X96494557Y97232542D01*
X95526433Y97634542D01*
X94478166Y97635457D01*
X93509342Y97235147D01*
X92817815Y96544827D01*
X93074672Y97163405D01*
X93075326Y97913305D01*
X92788957Y98606372D01*
X92259161Y99137093D01*
X91566595Y99424672D01*
X90816695Y99425326D01*
X90123628Y99138957D01*
X89592907Y98609161D01*
X89305328Y97916595D01*
X89304674Y97166695D01*
X89591043Y96473628D01*
X89593006Y96471661D01*
X89079914Y96259656D01*
X88661812Y95842283D01*
X88435258Y95296681D01*
X88434743Y94705911D01*
X88660344Y94159914D01*
X89077717Y93741812D01*
X89623319Y93515258D01*
X90214089Y93514743D01*
X90760086Y93740344D01*
X91178188Y94157717D01*
X91404742Y94703319D01*
X91405257Y95294089D01*
X91256156Y95654942D01*
X91563305Y95654674D01*
X92256372Y95941043D01*
X92736736Y96420569D01*
X92365458Y95526433D01*
X92364543Y94478166D01*
X92764853Y93509342D01*
X93505443Y92767458D01*
X94185678Y92485000D01*
X75813362Y92485000D01*
X76490658Y92764853D01*
X77232542Y93505443D01*
X77634542Y94473567D01*
X77634744Y94705911D01*
X78594743Y94705911D01*
X78820344Y94159914D01*
X79237717Y93741812D01*
X79783319Y93515258D01*
X80374089Y93514743D01*
X80920086Y93740344D01*
X81338188Y94157717D01*
X81564742Y94703319D01*
X81565257Y95294089D01*
X81339656Y95840086D01*
X80922283Y96258188D01*
X80376681Y96484742D01*
X79785911Y96485257D01*
X79239914Y96259656D01*
X78821812Y95842283D01*
X78595258Y95296681D01*
X78594743Y94705911D01*
X77634744Y94705911D01*
X77635457Y95521834D01*
X77235147Y96490658D01*
X76494557Y97232542D01*
X75526433Y97634542D01*
X74478166Y97635457D01*
X73509342Y97235147D01*
X72817815Y96544827D01*
X73074672Y97163405D01*
X73075326Y97913305D01*
X72788957Y98606372D01*
X72259161Y99137093D01*
X71566595Y99424672D01*
X70816695Y99425326D01*
X70123628Y99138957D01*
X69592907Y98609161D01*
X69305328Y97916595D01*
X69304674Y97166695D01*
X69591043Y96473628D01*
X69593006Y96471661D01*
X69079914Y96259656D01*
X68661812Y95842283D01*
X68435258Y95296681D01*
X68434743Y94705911D01*
X68660344Y94159914D01*
X69077717Y93741812D01*
X69623319Y93515258D01*
X70214089Y93514743D01*
X70760086Y93740344D01*
X71178188Y94157717D01*
X71404742Y94703319D01*
X71405257Y95294089D01*
X71256156Y95654942D01*
X71563305Y95654674D01*
X72256372Y95941043D01*
X72736736Y96420569D01*
X72365458Y95526433D01*
X72364543Y94478166D01*
X72764853Y93509342D01*
X73505443Y92767458D01*
X74185678Y92485000D01*
X55813362Y92485000D01*
X56490658Y92764853D01*
X57232542Y93505443D01*
X57634542Y94473567D01*
X57634744Y94705911D01*
X58594743Y94705911D01*
X58820344Y94159914D01*
X59237717Y93741812D01*
X59783319Y93515258D01*
X60374089Y93514743D01*
X60920086Y93740344D01*
X61338188Y94157717D01*
X61564742Y94703319D01*
X61565257Y95294089D01*
X61339656Y95840086D01*
X60922283Y96258188D01*
X60376681Y96484742D01*
X59785911Y96485257D01*
X59239914Y96259656D01*
X58821812Y95842283D01*
X58595258Y95296681D01*
X58594743Y94705911D01*
X57634744Y94705911D01*
X57635457Y95521834D01*
X57235147Y96490658D01*
X56494557Y97232542D01*
X55526433Y97634542D01*
X54478166Y97635457D01*
X53509342Y97235147D01*
X52817815Y96544827D01*
X53074672Y97163405D01*
X53075326Y97913305D01*
X52788957Y98606372D01*
X52259161Y99137093D01*
X51566595Y99424672D01*
X50816695Y99425326D01*
X50123628Y99138957D01*
X49592907Y98609161D01*
X49305328Y97916595D01*
X49304674Y97166695D01*
X49591043Y96473628D01*
X49593006Y96471661D01*
X49079914Y96259656D01*
X48661812Y95842283D01*
X48435258Y95296681D01*
X48434743Y94705911D01*
X48660344Y94159914D01*
X49077717Y93741812D01*
X49623319Y93515258D01*
X50214089Y93514743D01*
X50760086Y93740344D01*
X51178188Y94157717D01*
X51404742Y94703319D01*
X51405257Y95294089D01*
X51256156Y95654942D01*
X51563305Y95654674D01*
X52256372Y95941043D01*
X52736736Y96420569D01*
X52365458Y95526433D01*
X52364543Y94478166D01*
X52764853Y93509342D01*
X53505443Y92767458D01*
X54185678Y92485000D01*
X35813362Y92485000D01*
X36490658Y92764853D01*
X37232542Y93505443D01*
X37634542Y94473567D01*
X37634744Y94705911D01*
X38594743Y94705911D01*
X38820344Y94159914D01*
X39237717Y93741812D01*
X39783319Y93515258D01*
X40374089Y93514743D01*
X40920086Y93740344D01*
X41338188Y94157717D01*
X41564742Y94703319D01*
X41565257Y95294089D01*
X41339656Y95840086D01*
X40922283Y96258188D01*
X40376681Y96484742D01*
X39785911Y96485257D01*
X39239914Y96259656D01*
X38821812Y95842283D01*
X38595258Y95296681D01*
X38594743Y94705911D01*
X37634744Y94705911D01*
X37635457Y95521834D01*
X37235147Y96490658D01*
X36494557Y97232542D01*
X35526433Y97634542D01*
X34478166Y97635457D01*
X33509342Y97235147D01*
X32817815Y96544827D01*
X33074672Y97163405D01*
X33075326Y97913305D01*
X32788957Y98606372D01*
X32259161Y99137093D01*
X31566595Y99424672D01*
X30816695Y99425326D01*
X30123628Y99138957D01*
X29592907Y98609161D01*
X29305328Y97916595D01*
X29304674Y97166695D01*
X29591043Y96473628D01*
X29593006Y96471661D01*
X29079914Y96259656D01*
X28661812Y95842283D01*
X28435258Y95296681D01*
X28434743Y94705911D01*
X28660344Y94159914D01*
X29077717Y93741812D01*
X29623319Y93515258D01*
X30214089Y93514743D01*
X30760086Y93740344D01*
X31178188Y94157717D01*
X31404742Y94703319D01*
X31405257Y95294089D01*
X31256156Y95654942D01*
X31563305Y95654674D01*
X32256372Y95941043D01*
X32736736Y96420569D01*
X32365458Y95526433D01*
X32364543Y94478166D01*
X32764853Y93509342D01*
X33505443Y92767458D01*
X34185678Y92485000D01*
X15813362Y92485000D01*
X16490658Y92764853D01*
X17232542Y93505443D01*
X17634542Y94473567D01*
X17634744Y94705911D01*
X18594743Y94705911D01*
X18820344Y94159914D01*
X19237717Y93741812D01*
X19783319Y93515258D01*
X20374089Y93514743D01*
X20920086Y93740344D01*
X21338188Y94157717D01*
X21564742Y94703319D01*
X21565257Y95294089D01*
X21339656Y95840086D01*
X20922283Y96258188D01*
X20376681Y96484742D01*
X19785911Y96485257D01*
X19239914Y96259656D01*
X18821812Y95842283D01*
X18595258Y95296681D01*
X18594743Y94705911D01*
X17634744Y94705911D01*
X17635457Y95521834D01*
X17235147Y96490658D01*
X16494557Y97232542D01*
X15526433Y97634542D01*
X14478166Y97635457D01*
X13509342Y97235147D01*
X12817815Y96544827D01*
X13074672Y97163405D01*
X13075326Y97913305D01*
X12788957Y98606372D01*
X12259161Y99137093D01*
X11566595Y99424672D01*
X10816695Y99425326D01*
X10123628Y99138957D01*
X9592907Y98609161D01*
X9305328Y97916595D01*
X9304674Y97166695D01*
X9591043Y96473628D01*
X9593006Y96471661D01*
X9079914Y96259656D01*
X8661812Y95842283D01*
X8435258Y95296681D01*
X8434743Y94705911D01*
X8660344Y94159914D01*
X9077717Y93741812D01*
X9623319Y93515258D01*
X10214089Y93514743D01*
X10760086Y93740344D01*
X11178188Y94157717D01*
X11404742Y94703319D01*
X11405257Y95294089D01*
X11256156Y95654942D01*
X11563305Y95654674D01*
X12256372Y95941043D01*
X12736736Y96420569D01*
X12365458Y95526433D01*
X12364543Y94478166D01*
X12764853Y93509342D01*
X13505443Y92767458D01*
X14185678Y92485000D01*
X3811274Y92485000D01*
X3793117Y92528943D01*
X3530327Y92792192D01*
X3186799Y92934838D01*
X2814833Y92935162D01*
X2471057Y92793117D01*
X2207808Y92530327D01*
X2065162Y92186799D01*
X2064838Y91814833D01*
X2206883Y91471057D01*
X2469673Y91207808D01*
X2590987Y91157434D01*
X2774208Y90974213D01*
X2774210Y90974210D01*
X3061325Y90782367D01*
X3400000Y90715000D01*
X137033420Y90715000D01*
X141413421Y86335000D01*
X134634944Y86335000D01*
X134635162Y86585167D01*
X134493117Y86928943D01*
X134230327Y87192192D01*
X133886799Y87334838D01*
X133514833Y87335162D01*
X133514441Y87335000D01*
X127000816Y87335000D01*
X126814833Y87335162D01*
X126814441Y87335000D01*
X114400816Y87335000D01*
X114214833Y87335162D01*
X114214441Y87335000D01*
X94400816Y87335000D01*
X94214833Y87335162D01*
X94214441Y87335000D01*
X74400816Y87335000D01*
X74214833Y87335162D01*
X74214441Y87335000D01*
X54400816Y87335000D01*
X54214833Y87335162D01*
X54214441Y87335000D01*
X34400816Y87335000D01*
X34214833Y87335162D01*
X34214441Y87335000D01*
X14400816Y87335000D01*
X14214833Y87335162D01*
X14214441Y87335000D01*
X11237460Y87335000D01*
X10879651Y87263827D01*
X10576315Y87061145D01*
X9179146Y85663976D01*
X9047808Y85532867D01*
X8905162Y85189339D01*
X8904838Y84817373D01*
X9046883Y84473597D01*
X9309673Y84210348D01*
X9653201Y84067702D01*
X10025167Y84067378D01*
X10368943Y84209423D01*
X10632192Y84472213D01*
X10632355Y84472605D01*
X11624750Y85465000D01*
X14399184Y85465000D01*
X14585167Y85464838D01*
X14585559Y85465000D01*
X34399184Y85465000D01*
X34585167Y85464838D01*
X34585559Y85465000D01*
X50965137Y85465000D01*
X50964832Y85114833D01*
X51106877Y84771057D01*
X51369667Y84507808D01*
X51713195Y84365162D01*
X52085161Y84364838D01*
X52085553Y84365000D01*
X53642710Y84365000D01*
X52512710Y83235000D01*
X15950005Y83235000D01*
X15950000Y83235001D01*
X15651556Y83175636D01*
X15592191Y83163827D01*
X15357307Y83006883D01*
X15288855Y82961145D01*
X11697871Y79370161D01*
X11566595Y79424672D01*
X10816695Y79425326D01*
X10123628Y79138957D01*
X9592907Y78609161D01*
X9305328Y77916595D01*
X9304674Y77166695D01*
X9591043Y76473628D01*
X9593006Y76471661D01*
X9079914Y76259656D01*
X8661812Y75842283D01*
X8435258Y75296681D01*
X8434743Y74705911D01*
X8660344Y74159914D01*
X9077717Y73741812D01*
X9623319Y73515258D01*
X10214089Y73514743D01*
X10760086Y73740344D01*
X11178188Y74157717D01*
X11404742Y74703319D01*
X11405257Y75294089D01*
X11256156Y75654942D01*
X11563305Y75654674D01*
X12256372Y75941043D01*
X12736736Y76420569D01*
X12365458Y75526433D01*
X12364543Y74478166D01*
X12764853Y73509342D01*
X13505443Y72767458D01*
X14473567Y72365458D01*
X15521834Y72364543D01*
X16490658Y72764853D01*
X17232542Y73505443D01*
X17634542Y74473567D01*
X17634744Y74705911D01*
X18594743Y74705911D01*
X18820344Y74159914D01*
X19237717Y73741812D01*
X19783319Y73515258D01*
X20374089Y73514743D01*
X20920086Y73740344D01*
X21338188Y74157717D01*
X21564742Y74703319D01*
X21565257Y75294089D01*
X21339656Y75840086D01*
X20922283Y76258188D01*
X20376681Y76484742D01*
X19785911Y76485257D01*
X19239914Y76259656D01*
X18821812Y75842283D01*
X18595258Y75296681D01*
X18594743Y74705911D01*
X17634744Y74705911D01*
X17635457Y75521834D01*
X17235147Y76490658D01*
X16494557Y77232542D01*
X15526433Y77634542D01*
X14478166Y77635457D01*
X13509342Y77235147D01*
X12817815Y76544827D01*
X13074672Y77163405D01*
X13075326Y77913305D01*
X13019852Y78047562D01*
X15816124Y80843834D01*
X15655328Y80456595D01*
X15654674Y79706695D01*
X15941043Y79013628D01*
X16470839Y78482907D01*
X17163405Y78195328D01*
X17913305Y78194674D01*
X18606372Y78481043D01*
X19137093Y79010839D01*
X19424672Y79703405D01*
X19425326Y80453305D01*
X19138957Y81146372D01*
X18920710Y81365000D01*
X36159123Y81365000D01*
X35942907Y81149161D01*
X35655328Y80456595D01*
X35654674Y79706695D01*
X35941043Y79013628D01*
X36470839Y78482907D01*
X37163405Y78195328D01*
X37913305Y78194674D01*
X38606372Y78481043D01*
X39137093Y79010839D01*
X39424672Y79703405D01*
X39424674Y79706695D01*
X55654674Y79706695D01*
X55941043Y79013628D01*
X56470839Y78482907D01*
X57163405Y78195328D01*
X57913305Y78194674D01*
X58606372Y78481043D01*
X59137093Y79010839D01*
X59424672Y79703405D01*
X59425326Y80453305D01*
X59138957Y81146372D01*
X58609161Y81677093D01*
X57916595Y81964672D01*
X57166695Y81965326D01*
X56473628Y81678957D01*
X55942907Y81149161D01*
X55655328Y80456595D01*
X55654674Y79706695D01*
X39424674Y79706695D01*
X39425326Y80453305D01*
X39138957Y81146372D01*
X38920710Y81365000D01*
X52900000Y81365000D01*
X53257809Y81436173D01*
X53561145Y81638855D01*
X55287290Y83365000D01*
X72942710Y83365000D01*
X70528855Y80951145D01*
X70326173Y80647809D01*
X70255000Y80290000D01*
X70255000Y79193239D01*
X70123628Y79138957D01*
X69592907Y78609161D01*
X69305328Y77916595D01*
X69304674Y77166695D01*
X69591043Y76473628D01*
X69593006Y76471661D01*
X69079914Y76259656D01*
X68661812Y75842283D01*
X68435258Y75296681D01*
X68434743Y74705911D01*
X68660344Y74159914D01*
X69077717Y73741812D01*
X69623319Y73515258D01*
X70214089Y73514743D01*
X70760086Y73740344D01*
X71178188Y74157717D01*
X71404742Y74703319D01*
X71405257Y75294089D01*
X71256156Y75654942D01*
X71563305Y75654674D01*
X72256372Y75941043D01*
X72736736Y76420569D01*
X72365458Y75526433D01*
X72364543Y74478166D01*
X72764853Y73509342D01*
X73505443Y72767458D01*
X74473567Y72365458D01*
X75521834Y72364543D01*
X76490658Y72764853D01*
X77232542Y73505443D01*
X77634542Y74473567D01*
X77634744Y74705911D01*
X78594743Y74705911D01*
X78820344Y74159914D01*
X79237717Y73741812D01*
X79783319Y73515258D01*
X80374089Y73514743D01*
X80920086Y73740344D01*
X81338188Y74157717D01*
X81564742Y74703319D01*
X81565257Y75294089D01*
X81339656Y75840086D01*
X80922283Y76258188D01*
X80376681Y76484742D01*
X79785911Y76485257D01*
X79239914Y76259656D01*
X78821812Y75842283D01*
X78595258Y75296681D01*
X78594743Y74705911D01*
X77634744Y74705911D01*
X77635457Y75521834D01*
X77235147Y76490658D01*
X76494557Y77232542D01*
X75526433Y77634542D01*
X74478166Y77635457D01*
X73509342Y77235147D01*
X72817815Y76544827D01*
X73074672Y77163405D01*
X73075326Y77913305D01*
X72788957Y78606372D01*
X72259161Y79137093D01*
X72125000Y79192802D01*
X72125000Y79902710D01*
X74187290Y81965000D01*
X77165906Y81965000D01*
X76473628Y81678957D01*
X75942907Y81149161D01*
X75655328Y80456595D01*
X75654674Y79706695D01*
X75941043Y79013628D01*
X76470839Y78482907D01*
X77163405Y78195328D01*
X77913305Y78194674D01*
X78606372Y78481043D01*
X79137093Y79010839D01*
X79424672Y79703405D01*
X79425326Y80453305D01*
X79138957Y81146372D01*
X78609161Y81677093D01*
X77916595Y81964672D01*
X77540498Y81965000D01*
X97165906Y81965000D01*
X96473628Y81678957D01*
X95942907Y81149161D01*
X95655328Y80456595D01*
X95654674Y79706695D01*
X95941043Y79013628D01*
X96470839Y78482907D01*
X97163405Y78195328D01*
X97913305Y78194674D01*
X98606372Y78481043D01*
X99137093Y79010839D01*
X99424672Y79703405D01*
X99425326Y80453305D01*
X99138957Y81146372D01*
X98609161Y81677093D01*
X97916595Y81964672D01*
X97540498Y81965000D01*
X100312710Y81965000D01*
X102765000Y79512710D01*
X102765000Y74100000D01*
X102836173Y73742191D01*
X103038855Y73438855D01*
X104842710Y71635000D01*
X90787290Y71635000D01*
X88835000Y73587290D01*
X88835000Y73984953D01*
X89077717Y73741812D01*
X89623319Y73515258D01*
X90214089Y73514743D01*
X90760086Y73740344D01*
X91178188Y74157717D01*
X91404742Y74703319D01*
X91405257Y75294089D01*
X91256156Y75654942D01*
X91563305Y75654674D01*
X92256372Y75941043D01*
X92736736Y76420569D01*
X92365458Y75526433D01*
X92364543Y74478166D01*
X92764853Y73509342D01*
X93505443Y72767458D01*
X94473567Y72365458D01*
X95521834Y72364543D01*
X96490658Y72764853D01*
X97232542Y73505443D01*
X97634542Y74473567D01*
X97634744Y74705911D01*
X98594743Y74705911D01*
X98820344Y74159914D01*
X99237717Y73741812D01*
X99783319Y73515258D01*
X100374089Y73514743D01*
X100920086Y73740344D01*
X101338188Y74157717D01*
X101564742Y74703319D01*
X101565257Y75294089D01*
X101339656Y75840086D01*
X100922283Y76258188D01*
X100376681Y76484742D01*
X99785911Y76485257D01*
X99239914Y76259656D01*
X98821812Y75842283D01*
X98595258Y75296681D01*
X98594743Y74705911D01*
X97634744Y74705911D01*
X97635457Y75521834D01*
X97235147Y76490658D01*
X96494557Y77232542D01*
X95526433Y77634542D01*
X94478166Y77635457D01*
X93509342Y77235147D01*
X92817815Y76544827D01*
X93074672Y77163405D01*
X93075326Y77913305D01*
X92788957Y78606372D01*
X92259161Y79137093D01*
X91566595Y79424672D01*
X90816695Y79425326D01*
X90123628Y79138957D01*
X89592907Y78609161D01*
X89537198Y78475000D01*
X89422234Y78475000D01*
X89064425Y78403827D01*
X88761089Y78201145D01*
X87238855Y76678911D01*
X87036173Y76375575D01*
X86965000Y76017766D01*
X86965000Y73200000D01*
X87036173Y72842191D01*
X87238855Y72538855D01*
X89242710Y70535000D01*
X31187290Y70535000D01*
X28635000Y73087290D01*
X28635000Y74221251D01*
X28660344Y74159914D01*
X29077717Y73741812D01*
X29623319Y73515258D01*
X30214089Y73514743D01*
X30760086Y73740344D01*
X31178188Y74157717D01*
X31404742Y74703319D01*
X31405257Y75294089D01*
X31256156Y75654942D01*
X31563305Y75654674D01*
X32256372Y75941043D01*
X32736736Y76420569D01*
X32365458Y75526433D01*
X32364543Y74478166D01*
X32764853Y73509342D01*
X33505443Y72767458D01*
X34473567Y72365458D01*
X35521834Y72364543D01*
X36490658Y72764853D01*
X37232542Y73505443D01*
X37634542Y74473567D01*
X37634744Y74705911D01*
X38594743Y74705911D01*
X38820344Y74159914D01*
X39237717Y73741812D01*
X39783319Y73515258D01*
X40374089Y73514743D01*
X40920086Y73740344D01*
X41338188Y74157717D01*
X41564742Y74703319D01*
X41564744Y74705911D01*
X48434743Y74705911D01*
X48660344Y74159914D01*
X49077717Y73741812D01*
X49623319Y73515258D01*
X50214089Y73514743D01*
X50760086Y73740344D01*
X51178188Y74157717D01*
X51404742Y74703319D01*
X51405257Y75294089D01*
X51256156Y75654942D01*
X51563305Y75654674D01*
X52256372Y75941043D01*
X52736736Y76420569D01*
X52365458Y75526433D01*
X52364543Y74478166D01*
X52764853Y73509342D01*
X53505443Y72767458D01*
X54473567Y72365458D01*
X55521834Y72364543D01*
X56490658Y72764853D01*
X57232542Y73505443D01*
X57634542Y74473567D01*
X57634744Y74705911D01*
X58594743Y74705911D01*
X58820344Y74159914D01*
X59237717Y73741812D01*
X59783319Y73515258D01*
X60374089Y73514743D01*
X60920086Y73740344D01*
X61338188Y74157717D01*
X61564742Y74703319D01*
X61565257Y75294089D01*
X61339656Y75840086D01*
X60922283Y76258188D01*
X60376681Y76484742D01*
X59785911Y76485257D01*
X59239914Y76259656D01*
X58821812Y75842283D01*
X58595258Y75296681D01*
X58594743Y74705911D01*
X57634744Y74705911D01*
X57635457Y75521834D01*
X57235147Y76490658D01*
X56494557Y77232542D01*
X55526433Y77634542D01*
X54478166Y77635457D01*
X53509342Y77235147D01*
X52817815Y76544827D01*
X53074672Y77163405D01*
X53075326Y77913305D01*
X52788957Y78606372D01*
X52259161Y79137093D01*
X51566595Y79424672D01*
X50816695Y79425326D01*
X50123628Y79138957D01*
X49592907Y78609161D01*
X49305328Y77916595D01*
X49304674Y77166695D01*
X49591043Y76473628D01*
X49593006Y76471661D01*
X49079914Y76259656D01*
X48661812Y75842283D01*
X48435258Y75296681D01*
X48434743Y74705911D01*
X41564744Y74705911D01*
X41565257Y75294089D01*
X41339656Y75840086D01*
X40922283Y76258188D01*
X40376681Y76484742D01*
X39785911Y76485257D01*
X39239914Y76259656D01*
X38821812Y75842283D01*
X38595258Y75296681D01*
X38594743Y74705911D01*
X37634744Y74705911D01*
X37635457Y75521834D01*
X37235147Y76490658D01*
X36494557Y77232542D01*
X35526433Y77634542D01*
X34478166Y77635457D01*
X33509342Y77235147D01*
X32817815Y76544827D01*
X33074672Y77163405D01*
X33075326Y77913305D01*
X32788957Y78606372D01*
X32259161Y79137093D01*
X31566595Y79424672D01*
X30816695Y79425326D01*
X30123628Y79138957D01*
X29592907Y78609161D01*
X29537198Y78475000D01*
X29422234Y78475000D01*
X29064425Y78403827D01*
X28761089Y78201145D01*
X27038855Y76478911D01*
X26836173Y76175575D01*
X26765000Y75817766D01*
X26765000Y72700000D01*
X26836173Y72342191D01*
X27038855Y72038855D01*
X29642710Y69435000D01*
X6887290Y69435000D01*
X3661436Y72660854D01*
X3530327Y72792192D01*
X3186799Y72934838D01*
X2814833Y72935162D01*
X2471057Y72793117D01*
X2207808Y72530327D01*
X2065162Y72186799D01*
X2064838Y71814833D01*
X2206883Y71471057D01*
X2469673Y71207808D01*
X2470065Y71207645D01*
X5838855Y67838855D01*
X6142191Y67636173D01*
X6500000Y67565000D01*
X142775736Y67565000D01*
X143133545Y67636173D01*
X143436881Y67838855D01*
X144263026Y68665000D01*
X144299184Y68665000D01*
X144485167Y68664838D01*
X144828943Y68806883D01*
X145092192Y69069673D01*
X145234838Y69413201D01*
X145235162Y69785167D01*
X145093117Y70128943D01*
X144830327Y70392192D01*
X144486799Y70534838D01*
X144114833Y70535162D01*
X144114441Y70535000D01*
X143875736Y70535000D01*
X143727879Y70505589D01*
X144560854Y71338564D01*
X144692192Y71469673D01*
X144834838Y71813201D01*
X144835162Y72185167D01*
X144693117Y72528943D01*
X144430327Y72792192D01*
X144320482Y72837804D01*
X144434838Y73113201D01*
X144435162Y73485167D01*
X144293117Y73828943D01*
X144030327Y74092192D01*
X143686799Y74234838D01*
X143557241Y74234951D01*
X145187290Y75865000D01*
X150100000Y75865000D01*
X150457809Y75936173D01*
X150761145Y76138855D01*
X152787290Y78165000D01*
X154665056Y78165000D01*
X154664838Y77914813D01*
X154806883Y77571037D01*
X155069673Y77307788D01*
X155413201Y77165142D01*
X155785167Y77164818D01*
X155909151Y77216047D01*
X157864878Y75260320D01*
X157864838Y75214833D01*
X157970133Y74960000D01*
X156200000Y74960000D01*
X155909160Y74902148D01*
X155662599Y74737401D01*
X153362599Y72437401D01*
X153197852Y72190839D01*
X153140000Y71900000D01*
X153140000Y71662463D01*
X153107808Y71630327D01*
X152965162Y71286799D01*
X152964838Y70914833D01*
X153106883Y70571057D01*
X153369673Y70307808D01*
X153713201Y70165162D01*
X154085167Y70164838D01*
X154428943Y70306883D01*
X154692192Y70569673D01*
X154834838Y70913201D01*
X154835162Y71285167D01*
X154696224Y71621422D01*
X156514802Y73440000D01*
X160600000Y73440000D01*
X160890839Y73497852D01*
X161137401Y73662599D01*
X161213888Y73739086D01*
X161213693Y73515597D01*
X161355738Y73171821D01*
X161567190Y72960000D01*
X157721604Y72960000D01*
X157693117Y73028943D01*
X157430327Y73292192D01*
X157086799Y73434838D01*
X156714833Y73435162D01*
X156371057Y73293117D01*
X156107808Y73030327D01*
X155965162Y72686799D01*
X155964838Y72314833D01*
X156106883Y71971057D01*
X156369673Y71707808D01*
X156713201Y71565162D01*
X156808548Y71565079D01*
X156909161Y71497852D01*
X157200000Y71440000D01*
X158684523Y71440000D01*
X158571057Y71393117D01*
X158307808Y71130327D01*
X158165162Y70786799D01*
X158164838Y70414833D01*
X158306883Y70071057D01*
X158401486Y69976288D01*
X153662599Y65237401D01*
X153497852Y64990839D01*
X153440000Y64700000D01*
X153440000Y64062463D01*
X153407808Y64030327D01*
X153391006Y63989862D01*
X152185000Y65195868D01*
X152185000Y73433420D01*
X153158834Y74407255D01*
X153278943Y74456883D01*
X153542192Y74719673D01*
X153684838Y75063201D01*
X153685162Y75435167D01*
X153543117Y75778943D01*
X153280327Y76042192D01*
X152936799Y76184838D01*
X152564833Y76185162D01*
X152221057Y76043117D01*
X151957808Y75780327D01*
X151907434Y75659013D01*
X150674210Y74425790D01*
X150482367Y74138675D01*
X150474674Y74100000D01*
X150414999Y73800000D01*
X150415000Y73799995D01*
X150415000Y64900000D01*
X150482367Y64561325D01*
X150674210Y64274210D01*
X150887310Y64131822D01*
X151548442Y63470690D01*
X151407834Y63330327D01*
X151265188Y62986799D01*
X151264864Y62614833D01*
X151406909Y62271057D01*
X151440026Y62237882D01*
X151440026Y56799974D01*
X151497878Y56509135D01*
X151662625Y56262573D01*
X152664878Y55260320D01*
X152664838Y55214833D01*
X152806883Y54871057D01*
X152972699Y54704951D01*
X152965162Y54686799D01*
X152965121Y54639923D01*
X150935009Y52609811D01*
X150935162Y52785167D01*
X150833729Y53030655D01*
X150771439Y53343805D01*
X150590434Y53614698D01*
X149735000Y54470132D01*
X149735000Y59072766D01*
X149834838Y59313201D01*
X149835162Y59685167D01*
X149693117Y60028943D01*
X149430327Y60292192D01*
X149086799Y60434838D01*
X148714833Y60435162D01*
X148371057Y60293117D01*
X148107808Y60030327D01*
X147965162Y59686799D01*
X147964838Y59314833D01*
X148065000Y59072422D01*
X148065000Y54124264D01*
X148128561Y53804723D01*
X148255532Y53614698D01*
X148309566Y53533830D01*
X149065155Y52778241D01*
X149064964Y52560000D01*
X148562114Y52560000D01*
X148330327Y52792192D01*
X147986799Y52934838D01*
X147614833Y52935162D01*
X147271057Y52793117D01*
X147007808Y52530327D01*
X146865162Y52186799D01*
X146864838Y51814833D01*
X147006883Y51471057D01*
X147269673Y51207808D01*
X147613201Y51065162D01*
X147874648Y51064934D01*
X148000000Y51040000D01*
X151200000Y51040000D01*
X151490839Y51097852D01*
X151737401Y51262599D01*
X154039680Y53564878D01*
X154065000Y53564856D01*
X154065000Y49050836D01*
X154064838Y48864853D01*
X154065000Y48864461D01*
X154065000Y44287290D01*
X144835000Y35057290D01*
X144835000Y36199184D01*
X144835162Y36385167D01*
X144693117Y36728943D01*
X144430327Y36992192D01*
X144086799Y37134838D01*
X143714833Y37135162D01*
X143371057Y36993117D01*
X143107808Y36730327D01*
X142965162Y36386799D01*
X142964838Y36014833D01*
X142965000Y36014441D01*
X142965000Y35187290D01*
X140712710Y32935000D01*
X136661102Y32935000D01*
X137232542Y33505443D01*
X137634542Y34473567D01*
X137634744Y34705911D01*
X138594743Y34705911D01*
X138820344Y34159914D01*
X139237717Y33741812D01*
X139783319Y33515258D01*
X140374089Y33514743D01*
X140920086Y33740344D01*
X141338188Y34157717D01*
X141564742Y34703319D01*
X141565257Y35294089D01*
X141339656Y35840086D01*
X140922283Y36258188D01*
X140376681Y36484742D01*
X139785911Y36485257D01*
X139239914Y36259656D01*
X138821812Y35842283D01*
X138595258Y35296681D01*
X138594743Y34705911D01*
X137634744Y34705911D01*
X137635457Y35521834D01*
X137235147Y36490658D01*
X136494557Y37232542D01*
X135526433Y37634542D01*
X134478166Y37635457D01*
X133509342Y37235147D01*
X132817815Y36544827D01*
X133074672Y37163405D01*
X133075326Y37913305D01*
X132788957Y38606372D01*
X132259161Y39137093D01*
X131566595Y39424672D01*
X130816695Y39425326D01*
X130123628Y39138957D01*
X129592907Y38609161D01*
X129305328Y37916595D01*
X129304674Y37166695D01*
X129591043Y36473628D01*
X129593006Y36471661D01*
X129079914Y36259656D01*
X128661812Y35842283D01*
X128435258Y35296681D01*
X128434743Y34705911D01*
X128660344Y34159914D01*
X129077717Y33741812D01*
X129623319Y33515258D01*
X130214089Y33514743D01*
X130760086Y33740344D01*
X131178188Y34157717D01*
X131404742Y34703319D01*
X131405257Y35294089D01*
X131256156Y35654942D01*
X131563305Y35654674D01*
X132256372Y35941043D01*
X132736736Y36420569D01*
X132365458Y35526433D01*
X132364543Y34478166D01*
X132764853Y33509342D01*
X133338193Y32935000D01*
X128560852Y32935000D01*
X128634848Y33113201D01*
X128635172Y33485167D01*
X128493127Y33828943D01*
X128230337Y34092192D01*
X128229945Y34092355D01*
X127935000Y34387300D01*
X127935000Y37699184D01*
X127935162Y37885167D01*
X127793117Y38228943D01*
X127530327Y38492192D01*
X127186799Y38634838D01*
X126814833Y38635162D01*
X126471057Y38493117D01*
X126207808Y38230327D01*
X126065162Y37886799D01*
X126064838Y37514833D01*
X126065000Y37514441D01*
X126065000Y34000010D01*
X126136173Y33642201D01*
X126338855Y33338865D01*
X126742720Y32935000D01*
X116661102Y32935000D01*
X117232542Y33505443D01*
X117634542Y34473567D01*
X117634744Y34705911D01*
X118594743Y34705911D01*
X118820344Y34159914D01*
X119237717Y33741812D01*
X119783319Y33515258D01*
X120374089Y33514743D01*
X120920086Y33740344D01*
X121338188Y34157717D01*
X121564742Y34703319D01*
X121565257Y35294089D01*
X121339656Y35840086D01*
X120922283Y36258188D01*
X120376681Y36484742D01*
X119785911Y36485257D01*
X119239914Y36259656D01*
X118821812Y35842283D01*
X118595258Y35296681D01*
X118594743Y34705911D01*
X117634744Y34705911D01*
X117635457Y35521834D01*
X117235147Y36490658D01*
X116494557Y37232542D01*
X115526433Y37634542D01*
X114478166Y37635457D01*
X113509342Y37235147D01*
X112817815Y36544827D01*
X113074672Y37163405D01*
X113075326Y37913305D01*
X112788957Y38606372D01*
X112259161Y39137093D01*
X111566595Y39424672D01*
X110816695Y39425326D01*
X110123628Y39138957D01*
X109592907Y38609161D01*
X109305328Y37916595D01*
X109304674Y37166695D01*
X109591043Y36473628D01*
X109593006Y36471661D01*
X109079914Y36259656D01*
X108661812Y35842283D01*
X108435258Y35296681D01*
X108434743Y34705911D01*
X108660344Y34159914D01*
X109077717Y33741812D01*
X109623319Y33515258D01*
X110214089Y33514743D01*
X110760086Y33740344D01*
X111178188Y34157717D01*
X111404742Y34703319D01*
X111405257Y35294089D01*
X111256156Y35654942D01*
X111563305Y35654674D01*
X112256372Y35941043D01*
X112736736Y36420569D01*
X112365458Y35526433D01*
X112364543Y34478166D01*
X112764853Y33509342D01*
X113338193Y32935000D01*
X96661102Y32935000D01*
X97232542Y33505443D01*
X97634542Y34473567D01*
X97634744Y34705911D01*
X98594743Y34705911D01*
X98820344Y34159914D01*
X99237717Y33741812D01*
X99783319Y33515258D01*
X100374089Y33514743D01*
X100920086Y33740344D01*
X101338188Y34157717D01*
X101564742Y34703319D01*
X101565257Y35294089D01*
X101339656Y35840086D01*
X100922283Y36258188D01*
X100376681Y36484742D01*
X99785911Y36485257D01*
X99239914Y36259656D01*
X98821812Y35842283D01*
X98595258Y35296681D01*
X98594743Y34705911D01*
X97634744Y34705911D01*
X97635457Y35521834D01*
X97235147Y36490658D01*
X96494557Y37232542D01*
X95526433Y37634542D01*
X94478166Y37635457D01*
X93509342Y37235147D01*
X92817815Y36544827D01*
X93074672Y37163405D01*
X93075326Y37913305D01*
X92788957Y38606372D01*
X92259161Y39137093D01*
X91566595Y39424672D01*
X90816695Y39425326D01*
X90123628Y39138957D01*
X89592907Y38609161D01*
X89305328Y37916595D01*
X89304674Y37166695D01*
X89591043Y36473628D01*
X89593006Y36471661D01*
X89079914Y36259656D01*
X88661812Y35842283D01*
X88435258Y35296681D01*
X88434743Y34705911D01*
X88660344Y34159914D01*
X89077717Y33741812D01*
X89623319Y33515258D01*
X90214089Y33514743D01*
X90760086Y33740344D01*
X91178188Y34157717D01*
X91404742Y34703319D01*
X91405257Y35294089D01*
X91256156Y35654942D01*
X91563305Y35654674D01*
X92256372Y35941043D01*
X92736736Y36420569D01*
X92365458Y35526433D01*
X92364543Y34478166D01*
X92764853Y33509342D01*
X93338193Y32935000D01*
X76661102Y32935000D01*
X77232542Y33505443D01*
X77634542Y34473567D01*
X77634744Y34705911D01*
X78594743Y34705911D01*
X78820344Y34159914D01*
X79237717Y33741812D01*
X79783319Y33515258D01*
X80374089Y33514743D01*
X80920086Y33740344D01*
X81338188Y34157717D01*
X81564742Y34703319D01*
X81565257Y35294089D01*
X81339656Y35840086D01*
X80922283Y36258188D01*
X80376681Y36484742D01*
X79785911Y36485257D01*
X79239914Y36259656D01*
X78821812Y35842283D01*
X78595258Y35296681D01*
X78594743Y34705911D01*
X77634744Y34705911D01*
X77635457Y35521834D01*
X77235147Y36490658D01*
X76494557Y37232542D01*
X75526433Y37634542D01*
X74478166Y37635457D01*
X73509342Y37235147D01*
X72817815Y36544827D01*
X73074672Y37163405D01*
X73075326Y37913305D01*
X72788957Y38606372D01*
X72259161Y39137093D01*
X71566595Y39424672D01*
X70816695Y39425326D01*
X70123628Y39138957D01*
X69592907Y38609161D01*
X69305328Y37916595D01*
X69304674Y37166695D01*
X69591043Y36473628D01*
X69593006Y36471661D01*
X69079914Y36259656D01*
X68661812Y35842283D01*
X68435258Y35296681D01*
X68434743Y34705911D01*
X68660344Y34159914D01*
X69077717Y33741812D01*
X69623319Y33515258D01*
X70214089Y33514743D01*
X70760086Y33740344D01*
X71178188Y34157717D01*
X71404742Y34703319D01*
X71405257Y35294089D01*
X71256156Y35654942D01*
X71563305Y35654674D01*
X72256372Y35941043D01*
X72736736Y36420569D01*
X72365458Y35526433D01*
X72364543Y34478166D01*
X72764853Y33509342D01*
X73338193Y32935000D01*
X56661102Y32935000D01*
X57232542Y33505443D01*
X57634542Y34473567D01*
X57634744Y34705911D01*
X58594743Y34705911D01*
X58820344Y34159914D01*
X59237717Y33741812D01*
X59783319Y33515258D01*
X60374089Y33514743D01*
X60920086Y33740344D01*
X61338188Y34157717D01*
X61564742Y34703319D01*
X61565257Y35294089D01*
X61339656Y35840086D01*
X60922283Y36258188D01*
X60376681Y36484742D01*
X59785911Y36485257D01*
X59239914Y36259656D01*
X58821812Y35842283D01*
X58595258Y35296681D01*
X58594743Y34705911D01*
X57634744Y34705911D01*
X57635457Y35521834D01*
X57235147Y36490658D01*
X56494557Y37232542D01*
X55526433Y37634542D01*
X54478166Y37635457D01*
X53509342Y37235147D01*
X52817815Y36544827D01*
X53074672Y37163405D01*
X53075326Y37913305D01*
X52788957Y38606372D01*
X52259161Y39137093D01*
X51566595Y39424672D01*
X50816695Y39425326D01*
X50123628Y39138957D01*
X49592907Y38609161D01*
X49305328Y37916595D01*
X49304674Y37166695D01*
X49591043Y36473628D01*
X49593006Y36471661D01*
X49079914Y36259656D01*
X48661812Y35842283D01*
X48435258Y35296681D01*
X48434743Y34705911D01*
X48660344Y34159914D01*
X49077717Y33741812D01*
X49623319Y33515258D01*
X50214089Y33514743D01*
X50760086Y33740344D01*
X51178188Y34157717D01*
X51404742Y34703319D01*
X51405257Y35294089D01*
X51256156Y35654942D01*
X51563305Y35654674D01*
X52256372Y35941043D01*
X52736736Y36420569D01*
X52365458Y35526433D01*
X52364543Y34478166D01*
X52764853Y33509342D01*
X53338193Y32935000D01*
X36661102Y32935000D01*
X37232542Y33505443D01*
X37634542Y34473567D01*
X37634744Y34705911D01*
X38594743Y34705911D01*
X38820344Y34159914D01*
X39237717Y33741812D01*
X39783319Y33515258D01*
X40374089Y33514743D01*
X40920086Y33740344D01*
X41338188Y34157717D01*
X41564742Y34703319D01*
X41565257Y35294089D01*
X41339656Y35840086D01*
X40922283Y36258188D01*
X40376681Y36484742D01*
X39785911Y36485257D01*
X39239914Y36259656D01*
X38821812Y35842283D01*
X38595258Y35296681D01*
X38594743Y34705911D01*
X37634744Y34705911D01*
X37635457Y35521834D01*
X37235147Y36490658D01*
X36494557Y37232542D01*
X35526433Y37634542D01*
X34478166Y37635457D01*
X33509342Y37235147D01*
X32817815Y36544827D01*
X33074672Y37163405D01*
X33075326Y37913305D01*
X32788957Y38606372D01*
X32259161Y39137093D01*
X31566595Y39424672D01*
X30816695Y39425326D01*
X30123628Y39138957D01*
X29592907Y38609161D01*
X29305328Y37916595D01*
X29304674Y37166695D01*
X29591043Y36473628D01*
X29593006Y36471661D01*
X29079914Y36259656D01*
X28661812Y35842283D01*
X28435258Y35296681D01*
X28434743Y34705911D01*
X28660344Y34159914D01*
X29077717Y33741812D01*
X29623319Y33515258D01*
X30214089Y33514743D01*
X30760086Y33740344D01*
X31178188Y34157717D01*
X31404742Y34703319D01*
X31405257Y35294089D01*
X31256156Y35654942D01*
X31563305Y35654674D01*
X32256372Y35941043D01*
X32736736Y36420569D01*
X32365458Y35526433D01*
X32364543Y34478166D01*
X32764853Y33509342D01*
X33338193Y32935000D01*
X16661102Y32935000D01*
X17232542Y33505443D01*
X17634542Y34473567D01*
X17634744Y34705911D01*
X18594743Y34705911D01*
X18820344Y34159914D01*
X19237717Y33741812D01*
X19783319Y33515258D01*
X20374089Y33514743D01*
X20920086Y33740344D01*
X21338188Y34157717D01*
X21564742Y34703319D01*
X21565257Y35294089D01*
X21339656Y35840086D01*
X20922283Y36258188D01*
X20376681Y36484742D01*
X19785911Y36485257D01*
X19239914Y36259656D01*
X18821812Y35842283D01*
X18595258Y35296681D01*
X18594743Y34705911D01*
X17634744Y34705911D01*
X17635457Y35521834D01*
X17235147Y36490658D01*
X16494557Y37232542D01*
X15526433Y37634542D01*
X14478166Y37635457D01*
X13509342Y37235147D01*
X12817815Y36544827D01*
X13074672Y37163405D01*
X13075326Y37913305D01*
X12788957Y38606372D01*
X12259161Y39137093D01*
X11566595Y39424672D01*
X10816695Y39425326D01*
X10123628Y39138957D01*
X9592907Y38609161D01*
X9305328Y37916595D01*
X9304674Y37166695D01*
X9591043Y36473628D01*
X9593006Y36471661D01*
X9079914Y36259656D01*
X8661812Y35842283D01*
X8435258Y35296681D01*
X8434743Y34705911D01*
X8660344Y34159914D01*
X9077717Y33741812D01*
X9623319Y33515258D01*
X10214089Y33514743D01*
X10760086Y33740344D01*
X11178188Y34157717D01*
X11404742Y34703319D01*
X11405257Y35294089D01*
X11256156Y35654942D01*
X11563305Y35654674D01*
X12256372Y35941043D01*
X12736736Y36420569D01*
X12365458Y35526433D01*
X12364543Y34478166D01*
X12764853Y33509342D01*
X13338193Y32935000D01*
X3000816Y32935000D01*
X2814833Y32935162D01*
X2471057Y32793117D01*
X2207808Y32530327D01*
X2065162Y32186799D01*
X2064838Y31814833D01*
X2206883Y31471057D01*
X2469673Y31207808D01*
X2813201Y31065162D01*
X3185167Y31064838D01*
X3185559Y31065000D01*
X141097821Y31065000D01*
X141065000Y30900000D01*
X141065000Y24587290D01*
X139612710Y23135000D01*
X130900000Y23135000D01*
X130542191Y23063827D01*
X130238855Y22861145D01*
X127500000Y20122290D01*
X125961145Y21661145D01*
X125657809Y21863827D01*
X125300000Y21935000D01*
X123200816Y21935000D01*
X123014833Y21935162D01*
X122671057Y21793117D01*
X122407808Y21530327D01*
X122265162Y21186799D01*
X122264838Y20814833D01*
X122406883Y20471057D01*
X122669673Y20207808D01*
X123013201Y20065162D01*
X123385167Y20064838D01*
X123385559Y20065000D01*
X124912710Y20065000D01*
X126565000Y18412710D01*
X126565000Y12000000D01*
X126636173Y11642191D01*
X126838855Y11338855D01*
X133138564Y5039146D01*
X133269673Y4907808D01*
X133613201Y4765162D01*
X133985167Y4764838D01*
X134328943Y4906883D01*
X134592192Y5169673D01*
X134734838Y5513201D01*
X134735162Y5885167D01*
X134593117Y6228943D01*
X134330327Y6492192D01*
X134329935Y6492355D01*
X128435000Y12387290D01*
X128435000Y14705289D01*
X128660344Y14159914D01*
X129077717Y13741812D01*
X129623319Y13515258D01*
X130214089Y13514743D01*
X130760086Y13740344D01*
X131178188Y14157717D01*
X131404742Y14703319D01*
X131405257Y15294089D01*
X131256156Y15654942D01*
X131563305Y15654674D01*
X132256372Y15941043D01*
X132736736Y16420569D01*
X132365458Y15526433D01*
X132364543Y14478166D01*
X132764853Y13509342D01*
X133505443Y12767458D01*
X134473567Y12365458D01*
X135521834Y12364543D01*
X136490658Y12764853D01*
X137232542Y13505443D01*
X137634542Y14473567D01*
X137634744Y14705911D01*
X138594743Y14705911D01*
X138820344Y14159914D01*
X139237717Y13741812D01*
X139783319Y13515258D01*
X140374089Y13514743D01*
X140920086Y13740344D01*
X141338188Y14157717D01*
X141564742Y14703319D01*
X141565257Y15294089D01*
X141339656Y15840086D01*
X140922283Y16258188D01*
X140376681Y16484742D01*
X139785911Y16485257D01*
X139239914Y16259656D01*
X138821812Y15842283D01*
X138595258Y15296681D01*
X138594743Y14705911D01*
X137634744Y14705911D01*
X137635457Y15521834D01*
X137235147Y16490658D01*
X137121004Y16605000D01*
X149536761Y16605000D01*
X149591043Y16473628D01*
X149593006Y16471661D01*
X149079914Y16259656D01*
X148661812Y15842283D01*
X148435258Y15296681D01*
X148434743Y14705911D01*
X148660344Y14159914D01*
X149077717Y13741812D01*
X149623319Y13515258D01*
X150214089Y13514743D01*
X150760086Y13740344D01*
X151178188Y14157717D01*
X151404742Y14703319D01*
X151405257Y15294089D01*
X151256156Y15654942D01*
X151563305Y15654674D01*
X152256372Y15941043D01*
X152736736Y16420569D01*
X152365458Y15526433D01*
X152364543Y14478166D01*
X152764853Y13509342D01*
X153505443Y12767458D01*
X154473567Y12365458D01*
X155521834Y12364543D01*
X156490658Y12764853D01*
X157232542Y13505443D01*
X157634542Y14473567D01*
X157634744Y14705911D01*
X158594743Y14705911D01*
X158820344Y14159914D01*
X159237717Y13741812D01*
X159783319Y13515258D01*
X160374089Y13514743D01*
X160920086Y13740344D01*
X161338188Y14157717D01*
X161564742Y14703319D01*
X161565257Y15294089D01*
X161339656Y15840086D01*
X160922283Y16258188D01*
X160376681Y16484742D01*
X159785911Y16485257D01*
X159239914Y16259656D01*
X158821812Y15842283D01*
X158595258Y15296681D01*
X158594743Y14705911D01*
X157634744Y14705911D01*
X157635457Y15521834D01*
X157235147Y16490658D01*
X156494557Y17232542D01*
X155526433Y17634542D01*
X154478166Y17635457D01*
X153509342Y17235147D01*
X152817815Y16544827D01*
X153074672Y17163405D01*
X153075326Y17913305D01*
X152788957Y18606372D01*
X152259161Y19137093D01*
X151566595Y19424672D01*
X150816695Y19425326D01*
X150123628Y19138957D01*
X149592907Y18609161D01*
X149537198Y18475000D01*
X138591747Y18475000D01*
X138606372Y18481043D01*
X139137093Y19010839D01*
X139424672Y19703405D01*
X139424674Y19706695D01*
X155654674Y19706695D01*
X155941043Y19013628D01*
X156470839Y18482907D01*
X157163405Y18195328D01*
X157913305Y18194674D01*
X158606372Y18481043D01*
X159137093Y19010839D01*
X159424672Y19703405D01*
X159425326Y20453305D01*
X159138957Y21146372D01*
X158609161Y21677093D01*
X157916595Y21964672D01*
X157166695Y21965326D01*
X156473628Y21678957D01*
X155942907Y21149161D01*
X155655328Y20456595D01*
X155654674Y19706695D01*
X139424674Y19706695D01*
X139425326Y20453305D01*
X139138957Y21146372D01*
X139020536Y21265000D01*
X140000000Y21265000D01*
X140357809Y21336173D01*
X140661145Y21538855D01*
X142487290Y23365000D01*
X143499184Y23365000D01*
X143685167Y23364838D01*
X144028943Y23506883D01*
X144292192Y23769673D01*
X144434838Y24113201D01*
X144435162Y24485167D01*
X144293117Y24828943D01*
X144030327Y25092192D01*
X143686799Y25234838D01*
X143314833Y25235162D01*
X143314441Y25235000D01*
X142935000Y25235000D01*
X142935000Y30512710D01*
X149387801Y36965511D01*
X149591043Y36473628D01*
X149593006Y36471661D01*
X149079914Y36259656D01*
X148661812Y35842283D01*
X148435258Y35296681D01*
X148434743Y34705911D01*
X148660344Y34159914D01*
X149077717Y33741812D01*
X149623319Y33515258D01*
X150214089Y33514743D01*
X150760086Y33740344D01*
X151178188Y34157717D01*
X151404742Y34703319D01*
X151405257Y35294089D01*
X151256156Y35654942D01*
X151563305Y35654674D01*
X152256372Y35941043D01*
X152736736Y36420569D01*
X152365458Y35526433D01*
X152364543Y34478166D01*
X152764853Y33509342D01*
X153505443Y32767458D01*
X154473567Y32365458D01*
X155521834Y32364543D01*
X156490658Y32764853D01*
X157232542Y33505443D01*
X157634542Y34473567D01*
X157634744Y34705911D01*
X158594743Y34705911D01*
X158820344Y34159914D01*
X159237717Y33741812D01*
X159783319Y33515258D01*
X160374089Y33514743D01*
X160920086Y33740344D01*
X161338188Y34157717D01*
X161564742Y34703319D01*
X161565257Y35294089D01*
X161339656Y35840086D01*
X160922283Y36258188D01*
X160376681Y36484742D01*
X159785911Y36485257D01*
X159239914Y36259656D01*
X158821812Y35842283D01*
X158595258Y35296681D01*
X158594743Y34705911D01*
X157634744Y34705911D01*
X157635457Y35521834D01*
X157235147Y36490658D01*
X157061109Y36665000D01*
X158572766Y36665000D01*
X158813201Y36565162D01*
X159185167Y36564838D01*
X159528943Y36706883D01*
X159792192Y36969673D01*
X159934838Y37313201D01*
X159935162Y37685167D01*
X159793117Y38028943D01*
X159530327Y38292192D01*
X159186799Y38434838D01*
X158814833Y38435162D01*
X158572422Y38335000D01*
X158252920Y38335000D01*
X158606372Y38481043D01*
X159137093Y39010839D01*
X159424672Y39703405D01*
X159425326Y40453305D01*
X159138957Y41146372D01*
X158609161Y41677093D01*
X157916595Y41964672D01*
X157166695Y41965326D01*
X156473628Y41678957D01*
X155942907Y41149161D01*
X155655328Y40456595D01*
X155654674Y39706695D01*
X155911553Y39085000D01*
X152311163Y39085000D01*
X152259161Y39137093D01*
X151764701Y39342411D01*
X155661145Y43238855D01*
X155863827Y43542191D01*
X155935000Y43900000D01*
X155935000Y47742542D01*
X155969673Y47707808D01*
X156313201Y47565162D01*
X156685167Y47564838D01*
X156927578Y47665000D01*
X159572766Y47665000D01*
X159813201Y47565162D01*
X160185167Y47564838D01*
X160528943Y47706883D01*
X160792192Y47969673D01*
X160934838Y48313201D01*
X160935162Y48685167D01*
X160793117Y49028943D01*
X160530327Y49292192D01*
X160186799Y49434838D01*
X160134857Y49434883D01*
X160135162Y49785167D01*
X160035000Y50027578D01*
X160035000Y57172766D01*
X160134838Y57413201D01*
X160135162Y57785167D01*
X159993117Y58128943D01*
X159730327Y58392192D01*
X159386799Y58534838D01*
X159035000Y58535144D01*
X159035000Y59072766D01*
X159134838Y59313201D01*
X159135036Y59540001D01*
X162699993Y59540001D01*
X162990832Y59597853D01*
X163237394Y59762600D01*
X163339672Y59864878D01*
X163385159Y59864838D01*
X163728935Y60006883D01*
X163836222Y60113982D01*
X164140000Y59810204D01*
X164140000Y55262463D01*
X164107808Y55230327D01*
X163965162Y54886799D01*
X163964838Y54514833D01*
X164106883Y54171057D01*
X164369673Y53907808D01*
X164713201Y53765162D01*
X165085167Y53764838D01*
X165428943Y53906883D01*
X165692192Y54169673D01*
X165834838Y54513201D01*
X165835162Y54885167D01*
X165693117Y55228943D01*
X165660000Y55262118D01*
X165660000Y56217498D01*
X165669673Y56207808D01*
X166013201Y56065162D01*
X166385167Y56064838D01*
X166728943Y56206883D01*
X166992192Y56469673D01*
X167134838Y56813201D01*
X167135162Y57185167D01*
X166993117Y57528943D01*
X166960000Y57562118D01*
X166960000Y59600000D01*
X166902148Y59890839D01*
X166902148Y59890840D01*
X166737401Y60137401D01*
X165499071Y61375731D01*
X165861486Y61303642D01*
X165931416Y61303642D01*
X166000000Y61290000D01*
X168930070Y61290000D01*
X169105655Y61255074D01*
X169195225Y61195226D01*
X169255074Y61105655D01*
X169290000Y60930070D01*
X169290000Y6517758D01*
X167824513Y7126282D01*
X166182690Y7127715D01*
X164665296Y6500741D01*
X163503340Y5340810D01*
X162873718Y3824513D01*
X162872285Y2182690D01*
X163480788Y710000D01*
X6517758Y710000D01*
X7126282Y2175487D01*
X7127715Y3817310D01*
X6500741Y5334704D01*
X5340810Y6496660D01*
X3824513Y7126282D01*
X2182690Y7127715D01*
X710000Y6519212D01*
X710000Y8919841D01*
X8699446Y8919841D01*
X8785852Y8663357D01*
X9359336Y8453542D01*
X9969460Y8479161D01*
X10414148Y8663357D01*
X10500554Y8919841D01*
X9600000Y9820395D01*
X8699446Y8919841D01*
X710000Y8919841D01*
X710000Y10240664D01*
X8053542Y10240664D01*
X8079161Y9630540D01*
X8263357Y9185852D01*
X8519841Y9099446D01*
X9420395Y10000000D01*
X9779605Y10000000D01*
X10680159Y9099446D01*
X10936643Y9185852D01*
X11123289Y9696009D01*
X58864735Y9696009D01*
X59097932Y9131629D01*
X59529357Y8699449D01*
X60093330Y8465267D01*
X60703991Y8464735D01*
X61268371Y8697932D01*
X61700551Y9129357D01*
X61934733Y9693330D01*
X61934735Y9696009D01*
X68064735Y9696009D01*
X68297932Y9131629D01*
X68729357Y8699449D01*
X69293330Y8465267D01*
X69903991Y8464735D01*
X70468371Y8697932D01*
X70900551Y9129357D01*
X71134733Y9693330D01*
X71134735Y9696009D01*
X118864735Y9696009D01*
X119097932Y9131629D01*
X119529357Y8699449D01*
X120093330Y8465267D01*
X120703991Y8464735D01*
X121268371Y8697932D01*
X121700551Y9129357D01*
X121934733Y9693330D01*
X121935265Y10303991D01*
X121702068Y10868371D01*
X121270643Y11300551D01*
X120706670Y11534733D01*
X120096009Y11535265D01*
X119531629Y11302068D01*
X119099449Y10870643D01*
X118865267Y10306670D01*
X118864735Y9696009D01*
X71134735Y9696009D01*
X71135265Y10303991D01*
X70902068Y10868371D01*
X70470643Y11300551D01*
X69906670Y11534733D01*
X69296009Y11535265D01*
X68731629Y11302068D01*
X68299449Y10870643D01*
X68065267Y10306670D01*
X68064735Y9696009D01*
X61934735Y9696009D01*
X61935265Y10303991D01*
X61702068Y10868371D01*
X61270643Y11300551D01*
X60706670Y11534733D01*
X60096009Y11535265D01*
X59531629Y11302068D01*
X59099449Y10870643D01*
X58865267Y10306670D01*
X58864735Y9696009D01*
X11123289Y9696009D01*
X11146458Y9759336D01*
X11120839Y10369460D01*
X10936643Y10814148D01*
X10680159Y10900554D01*
X9779605Y10000000D01*
X9420395Y10000000D01*
X8519841Y10900554D01*
X8263357Y10814148D01*
X8053542Y10240664D01*
X710000Y10240664D01*
X710000Y11080159D01*
X8699446Y11080159D01*
X9600000Y10179605D01*
X10500554Y11080159D01*
X10414148Y11336643D01*
X9840664Y11546458D01*
X9230540Y11520839D01*
X8785852Y11336643D01*
X8699446Y11080159D01*
X710000Y11080159D01*
X710000Y39706695D01*
X15654674Y39706695D01*
X15941043Y39013628D01*
X16470839Y38482907D01*
X17163405Y38195328D01*
X17913305Y38194674D01*
X18606372Y38481043D01*
X19137093Y39010839D01*
X19424672Y39703405D01*
X19424674Y39706695D01*
X35654674Y39706695D01*
X35941043Y39013628D01*
X36470839Y38482907D01*
X37163405Y38195328D01*
X37913305Y38194674D01*
X38606372Y38481043D01*
X39137093Y39010839D01*
X39424672Y39703405D01*
X39424674Y39706695D01*
X55654674Y39706695D01*
X55941043Y39013628D01*
X56470839Y38482907D01*
X57163405Y38195328D01*
X57913305Y38194674D01*
X58606372Y38481043D01*
X59137093Y39010839D01*
X59424672Y39703405D01*
X59424674Y39706695D01*
X75654674Y39706695D01*
X75941043Y39013628D01*
X76470839Y38482907D01*
X77163405Y38195328D01*
X77913305Y38194674D01*
X78606372Y38481043D01*
X79137093Y39010839D01*
X79424672Y39703405D01*
X79424674Y39706695D01*
X95654674Y39706695D01*
X95941043Y39013628D01*
X96470839Y38482907D01*
X97163405Y38195328D01*
X97913305Y38194674D01*
X98606372Y38481043D01*
X99137093Y39010839D01*
X99424672Y39703405D01*
X99424674Y39706695D01*
X115654674Y39706695D01*
X115941043Y39013628D01*
X116470839Y38482907D01*
X117163405Y38195328D01*
X117913305Y38194674D01*
X118606372Y38481043D01*
X119137093Y39010839D01*
X119424672Y39703405D01*
X119424674Y39706695D01*
X135654674Y39706695D01*
X135941043Y39013628D01*
X136470839Y38482907D01*
X137163405Y38195328D01*
X137913305Y38194674D01*
X138606372Y38481043D01*
X139137093Y39010839D01*
X139424672Y39703405D01*
X139425326Y40453305D01*
X139138957Y41146372D01*
X138609161Y41677093D01*
X137916595Y41964672D01*
X137166695Y41965326D01*
X136473628Y41678957D01*
X135942907Y41149161D01*
X135655328Y40456595D01*
X135654674Y39706695D01*
X119424674Y39706695D01*
X119425326Y40453305D01*
X119138957Y41146372D01*
X118609161Y41677093D01*
X117916595Y41964672D01*
X117166695Y41965326D01*
X116473628Y41678957D01*
X115942907Y41149161D01*
X115655328Y40456595D01*
X115654674Y39706695D01*
X99424674Y39706695D01*
X99425326Y40453305D01*
X99138957Y41146372D01*
X98609161Y41677093D01*
X97916595Y41964672D01*
X97166695Y41965326D01*
X96473628Y41678957D01*
X95942907Y41149161D01*
X95655328Y40456595D01*
X95654674Y39706695D01*
X79424674Y39706695D01*
X79425326Y40453305D01*
X79138957Y41146372D01*
X78609161Y41677093D01*
X77916595Y41964672D01*
X77166695Y41965326D01*
X76473628Y41678957D01*
X75942907Y41149161D01*
X75655328Y40456595D01*
X75654674Y39706695D01*
X59424674Y39706695D01*
X59425326Y40453305D01*
X59138957Y41146372D01*
X58609161Y41677093D01*
X57916595Y41964672D01*
X57166695Y41965326D01*
X56473628Y41678957D01*
X55942907Y41149161D01*
X55655328Y40456595D01*
X55654674Y39706695D01*
X39424674Y39706695D01*
X39425326Y40453305D01*
X39138957Y41146372D01*
X38609161Y41677093D01*
X37916595Y41964672D01*
X37166695Y41965326D01*
X36473628Y41678957D01*
X35942907Y41149161D01*
X35655328Y40456595D01*
X35654674Y39706695D01*
X19424674Y39706695D01*
X19425326Y40453305D01*
X19138957Y41146372D01*
X18609161Y41677093D01*
X17916595Y41964672D01*
X17166695Y41965326D01*
X16473628Y41678957D01*
X15942907Y41149161D01*
X15655328Y40456595D01*
X15654674Y39706695D01*
X710000Y39706695D01*
X710000Y44814833D01*
X9064838Y44814833D01*
X9206883Y44471057D01*
X9469673Y44207808D01*
X9813201Y44065162D01*
X10185167Y44064838D01*
X10306569Y44115000D01*
X13193178Y44115000D01*
X13313201Y44065162D01*
X13685167Y44064838D01*
X13806569Y44115000D01*
X33193178Y44115000D01*
X33313201Y44065162D01*
X33685167Y44064838D01*
X33806569Y44115000D01*
X53193178Y44115000D01*
X53313201Y44065162D01*
X53685167Y44064838D01*
X53806569Y44115000D01*
X73193178Y44115000D01*
X73313201Y44065162D01*
X73685167Y44064838D01*
X73806569Y44115000D01*
X93193178Y44115000D01*
X93313201Y44065162D01*
X93685167Y44064838D01*
X93806569Y44115000D01*
X113193178Y44115000D01*
X113313201Y44065162D01*
X113685167Y44064838D01*
X113806569Y44115000D01*
X133193178Y44115000D01*
X133313201Y44065162D01*
X133685167Y44064838D01*
X133806569Y44115000D01*
X151693178Y44115000D01*
X151813201Y44065162D01*
X152185167Y44064838D01*
X152528943Y44206883D01*
X152792192Y44469673D01*
X152934838Y44813201D01*
X152935162Y45185167D01*
X152793117Y45528943D01*
X152530327Y45792192D01*
X152186799Y45934838D01*
X151814833Y45935162D01*
X151693431Y45885000D01*
X133806822Y45885000D01*
X133686799Y45934838D01*
X133314833Y45935162D01*
X133193431Y45885000D01*
X113806822Y45885000D01*
X113686799Y45934838D01*
X113314833Y45935162D01*
X113193431Y45885000D01*
X93806822Y45885000D01*
X93686799Y45934838D01*
X93314833Y45935162D01*
X93193431Y45885000D01*
X73806822Y45885000D01*
X73686799Y45934838D01*
X73314833Y45935162D01*
X73193431Y45885000D01*
X53806822Y45885000D01*
X53686799Y45934838D01*
X53314833Y45935162D01*
X53193431Y45885000D01*
X33806822Y45885000D01*
X33686799Y45934838D01*
X33314833Y45935162D01*
X33193431Y45885000D01*
X13806822Y45885000D01*
X13686799Y45934838D01*
X13314833Y45935162D01*
X13193431Y45885000D01*
X10306822Y45885000D01*
X10186799Y45934838D01*
X9814833Y45935162D01*
X9471057Y45793117D01*
X9207808Y45530327D01*
X9065162Y45186799D01*
X9064838Y44814833D01*
X710000Y44814833D01*
X710000Y51814833D01*
X2064838Y51814833D01*
X2206883Y51471057D01*
X2469673Y51207808D01*
X2813201Y51065162D01*
X3185167Y51064838D01*
X3185559Y51065000D01*
X141300000Y51065000D01*
X141657809Y51136173D01*
X141961145Y51338855D01*
X145460854Y54838564D01*
X145592192Y54969673D01*
X145734838Y55313201D01*
X145735162Y55685167D01*
X145593117Y56028943D01*
X145330327Y56292192D01*
X144986799Y56434838D01*
X144614833Y56435162D01*
X144271057Y56293117D01*
X144007808Y56030327D01*
X144007645Y56029935D01*
X140912710Y52935000D01*
X136661102Y52935000D01*
X137232542Y53505443D01*
X137634542Y54473567D01*
X137634744Y54705911D01*
X138594743Y54705911D01*
X138820344Y54159914D01*
X139237717Y53741812D01*
X139783319Y53515258D01*
X140374089Y53514743D01*
X140920086Y53740344D01*
X141338188Y54157717D01*
X141564742Y54703319D01*
X141565257Y55294089D01*
X141339656Y55840086D01*
X140922283Y56258188D01*
X140376681Y56484742D01*
X139785911Y56485257D01*
X139239914Y56259656D01*
X138821812Y55842283D01*
X138595258Y55296681D01*
X138594743Y54705911D01*
X137634744Y54705911D01*
X137635457Y55521834D01*
X137235147Y56490658D01*
X136494557Y57232542D01*
X135526433Y57634542D01*
X134478166Y57635457D01*
X133509342Y57235147D01*
X132817815Y56544827D01*
X133074672Y57163405D01*
X133075326Y57913305D01*
X132788957Y58606372D01*
X132259161Y59137093D01*
X131566595Y59424672D01*
X130816695Y59425326D01*
X130123628Y59138957D01*
X129592907Y58609161D01*
X129305328Y57916595D01*
X129304674Y57166695D01*
X129591043Y56473628D01*
X129593006Y56471661D01*
X129079914Y56259656D01*
X128661812Y55842283D01*
X128435258Y55296681D01*
X128434743Y54705911D01*
X128660344Y54159914D01*
X129077717Y53741812D01*
X129623319Y53515258D01*
X130214089Y53514743D01*
X130760086Y53740344D01*
X131178188Y54157717D01*
X131404742Y54703319D01*
X131405257Y55294089D01*
X131256156Y55654942D01*
X131563305Y55654674D01*
X132256372Y55941043D01*
X132736736Y56420569D01*
X132365458Y55526433D01*
X132364543Y54478166D01*
X132764853Y53509342D01*
X133338193Y52935000D01*
X116661102Y52935000D01*
X117232542Y53505443D01*
X117634542Y54473567D01*
X117634744Y54705911D01*
X118594743Y54705911D01*
X118820344Y54159914D01*
X119237717Y53741812D01*
X119783319Y53515258D01*
X120374089Y53514743D01*
X120920086Y53740344D01*
X121338188Y54157717D01*
X121564742Y54703319D01*
X121565257Y55294089D01*
X121339656Y55840086D01*
X120922283Y56258188D01*
X120376681Y56484742D01*
X119785911Y56485257D01*
X119239914Y56259656D01*
X118821812Y55842283D01*
X118595258Y55296681D01*
X118594743Y54705911D01*
X117634744Y54705911D01*
X117635457Y55521834D01*
X117235147Y56490658D01*
X116494557Y57232542D01*
X115526433Y57634542D01*
X114478166Y57635457D01*
X113509342Y57235147D01*
X112817815Y56544827D01*
X113074672Y57163405D01*
X113075326Y57913305D01*
X112788957Y58606372D01*
X112259161Y59137093D01*
X111566595Y59424672D01*
X110816695Y59425326D01*
X110123628Y59138957D01*
X109592907Y58609161D01*
X109305328Y57916595D01*
X109304674Y57166695D01*
X109591043Y56473628D01*
X109593006Y56471661D01*
X109079914Y56259656D01*
X108661812Y55842283D01*
X108435258Y55296681D01*
X108434743Y54705911D01*
X108660344Y54159914D01*
X109077717Y53741812D01*
X109623319Y53515258D01*
X110214089Y53514743D01*
X110760086Y53740344D01*
X111178188Y54157717D01*
X111404742Y54703319D01*
X111405257Y55294089D01*
X111256156Y55654942D01*
X111563305Y55654674D01*
X112256372Y55941043D01*
X112736736Y56420569D01*
X112365458Y55526433D01*
X112364543Y54478166D01*
X112764853Y53509342D01*
X113338193Y52935000D01*
X96661102Y52935000D01*
X97232542Y53505443D01*
X97634542Y54473567D01*
X97634744Y54705911D01*
X98594743Y54705911D01*
X98820344Y54159914D01*
X99237717Y53741812D01*
X99783319Y53515258D01*
X100374089Y53514743D01*
X100920086Y53740344D01*
X101338188Y54157717D01*
X101564742Y54703319D01*
X101565257Y55294089D01*
X101339656Y55840086D01*
X100922283Y56258188D01*
X100376681Y56484742D01*
X99785911Y56485257D01*
X99239914Y56259656D01*
X98821812Y55842283D01*
X98595258Y55296681D01*
X98594743Y54705911D01*
X97634744Y54705911D01*
X97635457Y55521834D01*
X97235147Y56490658D01*
X96494557Y57232542D01*
X95526433Y57634542D01*
X94478166Y57635457D01*
X93509342Y57235147D01*
X92817815Y56544827D01*
X93074672Y57163405D01*
X93075326Y57913305D01*
X92788957Y58606372D01*
X92259161Y59137093D01*
X91566595Y59424672D01*
X90816695Y59425326D01*
X90123628Y59138957D01*
X89592907Y58609161D01*
X89305328Y57916595D01*
X89304674Y57166695D01*
X89591043Y56473628D01*
X89593006Y56471661D01*
X89079914Y56259656D01*
X88661812Y55842283D01*
X88435258Y55296681D01*
X88434743Y54705911D01*
X88660344Y54159914D01*
X89077717Y53741812D01*
X89623319Y53515258D01*
X90214089Y53514743D01*
X90760086Y53740344D01*
X91178188Y54157717D01*
X91404742Y54703319D01*
X91405257Y55294089D01*
X91256156Y55654942D01*
X91563305Y55654674D01*
X92256372Y55941043D01*
X92736736Y56420569D01*
X92365458Y55526433D01*
X92364543Y54478166D01*
X92764853Y53509342D01*
X93338193Y52935000D01*
X76661102Y52935000D01*
X77232542Y53505443D01*
X77634542Y54473567D01*
X77634744Y54705911D01*
X78594743Y54705911D01*
X78820344Y54159914D01*
X79237717Y53741812D01*
X79783319Y53515258D01*
X80374089Y53514743D01*
X80920086Y53740344D01*
X81338188Y54157717D01*
X81564742Y54703319D01*
X81565257Y55294089D01*
X81339656Y55840086D01*
X80922283Y56258188D01*
X80376681Y56484742D01*
X79785911Y56485257D01*
X79239914Y56259656D01*
X78821812Y55842283D01*
X78595258Y55296681D01*
X78594743Y54705911D01*
X77634744Y54705911D01*
X77635457Y55521834D01*
X77235147Y56490658D01*
X76494557Y57232542D01*
X75526433Y57634542D01*
X74478166Y57635457D01*
X73509342Y57235147D01*
X72817815Y56544827D01*
X73074672Y57163405D01*
X73075326Y57913305D01*
X72788957Y58606372D01*
X72259161Y59137093D01*
X71566595Y59424672D01*
X70816695Y59425326D01*
X70123628Y59138957D01*
X69592907Y58609161D01*
X69305328Y57916595D01*
X69304674Y57166695D01*
X69591043Y56473628D01*
X69593006Y56471661D01*
X69079914Y56259656D01*
X68661812Y55842283D01*
X68435258Y55296681D01*
X68434743Y54705911D01*
X68660344Y54159914D01*
X69077717Y53741812D01*
X69623319Y53515258D01*
X70214089Y53514743D01*
X70760086Y53740344D01*
X71178188Y54157717D01*
X71404742Y54703319D01*
X71405257Y55294089D01*
X71256156Y55654942D01*
X71563305Y55654674D01*
X72256372Y55941043D01*
X72736736Y56420569D01*
X72365458Y55526433D01*
X72364543Y54478166D01*
X72764853Y53509342D01*
X73338193Y52935000D01*
X56661102Y52935000D01*
X57232542Y53505443D01*
X57634542Y54473567D01*
X57634744Y54705911D01*
X58594743Y54705911D01*
X58820344Y54159914D01*
X59237717Y53741812D01*
X59783319Y53515258D01*
X60374089Y53514743D01*
X60920086Y53740344D01*
X61338188Y54157717D01*
X61564742Y54703319D01*
X61565257Y55294089D01*
X61339656Y55840086D01*
X60922283Y56258188D01*
X60376681Y56484742D01*
X59785911Y56485257D01*
X59239914Y56259656D01*
X58821812Y55842283D01*
X58595258Y55296681D01*
X58594743Y54705911D01*
X57634744Y54705911D01*
X57635457Y55521834D01*
X57235147Y56490658D01*
X56494557Y57232542D01*
X55526433Y57634542D01*
X54478166Y57635457D01*
X53509342Y57235147D01*
X52817815Y56544827D01*
X53074672Y57163405D01*
X53075326Y57913305D01*
X52788957Y58606372D01*
X52259161Y59137093D01*
X51566595Y59424672D01*
X50816695Y59425326D01*
X50123628Y59138957D01*
X49592907Y58609161D01*
X49305328Y57916595D01*
X49304674Y57166695D01*
X49591043Y56473628D01*
X49593006Y56471661D01*
X49079914Y56259656D01*
X48661812Y55842283D01*
X48435258Y55296681D01*
X48434743Y54705911D01*
X48660344Y54159914D01*
X49077717Y53741812D01*
X49623319Y53515258D01*
X50214089Y53514743D01*
X50760086Y53740344D01*
X51178188Y54157717D01*
X51404742Y54703319D01*
X51405257Y55294089D01*
X51256156Y55654942D01*
X51563305Y55654674D01*
X52256372Y55941043D01*
X52736736Y56420569D01*
X52365458Y55526433D01*
X52364543Y54478166D01*
X52764853Y53509342D01*
X53338193Y52935000D01*
X36661102Y52935000D01*
X37232542Y53505443D01*
X37634542Y54473567D01*
X37634744Y54705911D01*
X38594743Y54705911D01*
X38820344Y54159914D01*
X39237717Y53741812D01*
X39783319Y53515258D01*
X40374089Y53514743D01*
X40920086Y53740344D01*
X41338188Y54157717D01*
X41564742Y54703319D01*
X41565257Y55294089D01*
X41339656Y55840086D01*
X40922283Y56258188D01*
X40376681Y56484742D01*
X39785911Y56485257D01*
X39239914Y56259656D01*
X38821812Y55842283D01*
X38595258Y55296681D01*
X38594743Y54705911D01*
X37634744Y54705911D01*
X37635457Y55521834D01*
X37235147Y56490658D01*
X36494557Y57232542D01*
X35526433Y57634542D01*
X34478166Y57635457D01*
X33509342Y57235147D01*
X32817815Y56544827D01*
X33074672Y57163405D01*
X33075326Y57913305D01*
X32788957Y58606372D01*
X32259161Y59137093D01*
X31566595Y59424672D01*
X30816695Y59425326D01*
X30123628Y59138957D01*
X29592907Y58609161D01*
X29305328Y57916595D01*
X29304674Y57166695D01*
X29591043Y56473628D01*
X29593006Y56471661D01*
X29079914Y56259656D01*
X28661812Y55842283D01*
X28435258Y55296681D01*
X28434743Y54705911D01*
X28660344Y54159914D01*
X29077717Y53741812D01*
X29623319Y53515258D01*
X30214089Y53514743D01*
X30760086Y53740344D01*
X31178188Y54157717D01*
X31404742Y54703319D01*
X31405257Y55294089D01*
X31256156Y55654942D01*
X31563305Y55654674D01*
X32256372Y55941043D01*
X32736736Y56420569D01*
X32365458Y55526433D01*
X32364543Y54478166D01*
X32764853Y53509342D01*
X33338193Y52935000D01*
X16661102Y52935000D01*
X17232542Y53505443D01*
X17634542Y54473567D01*
X17634744Y54705911D01*
X18594743Y54705911D01*
X18820344Y54159914D01*
X19237717Y53741812D01*
X19783319Y53515258D01*
X20374089Y53514743D01*
X20920086Y53740344D01*
X21338188Y54157717D01*
X21564742Y54703319D01*
X21565257Y55294089D01*
X21339656Y55840086D01*
X20922283Y56258188D01*
X20376681Y56484742D01*
X19785911Y56485257D01*
X19239914Y56259656D01*
X18821812Y55842283D01*
X18595258Y55296681D01*
X18594743Y54705911D01*
X17634744Y54705911D01*
X17635457Y55521834D01*
X17235147Y56490658D01*
X16494557Y57232542D01*
X15526433Y57634542D01*
X14478166Y57635457D01*
X13509342Y57235147D01*
X12817815Y56544827D01*
X13074672Y57163405D01*
X13075326Y57913305D01*
X12788957Y58606372D01*
X12259161Y59137093D01*
X11566595Y59424672D01*
X10816695Y59425326D01*
X10123628Y59138957D01*
X9592907Y58609161D01*
X9305328Y57916595D01*
X9304674Y57166695D01*
X9591043Y56473628D01*
X9593006Y56471661D01*
X9079914Y56259656D01*
X8661812Y55842283D01*
X8435258Y55296681D01*
X8434743Y54705911D01*
X8660344Y54159914D01*
X9077717Y53741812D01*
X9623319Y53515258D01*
X10214089Y53514743D01*
X10760086Y53740344D01*
X11178188Y54157717D01*
X11404742Y54703319D01*
X11405257Y55294089D01*
X11256156Y55654942D01*
X11563305Y55654674D01*
X12256372Y55941043D01*
X12736736Y56420569D01*
X12365458Y55526433D01*
X12364543Y54478166D01*
X12764853Y53509342D01*
X13338193Y52935000D01*
X3000816Y52935000D01*
X2814833Y52935162D01*
X2471057Y52793117D01*
X2207808Y52530327D01*
X2065162Y52186799D01*
X2064838Y51814833D01*
X710000Y51814833D01*
X710000Y59706695D01*
X15654674Y59706695D01*
X15941043Y59013628D01*
X16470839Y58482907D01*
X17163405Y58195328D01*
X17913305Y58194674D01*
X18606372Y58481043D01*
X19137093Y59010839D01*
X19424672Y59703405D01*
X19424674Y59706695D01*
X35654674Y59706695D01*
X35941043Y59013628D01*
X36470839Y58482907D01*
X37163405Y58195328D01*
X37913305Y58194674D01*
X38606372Y58481043D01*
X39137093Y59010839D01*
X39424672Y59703405D01*
X39424674Y59706695D01*
X55654674Y59706695D01*
X55941043Y59013628D01*
X56470839Y58482907D01*
X57163405Y58195328D01*
X57913305Y58194674D01*
X58606372Y58481043D01*
X59137093Y59010839D01*
X59424672Y59703405D01*
X59424674Y59706695D01*
X75654674Y59706695D01*
X75941043Y59013628D01*
X76470839Y58482907D01*
X77163405Y58195328D01*
X77913305Y58194674D01*
X78606372Y58481043D01*
X79137093Y59010839D01*
X79424672Y59703405D01*
X79425326Y60453305D01*
X79138957Y61146372D01*
X78609161Y61677093D01*
X77916595Y61964672D01*
X77166695Y61965326D01*
X76473628Y61678957D01*
X75942907Y61149161D01*
X75655328Y60456595D01*
X75654674Y59706695D01*
X59424674Y59706695D01*
X59425326Y60453305D01*
X59138957Y61146372D01*
X58609161Y61677093D01*
X57916595Y61964672D01*
X57166695Y61965326D01*
X56473628Y61678957D01*
X55942907Y61149161D01*
X55655328Y60456595D01*
X55654674Y59706695D01*
X39424674Y59706695D01*
X39425326Y60453305D01*
X39138957Y61146372D01*
X38609161Y61677093D01*
X37916595Y61964672D01*
X37166695Y61965326D01*
X36473628Y61678957D01*
X35942907Y61149161D01*
X35655328Y60456595D01*
X35654674Y59706695D01*
X19424674Y59706695D01*
X19425326Y60453305D01*
X19138957Y61146372D01*
X18609161Y61677093D01*
X17916595Y61964672D01*
X17166695Y61965326D01*
X16473628Y61678957D01*
X15942907Y61149161D01*
X15655328Y60456595D01*
X15654674Y59706695D01*
X710000Y59706695D01*
X710000Y64817373D01*
X9065358Y64817373D01*
X9207403Y64473597D01*
X9470193Y64210348D01*
X9813721Y64067702D01*
X10185687Y64067378D01*
X10307089Y64117540D01*
X13193178Y64117540D01*
X13313201Y64067702D01*
X13685167Y64067378D01*
X13806569Y64117540D01*
X33193178Y64117540D01*
X33313201Y64067702D01*
X33685167Y64067378D01*
X33806569Y64117540D01*
X53193178Y64117540D01*
X53313201Y64067702D01*
X53685167Y64067378D01*
X53806569Y64117540D01*
X73193178Y64117540D01*
X73313201Y64067702D01*
X73685167Y64067378D01*
X73806569Y64117540D01*
X84158065Y64117540D01*
X82665296Y63500741D01*
X81503340Y62340810D01*
X80873718Y60824513D01*
X80872285Y59182690D01*
X81499259Y57665296D01*
X82659190Y56503340D01*
X84175487Y55873718D01*
X85817310Y55872285D01*
X87334704Y56499259D01*
X88496660Y57659190D01*
X89126282Y59175487D01*
X89126745Y59706695D01*
X95654674Y59706695D01*
X95941043Y59013628D01*
X96470839Y58482907D01*
X97163405Y58195328D01*
X97913305Y58194674D01*
X98606372Y58481043D01*
X99137093Y59010839D01*
X99424672Y59703405D01*
X99424674Y59706695D01*
X115654674Y59706695D01*
X115941043Y59013628D01*
X116470839Y58482907D01*
X117163405Y58195328D01*
X117913305Y58194674D01*
X118606372Y58481043D01*
X119137093Y59010839D01*
X119424672Y59703405D01*
X119424674Y59706695D01*
X135654674Y59706695D01*
X135941043Y59013628D01*
X136470839Y58482907D01*
X137163405Y58195328D01*
X137913305Y58194674D01*
X138606372Y58481043D01*
X139137093Y59010839D01*
X139424672Y59703405D01*
X139425326Y60453305D01*
X139138957Y61146372D01*
X138609161Y61677093D01*
X137916595Y61964672D01*
X137166695Y61965326D01*
X136473628Y61678957D01*
X135942907Y61149161D01*
X135655328Y60456595D01*
X135654674Y59706695D01*
X119424674Y59706695D01*
X119425326Y60453305D01*
X119138957Y61146372D01*
X118609161Y61677093D01*
X117916595Y61964672D01*
X117166695Y61965326D01*
X116473628Y61678957D01*
X115942907Y61149161D01*
X115655328Y60456595D01*
X115654674Y59706695D01*
X99424674Y59706695D01*
X99425326Y60453305D01*
X99138957Y61146372D01*
X98609161Y61677093D01*
X97916595Y61964672D01*
X97166695Y61965326D01*
X96473628Y61678957D01*
X95942907Y61149161D01*
X95655328Y60456595D01*
X95654674Y59706695D01*
X89126745Y59706695D01*
X89127715Y60817310D01*
X88500741Y62334704D01*
X87340810Y63496660D01*
X85845566Y64117540D01*
X93093178Y64117540D01*
X93213201Y64067702D01*
X93585167Y64067378D01*
X93706569Y64117540D01*
X113193178Y64117540D01*
X113313201Y64067702D01*
X113685167Y64067378D01*
X113806569Y64117540D01*
X133193178Y64117540D01*
X133313201Y64067702D01*
X133685167Y64067378D01*
X133806569Y64117540D01*
X143587061Y64117540D01*
X143713201Y64065162D01*
X144085167Y64064838D01*
X144428943Y64206883D01*
X144692192Y64469673D01*
X144834838Y64813201D01*
X144835162Y65185167D01*
X144693117Y65528943D01*
X144430327Y65792192D01*
X144086799Y65934838D01*
X143714833Y65935162D01*
X143599579Y65887540D01*
X133806822Y65887540D01*
X133686799Y65937378D01*
X133314833Y65937702D01*
X133193431Y65887540D01*
X113806822Y65887540D01*
X113686799Y65937378D01*
X113314833Y65937702D01*
X113193431Y65887540D01*
X93706822Y65887540D01*
X93586799Y65937378D01*
X93214833Y65937702D01*
X93093431Y65887540D01*
X73806822Y65887540D01*
X73686799Y65937378D01*
X73314833Y65937702D01*
X73193431Y65887540D01*
X53806822Y65887540D01*
X53686799Y65937378D01*
X53314833Y65937702D01*
X53193431Y65887540D01*
X33806822Y65887540D01*
X33686799Y65937378D01*
X33314833Y65937702D01*
X33193431Y65887540D01*
X13806822Y65887540D01*
X13686799Y65937378D01*
X13314833Y65937702D01*
X13193431Y65887540D01*
X10307342Y65887540D01*
X10187319Y65937378D01*
X9815353Y65937702D01*
X9471577Y65795657D01*
X9208328Y65532867D01*
X9065682Y65189339D01*
X9065358Y64817373D01*
X710000Y64817373D01*
X710000Y99706695D01*
X15654674Y99706695D01*
X15941043Y99013628D01*
X16470839Y98482907D01*
X17163405Y98195328D01*
X17913305Y98194674D01*
X18606372Y98481043D01*
X19137093Y99010839D01*
X19424672Y99703405D01*
X19424674Y99706695D01*
X35654674Y99706695D01*
X35941043Y99013628D01*
X36470839Y98482907D01*
X37163405Y98195328D01*
X37913305Y98194674D01*
X38606372Y98481043D01*
X39137093Y99010839D01*
X39424672Y99703405D01*
X39424674Y99706695D01*
X55654674Y99706695D01*
X55941043Y99013628D01*
X56470839Y98482907D01*
X57163405Y98195328D01*
X57913305Y98194674D01*
X58606372Y98481043D01*
X59137093Y99010839D01*
X59424672Y99703405D01*
X59424674Y99706695D01*
X75654674Y99706695D01*
X75941043Y99013628D01*
X76470839Y98482907D01*
X77163405Y98195328D01*
X77913305Y98194674D01*
X78606372Y98481043D01*
X79137093Y99010839D01*
X79424672Y99703405D01*
X79424674Y99706695D01*
X95654674Y99706695D01*
X95941043Y99013628D01*
X96470839Y98482907D01*
X97163405Y98195328D01*
X97913305Y98194674D01*
X98606372Y98481043D01*
X99137093Y99010839D01*
X99424672Y99703405D01*
X99424674Y99706695D01*
X115654674Y99706695D01*
X115941043Y99013628D01*
X116470839Y98482907D01*
X117163405Y98195328D01*
X117913305Y98194674D01*
X118606372Y98481043D01*
X119137093Y99010839D01*
X119424672Y99703405D01*
X119424674Y99706695D01*
X135654674Y99706695D01*
X135941043Y99013628D01*
X136470839Y98482907D01*
X137163405Y98195328D01*
X137913305Y98194674D01*
X138606372Y98481043D01*
X139137093Y99010839D01*
X139424672Y99703405D01*
X139425326Y100453305D01*
X139138957Y101146372D01*
X138609161Y101677093D01*
X137916595Y101964672D01*
X137166695Y101965326D01*
X136473628Y101678957D01*
X135942907Y101149161D01*
X135655328Y100456595D01*
X135654674Y99706695D01*
X119424674Y99706695D01*
X119425326Y100453305D01*
X119138957Y101146372D01*
X118609161Y101677093D01*
X117916595Y101964672D01*
X117166695Y101965326D01*
X116473628Y101678957D01*
X115942907Y101149161D01*
X115655328Y100456595D01*
X115654674Y99706695D01*
X99424674Y99706695D01*
X99425326Y100453305D01*
X99138957Y101146372D01*
X98609161Y101677093D01*
X97916595Y101964672D01*
X97166695Y101965326D01*
X96473628Y101678957D01*
X95942907Y101149161D01*
X95655328Y100456595D01*
X95654674Y99706695D01*
X79424674Y99706695D01*
X79425326Y100453305D01*
X79138957Y101146372D01*
X78609161Y101677093D01*
X77916595Y101964672D01*
X77166695Y101965326D01*
X76473628Y101678957D01*
X75942907Y101149161D01*
X75655328Y100456595D01*
X75654674Y99706695D01*
X59424674Y99706695D01*
X59425326Y100453305D01*
X59138957Y101146372D01*
X58609161Y101677093D01*
X57916595Y101964672D01*
X57166695Y101965326D01*
X56473628Y101678957D01*
X55942907Y101149161D01*
X55655328Y100456595D01*
X55654674Y99706695D01*
X39424674Y99706695D01*
X39425326Y100453305D01*
X39138957Y101146372D01*
X38609161Y101677093D01*
X37916595Y101964672D01*
X37166695Y101965326D01*
X36473628Y101678957D01*
X35942907Y101149161D01*
X35655328Y100456595D01*
X35654674Y99706695D01*
X19424674Y99706695D01*
X19425326Y100453305D01*
X19138957Y101146372D01*
X18609161Y101677093D01*
X17916595Y101964672D01*
X17166695Y101965326D01*
X16473628Y101678957D01*
X15942907Y101149161D01*
X15655328Y100456595D01*
X15654674Y99706695D01*
X710000Y99706695D01*
X710000Y103482242D01*
X2175487Y102873718D01*
X3817310Y102872285D01*
X5334704Y103499259D01*
X6496660Y104659190D01*
X6562343Y104817373D01*
X9064838Y104817373D01*
X9206883Y104473597D01*
X9469673Y104210348D01*
X9813201Y104067702D01*
X10185167Y104067378D01*
X10306569Y104117540D01*
X32193178Y104117540D01*
X32313201Y104067702D01*
X32685167Y104067378D01*
X32806569Y104117540D01*
X52193178Y104117540D01*
X52313201Y104067702D01*
X52685167Y104067378D01*
X52806569Y104117540D01*
X72193178Y104117540D01*
X72313201Y104067702D01*
X72685167Y104067378D01*
X72806569Y104117540D01*
X92193178Y104117540D01*
X92313201Y104067702D01*
X92685167Y104067378D01*
X92806569Y104117540D01*
X112193178Y104117540D01*
X112313201Y104067702D01*
X112685167Y104067378D01*
X112806569Y104117540D01*
X132193178Y104117540D01*
X132313201Y104067702D01*
X132685167Y104067378D01*
X133028943Y104209423D01*
X133292192Y104472213D01*
X133434838Y104815741D01*
X133435162Y105187707D01*
X133293117Y105531483D01*
X133030327Y105794732D01*
X132686799Y105937378D01*
X132314833Y105937702D01*
X132193431Y105887540D01*
X112806822Y105887540D01*
X112686799Y105937378D01*
X112314833Y105937702D01*
X112193431Y105887540D01*
X92806822Y105887540D01*
X92686799Y105937378D01*
X92314833Y105937702D01*
X92193431Y105887540D01*
X72806822Y105887540D01*
X72686799Y105937378D01*
X72314833Y105937702D01*
X72193431Y105887540D01*
X52806822Y105887540D01*
X52686799Y105937378D01*
X52314833Y105937702D01*
X52193431Y105887540D01*
X32806822Y105887540D01*
X32686799Y105937378D01*
X32314833Y105937702D01*
X32193431Y105887540D01*
X10306822Y105887540D01*
X10186799Y105937378D01*
X9814833Y105937702D01*
X9471057Y105795657D01*
X9207808Y105532867D01*
X9065162Y105189339D01*
X9064838Y104817373D01*
X6562343Y104817373D01*
X7126282Y106175487D01*
X7127715Y107817310D01*
X6519212Y109290000D01*
X163482242Y109290000D01*
X162873718Y107824513D01*
X162873718Y107824513D01*
G37*
X162873718Y107824513D02*
X162872285Y106182690D01*
X163499259Y104665296D01*
X164659190Y103503340D01*
X166175487Y102873718D01*
X167817310Y102872285D01*
X169290000Y103480788D01*
X169290000Y85069930D01*
X169255074Y84894345D01*
X169195225Y84804774D01*
X169105655Y84744926D01*
X168930070Y84710000D01*
X166000000Y84710000D01*
X165931416Y84696358D01*
X165478804Y84620238D01*
X165406632Y84590343D01*
X165222862Y84514223D01*
X164898438Y84297451D01*
X164783354Y84182366D01*
X164702549Y84101561D01*
X164485776Y83777138D01*
X164435581Y83655954D01*
X164434874Y83654247D01*
X164435162Y83985167D01*
X164399754Y84070861D01*
X164728943Y84206879D01*
X164992192Y84469669D01*
X165134838Y84813197D01*
X165135162Y85185163D01*
X164993117Y85528939D01*
X164960000Y85562114D01*
X164960000Y99400000D01*
X164902148Y99690839D01*
X164737401Y99937401D01*
X160735122Y103939680D01*
X160735162Y103985167D01*
X160593117Y104328943D01*
X160330327Y104592192D01*
X159986799Y104734838D01*
X159614833Y104735162D01*
X159271057Y104593117D01*
X159012479Y104334990D01*
X158814833Y104335162D01*
X158471057Y104193117D01*
X158207808Y103930327D01*
X158065162Y103586799D01*
X158064838Y103214833D01*
X158206883Y102871057D01*
X158469673Y102607808D01*
X158813201Y102465162D01*
X158860077Y102465121D01*
X162065010Y99260188D01*
X162065010Y87025958D01*
X162043117Y87078943D01*
X161780327Y87342192D01*
X161436799Y87484838D01*
X161389923Y87484879D01*
X161260000Y87614802D01*
X161260000Y96687537D01*
X161292192Y96719673D01*
X161434838Y97063201D01*
X161435162Y97435167D01*
X161293117Y97778943D01*
X161030327Y98042192D01*
X160686799Y98184838D01*
X160557576Y98184951D01*
X160557816Y98460187D01*
X160415771Y98803963D01*
X160152981Y99067212D01*
X159809453Y99209858D01*
X159437487Y99210182D01*
X159093711Y99068137D01*
X158830462Y98805347D01*
X158687816Y98461819D01*
X158687492Y98089853D01*
X158829537Y97746077D01*
X158862654Y97712902D01*
X158862654Y97712148D01*
X155435122Y101139680D01*
X155435162Y101185167D01*
X155293117Y101528943D01*
X155030327Y101792192D01*
X154686799Y101934838D01*
X154314833Y101935162D01*
X153971057Y101793117D01*
X153707808Y101530327D01*
X153565162Y101186799D01*
X153564838Y100814833D01*
X153695069Y100499649D01*
X153565162Y100186799D01*
X153564838Y99814833D01*
X153706883Y99471057D01*
X153969673Y99207808D01*
X154313201Y99065162D01*
X154360077Y99065121D01*
X156840000Y96585198D01*
X156840000Y94640868D01*
X156590432Y94890436D01*
X156319539Y95071441D01*
X155999998Y95135002D01*
X149932692Y95135002D01*
X149932692Y95602308D01*
X149872937Y95902714D01*
X149702771Y96157387D01*
X149055079Y96805079D01*
X148800407Y96975245D01*
X148500000Y97035000D01*
X146150894Y97035000D01*
X145666604Y97519290D01*
X145684838Y97563201D01*
X145685162Y97935167D01*
X145543117Y98278943D01*
X145280327Y98542192D01*
X144936799Y98684838D01*
X144564833Y98685162D01*
X144221057Y98543117D01*
X143957808Y98280327D01*
X143815162Y97936799D01*
X143814838Y97564833D01*
X143956883Y97221057D01*
X143993023Y97184853D01*
X144024755Y97025329D01*
X144194921Y96770657D01*
X145270657Y95694921D01*
X145525330Y95524755D01*
X145825736Y95465000D01*
X148174842Y95465000D01*
X148362692Y95277150D01*
X148362692Y94843554D01*
X148311667Y94792529D01*
X148071057Y94693111D01*
X147807808Y94430321D01*
X147665162Y94086793D01*
X147664838Y93714827D01*
X147806883Y93371051D01*
X148039980Y93137547D01*
X148039980Y92027234D01*
X147940142Y91786799D01*
X147939818Y91414833D01*
X148081863Y91071057D01*
X148344653Y90807808D01*
X148688181Y90665162D01*
X148740000Y90665117D01*
X148740000Y88162463D01*
X148707808Y88130327D01*
X148565162Y87786799D01*
X148564838Y87414833D01*
X148706883Y87071057D01*
X148969673Y86807808D01*
X149313201Y86665162D01*
X149685167Y86664838D01*
X150028943Y86806883D01*
X150292192Y87069673D01*
X150434838Y87413201D01*
X150435162Y87785167D01*
X150293117Y88128943D01*
X150260000Y88162118D01*
X150260000Y88265198D01*
X151064878Y87460320D01*
X151064838Y87414833D01*
X151206883Y87071057D01*
X151469673Y86807808D01*
X151813201Y86665162D01*
X152185167Y86664838D01*
X152528943Y86806883D01*
X152792192Y87069673D01*
X152934838Y87413201D01*
X152935162Y87785167D01*
X152793117Y88128943D01*
X152530327Y88392192D01*
X152186799Y88534838D01*
X152139923Y88534879D01*
X151155253Y89519549D01*
X151155253Y92046551D01*
X151346259Y92046385D01*
X151690035Y92188430D01*
X151723210Y92221547D01*
X152403383Y92221547D01*
X152506883Y91971057D01*
X152769673Y91707808D01*
X153113201Y91565162D01*
X153485167Y91564838D01*
X153828943Y91706883D01*
X154092192Y91969673D01*
X154234838Y92313201D01*
X154235162Y92685167D01*
X154093117Y93028943D01*
X153830327Y93292192D01*
X153486799Y93434838D01*
X153439923Y93434879D01*
X153409800Y93465002D01*
X155654130Y93465002D01*
X155865000Y93254132D01*
X155865000Y92800000D01*
X155928561Y92480459D01*
X156101561Y92221547D01*
X156109566Y92209566D01*
X157309566Y91009566D01*
X157580459Y90828561D01*
X157900000Y90765000D01*
X158972766Y90765000D01*
X159213201Y90665162D01*
X159585167Y90664838D01*
X159740000Y90728814D01*
X159740000Y89034966D01*
X159514833Y89035162D01*
X159171057Y88893117D01*
X158907808Y88630327D01*
X158765162Y88286799D01*
X158764838Y87914833D01*
X158906883Y87571057D01*
X158940000Y87537882D01*
X158940000Y87200000D01*
X158997852Y86909161D01*
X159162599Y86662599D01*
X160040000Y85785198D01*
X160040000Y77882290D01*
X156861145Y81061145D01*
X156557809Y81263827D01*
X156200000Y81335000D01*
X151834857Y81335000D01*
X151835162Y81685167D01*
X151693117Y82028943D01*
X151430327Y82292192D01*
X151429935Y82292355D01*
X148061145Y85661145D01*
X147757809Y85863827D01*
X147400000Y85935000D01*
X144316579Y85935000D01*
X138025790Y92225790D01*
X137894969Y92313201D01*
X137738675Y92417633D01*
X137651366Y92435000D01*
X137400000Y92485001D01*
X137399995Y92485000D01*
X135813362Y92485000D01*
X136490658Y92764853D01*
X137232542Y93505443D01*
X137634542Y94473567D01*
X137634744Y94705911D01*
X138594743Y94705911D01*
X138820344Y94159914D01*
X139237717Y93741812D01*
X139783319Y93515258D01*
X140374089Y93514743D01*
X140920086Y93740344D01*
X141338188Y94157717D01*
X141564742Y94703319D01*
X141565257Y95294089D01*
X141339656Y95840086D01*
X140922283Y96258188D01*
X140376681Y96484742D01*
X139785911Y96485257D01*
X139239914Y96259656D01*
X138821812Y95842283D01*
X138595258Y95296681D01*
X138594743Y94705911D01*
X137634744Y94705911D01*
X137635457Y95521834D01*
X137235147Y96490658D01*
X136494557Y97232542D01*
X135526433Y97634542D01*
X134478166Y97635457D01*
X133509342Y97235147D01*
X132817815Y96544827D01*
X133074672Y97163405D01*
X133075326Y97913305D01*
X132788957Y98606372D01*
X132259161Y99137093D01*
X131566595Y99424672D01*
X130816695Y99425326D01*
X130123628Y99138957D01*
X129592907Y98609161D01*
X129305328Y97916595D01*
X129304674Y97166695D01*
X129591043Y96473628D01*
X129593006Y96471661D01*
X129079914Y96259656D01*
X128661812Y95842283D01*
X128435258Y95296681D01*
X128434743Y94705911D01*
X128660344Y94159914D01*
X129077717Y93741812D01*
X129623319Y93515258D01*
X130214089Y93514743D01*
X130760086Y93740344D01*
X131178188Y94157717D01*
X131404742Y94703319D01*
X131405257Y95294089D01*
X131256156Y95654942D01*
X131563305Y95654674D01*
X132256372Y95941043D01*
X132736736Y96420569D01*
X132365458Y95526433D01*
X132364543Y94478166D01*
X132764853Y93509342D01*
X133505443Y92767458D01*
X134185678Y92485000D01*
X115813362Y92485000D01*
X116490658Y92764853D01*
X117232542Y93505443D01*
X117634542Y94473567D01*
X117634744Y94705911D01*
X118594743Y94705911D01*
X118820344Y94159914D01*
X119237717Y93741812D01*
X119783319Y93515258D01*
X120374089Y93514743D01*
X120920086Y93740344D01*
X121338188Y94157717D01*
X121564742Y94703319D01*
X121565257Y95294089D01*
X121339656Y95840086D01*
X120922283Y96258188D01*
X120376681Y96484742D01*
X119785911Y96485257D01*
X119239914Y96259656D01*
X118821812Y95842283D01*
X118595258Y95296681D01*
X118594743Y94705911D01*
X117634744Y94705911D01*
X117635457Y95521834D01*
X117235147Y96490658D01*
X116494557Y97232542D01*
X115526433Y97634542D01*
X114478166Y97635457D01*
X113509342Y97235147D01*
X112817815Y96544827D01*
X113074672Y97163405D01*
X113075326Y97913305D01*
X112788957Y98606372D01*
X112259161Y99137093D01*
X111566595Y99424672D01*
X110816695Y99425326D01*
X110123628Y99138957D01*
X109592907Y98609161D01*
X109305328Y97916595D01*
X109304674Y97166695D01*
X109591043Y96473628D01*
X109593006Y96471661D01*
X109079914Y96259656D01*
X108661812Y95842283D01*
X108435258Y95296681D01*
X108434743Y94705911D01*
X108660344Y94159914D01*
X109077717Y93741812D01*
X109623319Y93515258D01*
X110214089Y93514743D01*
X110760086Y93740344D01*
X111178188Y94157717D01*
X111404742Y94703319D01*
X111405257Y95294089D01*
X111256156Y95654942D01*
X111563305Y95654674D01*
X112256372Y95941043D01*
X112736736Y96420569D01*
X112365458Y95526433D01*
X112364543Y94478166D01*
X112764853Y93509342D01*
X113505443Y92767458D01*
X114185678Y92485000D01*
X95813362Y92485000D01*
X96490658Y92764853D01*
X97232542Y93505443D01*
X97634542Y94473567D01*
X97634744Y94705911D01*
X98594743Y94705911D01*
X98820344Y94159914D01*
X99237717Y93741812D01*
X99783319Y93515258D01*
X100374089Y93514743D01*
X100920086Y93740344D01*
X101338188Y94157717D01*
X101564742Y94703319D01*
X101565257Y95294089D01*
X101339656Y95840086D01*
X100922283Y96258188D01*
X100376681Y96484742D01*
X99785911Y96485257D01*
X99239914Y96259656D01*
X98821812Y95842283D01*
X98595258Y95296681D01*
X98594743Y94705911D01*
X97634744Y94705911D01*
X97635457Y95521834D01*
X97235147Y96490658D01*
X96494557Y97232542D01*
X95526433Y97634542D01*
X94478166Y97635457D01*
X93509342Y97235147D01*
X92817815Y96544827D01*
X93074672Y97163405D01*
X93075326Y97913305D01*
X92788957Y98606372D01*
X92259161Y99137093D01*
X91566595Y99424672D01*
X90816695Y99425326D01*
X90123628Y99138957D01*
X89592907Y98609161D01*
X89305328Y97916595D01*
X89304674Y97166695D01*
X89591043Y96473628D01*
X89593006Y96471661D01*
X89079914Y96259656D01*
X88661812Y95842283D01*
X88435258Y95296681D01*
X88434743Y94705911D01*
X88660344Y94159914D01*
X89077717Y93741812D01*
X89623319Y93515258D01*
X90214089Y93514743D01*
X90760086Y93740344D01*
X91178188Y94157717D01*
X91404742Y94703319D01*
X91405257Y95294089D01*
X91256156Y95654942D01*
X91563305Y95654674D01*
X92256372Y95941043D01*
X92736736Y96420569D01*
X92365458Y95526433D01*
X92364543Y94478166D01*
X92764853Y93509342D01*
X93505443Y92767458D01*
X94185678Y92485000D01*
X75813362Y92485000D01*
X76490658Y92764853D01*
X77232542Y93505443D01*
X77634542Y94473567D01*
X77634744Y94705911D01*
X78594743Y94705911D01*
X78820344Y94159914D01*
X79237717Y93741812D01*
X79783319Y93515258D01*
X80374089Y93514743D01*
X80920086Y93740344D01*
X81338188Y94157717D01*
X81564742Y94703319D01*
X81565257Y95294089D01*
X81339656Y95840086D01*
X80922283Y96258188D01*
X80376681Y96484742D01*
X79785911Y96485257D01*
X79239914Y96259656D01*
X78821812Y95842283D01*
X78595258Y95296681D01*
X78594743Y94705911D01*
X77634744Y94705911D01*
X77635457Y95521834D01*
X77235147Y96490658D01*
X76494557Y97232542D01*
X75526433Y97634542D01*
X74478166Y97635457D01*
X73509342Y97235147D01*
X72817815Y96544827D01*
X73074672Y97163405D01*
X73075326Y97913305D01*
X72788957Y98606372D01*
X72259161Y99137093D01*
X71566595Y99424672D01*
X70816695Y99425326D01*
X70123628Y99138957D01*
X69592907Y98609161D01*
X69305328Y97916595D01*
X69304674Y97166695D01*
X69591043Y96473628D01*
X69593006Y96471661D01*
X69079914Y96259656D01*
X68661812Y95842283D01*
X68435258Y95296681D01*
X68434743Y94705911D01*
X68660344Y94159914D01*
X69077717Y93741812D01*
X69623319Y93515258D01*
X70214089Y93514743D01*
X70760086Y93740344D01*
X71178188Y94157717D01*
X71404742Y94703319D01*
X71405257Y95294089D01*
X71256156Y95654942D01*
X71563305Y95654674D01*
X72256372Y95941043D01*
X72736736Y96420569D01*
X72365458Y95526433D01*
X72364543Y94478166D01*
X72764853Y93509342D01*
X73505443Y92767458D01*
X74185678Y92485000D01*
X55813362Y92485000D01*
X56490658Y92764853D01*
X57232542Y93505443D01*
X57634542Y94473567D01*
X57634744Y94705911D01*
X58594743Y94705911D01*
X58820344Y94159914D01*
X59237717Y93741812D01*
X59783319Y93515258D01*
X60374089Y93514743D01*
X60920086Y93740344D01*
X61338188Y94157717D01*
X61564742Y94703319D01*
X61565257Y95294089D01*
X61339656Y95840086D01*
X60922283Y96258188D01*
X60376681Y96484742D01*
X59785911Y96485257D01*
X59239914Y96259656D01*
X58821812Y95842283D01*
X58595258Y95296681D01*
X58594743Y94705911D01*
X57634744Y94705911D01*
X57635457Y95521834D01*
X57235147Y96490658D01*
X56494557Y97232542D01*
X55526433Y97634542D01*
X54478166Y97635457D01*
X53509342Y97235147D01*
X52817815Y96544827D01*
X53074672Y97163405D01*
X53075326Y97913305D01*
X52788957Y98606372D01*
X52259161Y99137093D01*
X51566595Y99424672D01*
X50816695Y99425326D01*
X50123628Y99138957D01*
X49592907Y98609161D01*
X49305328Y97916595D01*
X49304674Y97166695D01*
X49591043Y96473628D01*
X49593006Y96471661D01*
X49079914Y96259656D01*
X48661812Y95842283D01*
X48435258Y95296681D01*
X48434743Y94705911D01*
X48660344Y94159914D01*
X49077717Y93741812D01*
X49623319Y93515258D01*
X50214089Y93514743D01*
X50760086Y93740344D01*
X51178188Y94157717D01*
X51404742Y94703319D01*
X51405257Y95294089D01*
X51256156Y95654942D01*
X51563305Y95654674D01*
X52256372Y95941043D01*
X52736736Y96420569D01*
X52365458Y95526433D01*
X52364543Y94478166D01*
X52764853Y93509342D01*
X53505443Y92767458D01*
X54185678Y92485000D01*
X35813362Y92485000D01*
X36490658Y92764853D01*
X37232542Y93505443D01*
X37634542Y94473567D01*
X37634744Y94705911D01*
X38594743Y94705911D01*
X38820344Y94159914D01*
X39237717Y93741812D01*
X39783319Y93515258D01*
X40374089Y93514743D01*
X40920086Y93740344D01*
X41338188Y94157717D01*
X41564742Y94703319D01*
X41565257Y95294089D01*
X41339656Y95840086D01*
X40922283Y96258188D01*
X40376681Y96484742D01*
X39785911Y96485257D01*
X39239914Y96259656D01*
X38821812Y95842283D01*
X38595258Y95296681D01*
X38594743Y94705911D01*
X37634744Y94705911D01*
X37635457Y95521834D01*
X37235147Y96490658D01*
X36494557Y97232542D01*
X35526433Y97634542D01*
X34478166Y97635457D01*
X33509342Y97235147D01*
X32817815Y96544827D01*
X33074672Y97163405D01*
X33075326Y97913305D01*
X32788957Y98606372D01*
X32259161Y99137093D01*
X31566595Y99424672D01*
X30816695Y99425326D01*
X30123628Y99138957D01*
X29592907Y98609161D01*
X29305328Y97916595D01*
X29304674Y97166695D01*
X29591043Y96473628D01*
X29593006Y96471661D01*
X29079914Y96259656D01*
X28661812Y95842283D01*
X28435258Y95296681D01*
X28434743Y94705911D01*
X28660344Y94159914D01*
X29077717Y93741812D01*
X29623319Y93515258D01*
X30214089Y93514743D01*
X30760086Y93740344D01*
X31178188Y94157717D01*
X31404742Y94703319D01*
X31405257Y95294089D01*
X31256156Y95654942D01*
X31563305Y95654674D01*
X32256372Y95941043D01*
X32736736Y96420569D01*
X32365458Y95526433D01*
X32364543Y94478166D01*
X32764853Y93509342D01*
X33505443Y92767458D01*
X34185678Y92485000D01*
X15813362Y92485000D01*
X16490658Y92764853D01*
X17232542Y93505443D01*
X17634542Y94473567D01*
X17634744Y94705911D01*
X18594743Y94705911D01*
X18820344Y94159914D01*
X19237717Y93741812D01*
X19783319Y93515258D01*
X20374089Y93514743D01*
X20920086Y93740344D01*
X21338188Y94157717D01*
X21564742Y94703319D01*
X21565257Y95294089D01*
X21339656Y95840086D01*
X20922283Y96258188D01*
X20376681Y96484742D01*
X19785911Y96485257D01*
X19239914Y96259656D01*
X18821812Y95842283D01*
X18595258Y95296681D01*
X18594743Y94705911D01*
X17634744Y94705911D01*
X17635457Y95521834D01*
X17235147Y96490658D01*
X16494557Y97232542D01*
X15526433Y97634542D01*
X14478166Y97635457D01*
X13509342Y97235147D01*
X12817815Y96544827D01*
X13074672Y97163405D01*
X13075326Y97913305D01*
X12788957Y98606372D01*
X12259161Y99137093D01*
X11566595Y99424672D01*
X10816695Y99425326D01*
X10123628Y99138957D01*
X9592907Y98609161D01*
X9305328Y97916595D01*
X9304674Y97166695D01*
X9591043Y96473628D01*
X9593006Y96471661D01*
X9079914Y96259656D01*
X8661812Y95842283D01*
X8435258Y95296681D01*
X8434743Y94705911D01*
X8660344Y94159914D01*
X9077717Y93741812D01*
X9623319Y93515258D01*
X10214089Y93514743D01*
X10760086Y93740344D01*
X11178188Y94157717D01*
X11404742Y94703319D01*
X11405257Y95294089D01*
X11256156Y95654942D01*
X11563305Y95654674D01*
X12256372Y95941043D01*
X12736736Y96420569D01*
X12365458Y95526433D01*
X12364543Y94478166D01*
X12764853Y93509342D01*
X13505443Y92767458D01*
X14185678Y92485000D01*
X3811274Y92485000D01*
X3793117Y92528943D01*
X3530327Y92792192D01*
X3186799Y92934838D01*
X2814833Y92935162D01*
X2471057Y92793117D01*
X2207808Y92530327D01*
X2065162Y92186799D01*
X2064838Y91814833D01*
X2206883Y91471057D01*
X2469673Y91207808D01*
X2590987Y91157434D01*
X2774208Y90974213D01*
X2774210Y90974210D01*
X3061325Y90782367D01*
X3400000Y90715000D01*
X137033420Y90715000D01*
X141413421Y86335000D01*
X134634944Y86335000D01*
X134635162Y86585167D01*
X134493117Y86928943D01*
X134230327Y87192192D01*
X133886799Y87334838D01*
X133514833Y87335162D01*
X133514441Y87335000D01*
X127000816Y87335000D01*
X126814833Y87335162D01*
X126814441Y87335000D01*
X114400816Y87335000D01*
X114214833Y87335162D01*
X114214441Y87335000D01*
X94400816Y87335000D01*
X94214833Y87335162D01*
X94214441Y87335000D01*
X74400816Y87335000D01*
X74214833Y87335162D01*
X74214441Y87335000D01*
X54400816Y87335000D01*
X54214833Y87335162D01*
X54214441Y87335000D01*
X34400816Y87335000D01*
X34214833Y87335162D01*
X34214441Y87335000D01*
X14400816Y87335000D01*
X14214833Y87335162D01*
X14214441Y87335000D01*
X11237460Y87335000D01*
X10879651Y87263827D01*
X10576315Y87061145D01*
X9179146Y85663976D01*
X9047808Y85532867D01*
X8905162Y85189339D01*
X8904838Y84817373D01*
X9046883Y84473597D01*
X9309673Y84210348D01*
X9653201Y84067702D01*
X10025167Y84067378D01*
X10368943Y84209423D01*
X10632192Y84472213D01*
X10632355Y84472605D01*
X11624750Y85465000D01*
X14399184Y85465000D01*
X14585167Y85464838D01*
X14585559Y85465000D01*
X34399184Y85465000D01*
X34585167Y85464838D01*
X34585559Y85465000D01*
X50965137Y85465000D01*
X50964832Y85114833D01*
X51106877Y84771057D01*
X51369667Y84507808D01*
X51713195Y84365162D01*
X52085161Y84364838D01*
X52085553Y84365000D01*
X53642710Y84365000D01*
X52512710Y83235000D01*
X15950005Y83235000D01*
X15950000Y83235001D01*
X15651556Y83175636D01*
X15592191Y83163827D01*
X15357307Y83006883D01*
X15288855Y82961145D01*
X11697871Y79370161D01*
X11566595Y79424672D01*
X10816695Y79425326D01*
X10123628Y79138957D01*
X9592907Y78609161D01*
X9305328Y77916595D01*
X9304674Y77166695D01*
X9591043Y76473628D01*
X9593006Y76471661D01*
X9079914Y76259656D01*
X8661812Y75842283D01*
X8435258Y75296681D01*
X8434743Y74705911D01*
X8660344Y74159914D01*
X9077717Y73741812D01*
X9623319Y73515258D01*
X10214089Y73514743D01*
X10760086Y73740344D01*
X11178188Y74157717D01*
X11404742Y74703319D01*
X11405257Y75294089D01*
X11256156Y75654942D01*
X11563305Y75654674D01*
X12256372Y75941043D01*
X12736736Y76420569D01*
X12365458Y75526433D01*
X12364543Y74478166D01*
X12764853Y73509342D01*
X13505443Y72767458D01*
X14473567Y72365458D01*
X15521834Y72364543D01*
X16490658Y72764853D01*
X17232542Y73505443D01*
X17634542Y74473567D01*
X17634744Y74705911D01*
X18594743Y74705911D01*
X18820344Y74159914D01*
X19237717Y73741812D01*
X19783319Y73515258D01*
X20374089Y73514743D01*
X20920086Y73740344D01*
X21338188Y74157717D01*
X21564742Y74703319D01*
X21565257Y75294089D01*
X21339656Y75840086D01*
X20922283Y76258188D01*
X20376681Y76484742D01*
X19785911Y76485257D01*
X19239914Y76259656D01*
X18821812Y75842283D01*
X18595258Y75296681D01*
X18594743Y74705911D01*
X17634744Y74705911D01*
X17635457Y75521834D01*
X17235147Y76490658D01*
X16494557Y77232542D01*
X15526433Y77634542D01*
X14478166Y77635457D01*
X13509342Y77235147D01*
X12817815Y76544827D01*
X13074672Y77163405D01*
X13075326Y77913305D01*
X13019852Y78047562D01*
X15816124Y80843834D01*
X15655328Y80456595D01*
X15654674Y79706695D01*
X15941043Y79013628D01*
X16470839Y78482907D01*
X17163405Y78195328D01*
X17913305Y78194674D01*
X18606372Y78481043D01*
X19137093Y79010839D01*
X19424672Y79703405D01*
X19425326Y80453305D01*
X19138957Y81146372D01*
X18920710Y81365000D01*
X36159123Y81365000D01*
X35942907Y81149161D01*
X35655328Y80456595D01*
X35654674Y79706695D01*
X35941043Y79013628D01*
X36470839Y78482907D01*
X37163405Y78195328D01*
X37913305Y78194674D01*
X38606372Y78481043D01*
X39137093Y79010839D01*
X39424672Y79703405D01*
X39424674Y79706695D01*
X55654674Y79706695D01*
X55941043Y79013628D01*
X56470839Y78482907D01*
X57163405Y78195328D01*
X57913305Y78194674D01*
X58606372Y78481043D01*
X59137093Y79010839D01*
X59424672Y79703405D01*
X59425326Y80453305D01*
X59138957Y81146372D01*
X58609161Y81677093D01*
X57916595Y81964672D01*
X57166695Y81965326D01*
X56473628Y81678957D01*
X55942907Y81149161D01*
X55655328Y80456595D01*
X55654674Y79706695D01*
X39424674Y79706695D01*
X39425326Y80453305D01*
X39138957Y81146372D01*
X38920710Y81365000D01*
X52900000Y81365000D01*
X53257809Y81436173D01*
X53561145Y81638855D01*
X55287290Y83365000D01*
X72942710Y83365000D01*
X70528855Y80951145D01*
X70326173Y80647809D01*
X70255000Y80290000D01*
X70255000Y79193239D01*
X70123628Y79138957D01*
X69592907Y78609161D01*
X69305328Y77916595D01*
X69304674Y77166695D01*
X69591043Y76473628D01*
X69593006Y76471661D01*
X69079914Y76259656D01*
X68661812Y75842283D01*
X68435258Y75296681D01*
X68434743Y74705911D01*
X68660344Y74159914D01*
X69077717Y73741812D01*
X69623319Y73515258D01*
X70214089Y73514743D01*
X70760086Y73740344D01*
X71178188Y74157717D01*
X71404742Y74703319D01*
X71405257Y75294089D01*
X71256156Y75654942D01*
X71563305Y75654674D01*
X72256372Y75941043D01*
X72736736Y76420569D01*
X72365458Y75526433D01*
X72364543Y74478166D01*
X72764853Y73509342D01*
X73505443Y72767458D01*
X74473567Y72365458D01*
X75521834Y72364543D01*
X76490658Y72764853D01*
X77232542Y73505443D01*
X77634542Y74473567D01*
X77634744Y74705911D01*
X78594743Y74705911D01*
X78820344Y74159914D01*
X79237717Y73741812D01*
X79783319Y73515258D01*
X80374089Y73514743D01*
X80920086Y73740344D01*
X81338188Y74157717D01*
X81564742Y74703319D01*
X81565257Y75294089D01*
X81339656Y75840086D01*
X80922283Y76258188D01*
X80376681Y76484742D01*
X79785911Y76485257D01*
X79239914Y76259656D01*
X78821812Y75842283D01*
X78595258Y75296681D01*
X78594743Y74705911D01*
X77634744Y74705911D01*
X77635457Y75521834D01*
X77235147Y76490658D01*
X76494557Y77232542D01*
X75526433Y77634542D01*
X74478166Y77635457D01*
X73509342Y77235147D01*
X72817815Y76544827D01*
X73074672Y77163405D01*
X73075326Y77913305D01*
X72788957Y78606372D01*
X72259161Y79137093D01*
X72125000Y79192802D01*
X72125000Y79902710D01*
X74187290Y81965000D01*
X77165906Y81965000D01*
X76473628Y81678957D01*
X75942907Y81149161D01*
X75655328Y80456595D01*
X75654674Y79706695D01*
X75941043Y79013628D01*
X76470839Y78482907D01*
X77163405Y78195328D01*
X77913305Y78194674D01*
X78606372Y78481043D01*
X79137093Y79010839D01*
X79424672Y79703405D01*
X79425326Y80453305D01*
X79138957Y81146372D01*
X78609161Y81677093D01*
X77916595Y81964672D01*
X77540498Y81965000D01*
X97165906Y81965000D01*
X96473628Y81678957D01*
X95942907Y81149161D01*
X95655328Y80456595D01*
X95654674Y79706695D01*
X95941043Y79013628D01*
X96470839Y78482907D01*
X97163405Y78195328D01*
X97913305Y78194674D01*
X98606372Y78481043D01*
X99137093Y79010839D01*
X99424672Y79703405D01*
X99425326Y80453305D01*
X99138957Y81146372D01*
X98609161Y81677093D01*
X97916595Y81964672D01*
X97540498Y81965000D01*
X100312710Y81965000D01*
X102765000Y79512710D01*
X102765000Y74100000D01*
X102836173Y73742191D01*
X103038855Y73438855D01*
X104842710Y71635000D01*
X90787290Y71635000D01*
X88835000Y73587290D01*
X88835000Y73984953D01*
X89077717Y73741812D01*
X89623319Y73515258D01*
X90214089Y73514743D01*
X90760086Y73740344D01*
X91178188Y74157717D01*
X91404742Y74703319D01*
X91405257Y75294089D01*
X91256156Y75654942D01*
X91563305Y75654674D01*
X92256372Y75941043D01*
X92736736Y76420569D01*
X92365458Y75526433D01*
X92364543Y74478166D01*
X92764853Y73509342D01*
X93505443Y72767458D01*
X94473567Y72365458D01*
X95521834Y72364543D01*
X96490658Y72764853D01*
X97232542Y73505443D01*
X97634542Y74473567D01*
X97634744Y74705911D01*
X98594743Y74705911D01*
X98820344Y74159914D01*
X99237717Y73741812D01*
X99783319Y73515258D01*
X100374089Y73514743D01*
X100920086Y73740344D01*
X101338188Y74157717D01*
X101564742Y74703319D01*
X101565257Y75294089D01*
X101339656Y75840086D01*
X100922283Y76258188D01*
X100376681Y76484742D01*
X99785911Y76485257D01*
X99239914Y76259656D01*
X98821812Y75842283D01*
X98595258Y75296681D01*
X98594743Y74705911D01*
X97634744Y74705911D01*
X97635457Y75521834D01*
X97235147Y76490658D01*
X96494557Y77232542D01*
X95526433Y77634542D01*
X94478166Y77635457D01*
X93509342Y77235147D01*
X92817815Y76544827D01*
X93074672Y77163405D01*
X93075326Y77913305D01*
X92788957Y78606372D01*
X92259161Y79137093D01*
X91566595Y79424672D01*
X90816695Y79425326D01*
X90123628Y79138957D01*
X89592907Y78609161D01*
X89537198Y78475000D01*
X89422234Y78475000D01*
X89064425Y78403827D01*
X88761089Y78201145D01*
X87238855Y76678911D01*
X87036173Y76375575D01*
X86965000Y76017766D01*
X86965000Y73200000D01*
X87036173Y72842191D01*
X87238855Y72538855D01*
X89242710Y70535000D01*
X31187290Y70535000D01*
X28635000Y73087290D01*
X28635000Y74221251D01*
X28660344Y74159914D01*
X29077717Y73741812D01*
X29623319Y73515258D01*
X30214089Y73514743D01*
X30760086Y73740344D01*
X31178188Y74157717D01*
X31404742Y74703319D01*
X31405257Y75294089D01*
X31256156Y75654942D01*
X31563305Y75654674D01*
X32256372Y75941043D01*
X32736736Y76420569D01*
X32365458Y75526433D01*
X32364543Y74478166D01*
X32764853Y73509342D01*
X33505443Y72767458D01*
X34473567Y72365458D01*
X35521834Y72364543D01*
X36490658Y72764853D01*
X37232542Y73505443D01*
X37634542Y74473567D01*
X37634744Y74705911D01*
X38594743Y74705911D01*
X38820344Y74159914D01*
X39237717Y73741812D01*
X39783319Y73515258D01*
X40374089Y73514743D01*
X40920086Y73740344D01*
X41338188Y74157717D01*
X41564742Y74703319D01*
X41564744Y74705911D01*
X48434743Y74705911D01*
X48660344Y74159914D01*
X49077717Y73741812D01*
X49623319Y73515258D01*
X50214089Y73514743D01*
X50760086Y73740344D01*
X51178188Y74157717D01*
X51404742Y74703319D01*
X51405257Y75294089D01*
X51256156Y75654942D01*
X51563305Y75654674D01*
X52256372Y75941043D01*
X52736736Y76420569D01*
X52365458Y75526433D01*
X52364543Y74478166D01*
X52764853Y73509342D01*
X53505443Y72767458D01*
X54473567Y72365458D01*
X55521834Y72364543D01*
X56490658Y72764853D01*
X57232542Y73505443D01*
X57634542Y74473567D01*
X57634744Y74705911D01*
X58594743Y74705911D01*
X58820344Y74159914D01*
X59237717Y73741812D01*
X59783319Y73515258D01*
X60374089Y73514743D01*
X60920086Y73740344D01*
X61338188Y74157717D01*
X61564742Y74703319D01*
X61565257Y75294089D01*
X61339656Y75840086D01*
X60922283Y76258188D01*
X60376681Y76484742D01*
X59785911Y76485257D01*
X59239914Y76259656D01*
X58821812Y75842283D01*
X58595258Y75296681D01*
X58594743Y74705911D01*
X57634744Y74705911D01*
X57635457Y75521834D01*
X57235147Y76490658D01*
X56494557Y77232542D01*
X55526433Y77634542D01*
X54478166Y77635457D01*
X53509342Y77235147D01*
X52817815Y76544827D01*
X53074672Y77163405D01*
X53075326Y77913305D01*
X52788957Y78606372D01*
X52259161Y79137093D01*
X51566595Y79424672D01*
X50816695Y79425326D01*
X50123628Y79138957D01*
X49592907Y78609161D01*
X49305328Y77916595D01*
X49304674Y77166695D01*
X49591043Y76473628D01*
X49593006Y76471661D01*
X49079914Y76259656D01*
X48661812Y75842283D01*
X48435258Y75296681D01*
X48434743Y74705911D01*
X41564744Y74705911D01*
X41565257Y75294089D01*
X41339656Y75840086D01*
X40922283Y76258188D01*
X40376681Y76484742D01*
X39785911Y76485257D01*
X39239914Y76259656D01*
X38821812Y75842283D01*
X38595258Y75296681D01*
X38594743Y74705911D01*
X37634744Y74705911D01*
X37635457Y75521834D01*
X37235147Y76490658D01*
X36494557Y77232542D01*
X35526433Y77634542D01*
X34478166Y77635457D01*
X33509342Y77235147D01*
X32817815Y76544827D01*
X33074672Y77163405D01*
X33075326Y77913305D01*
X32788957Y78606372D01*
X32259161Y79137093D01*
X31566595Y79424672D01*
X30816695Y79425326D01*
X30123628Y79138957D01*
X29592907Y78609161D01*
X29537198Y78475000D01*
X29422234Y78475000D01*
X29064425Y78403827D01*
X28761089Y78201145D01*
X27038855Y76478911D01*
X26836173Y76175575D01*
X26765000Y75817766D01*
X26765000Y72700000D01*
X26836173Y72342191D01*
X27038855Y72038855D01*
X29642710Y69435000D01*
X6887290Y69435000D01*
X3661436Y72660854D01*
X3530327Y72792192D01*
X3186799Y72934838D01*
X2814833Y72935162D01*
X2471057Y72793117D01*
X2207808Y72530327D01*
X2065162Y72186799D01*
X2064838Y71814833D01*
X2206883Y71471057D01*
X2469673Y71207808D01*
X2470065Y71207645D01*
X5838855Y67838855D01*
X6142191Y67636173D01*
X6500000Y67565000D01*
X142775736Y67565000D01*
X143133545Y67636173D01*
X143436881Y67838855D01*
X144263026Y68665000D01*
X144299184Y68665000D01*
X144485167Y68664838D01*
X144828943Y68806883D01*
X145092192Y69069673D01*
X145234838Y69413201D01*
X145235162Y69785167D01*
X145093117Y70128943D01*
X144830327Y70392192D01*
X144486799Y70534838D01*
X144114833Y70535162D01*
X144114441Y70535000D01*
X143875736Y70535000D01*
X143727879Y70505589D01*
X144560854Y71338564D01*
X144692192Y71469673D01*
X144834838Y71813201D01*
X144835162Y72185167D01*
X144693117Y72528943D01*
X144430327Y72792192D01*
X144320482Y72837804D01*
X144434838Y73113201D01*
X144435162Y73485167D01*
X144293117Y73828943D01*
X144030327Y74092192D01*
X143686799Y74234838D01*
X143557241Y74234951D01*
X145187290Y75865000D01*
X150100000Y75865000D01*
X150457809Y75936173D01*
X150761145Y76138855D01*
X152787290Y78165000D01*
X154665056Y78165000D01*
X154664838Y77914813D01*
X154806883Y77571037D01*
X155069673Y77307788D01*
X155413201Y77165142D01*
X155785167Y77164818D01*
X155909151Y77216047D01*
X157864878Y75260320D01*
X157864838Y75214833D01*
X157970133Y74960000D01*
X156200000Y74960000D01*
X155909160Y74902148D01*
X155662599Y74737401D01*
X153362599Y72437401D01*
X153197852Y72190839D01*
X153140000Y71900000D01*
X153140000Y71662463D01*
X153107808Y71630327D01*
X152965162Y71286799D01*
X152964838Y70914833D01*
X153106883Y70571057D01*
X153369673Y70307808D01*
X153713201Y70165162D01*
X154085167Y70164838D01*
X154428943Y70306883D01*
X154692192Y70569673D01*
X154834838Y70913201D01*
X154835162Y71285167D01*
X154696224Y71621422D01*
X156514802Y73440000D01*
X160600000Y73440000D01*
X160890839Y73497852D01*
X161137401Y73662599D01*
X161213888Y73739086D01*
X161213693Y73515597D01*
X161355738Y73171821D01*
X161567190Y72960000D01*
X157721604Y72960000D01*
X157693117Y73028943D01*
X157430327Y73292192D01*
X157086799Y73434838D01*
X156714833Y73435162D01*
X156371057Y73293117D01*
X156107808Y73030327D01*
X155965162Y72686799D01*
X155964838Y72314833D01*
X156106883Y71971057D01*
X156369673Y71707808D01*
X156713201Y71565162D01*
X156808548Y71565079D01*
X156909161Y71497852D01*
X157200000Y71440000D01*
X158684523Y71440000D01*
X158571057Y71393117D01*
X158307808Y71130327D01*
X158165162Y70786799D01*
X158164838Y70414833D01*
X158306883Y70071057D01*
X158401486Y69976288D01*
X153662599Y65237401D01*
X153497852Y64990839D01*
X153440000Y64700000D01*
X153440000Y64062463D01*
X153407808Y64030327D01*
X153391006Y63989862D01*
X152185000Y65195868D01*
X152185000Y73433420D01*
X153158834Y74407255D01*
X153278943Y74456883D01*
X153542192Y74719673D01*
X153684838Y75063201D01*
X153685162Y75435167D01*
X153543117Y75778943D01*
X153280327Y76042192D01*
X152936799Y76184838D01*
X152564833Y76185162D01*
X152221057Y76043117D01*
X151957808Y75780327D01*
X151907434Y75659013D01*
X150674210Y74425790D01*
X150482367Y74138675D01*
X150474674Y74100000D01*
X150414999Y73800000D01*
X150415000Y73799995D01*
X150415000Y64900000D01*
X150482367Y64561325D01*
X150674210Y64274210D01*
X150887310Y64131822D01*
X151548442Y63470690D01*
X151407834Y63330327D01*
X151265188Y62986799D01*
X151264864Y62614833D01*
X151406909Y62271057D01*
X151440026Y62237882D01*
X151440026Y56799974D01*
X151497878Y56509135D01*
X151662625Y56262573D01*
X152664878Y55260320D01*
X152664838Y55214833D01*
X152806883Y54871057D01*
X152972699Y54704951D01*
X152965162Y54686799D01*
X152965121Y54639923D01*
X150935009Y52609811D01*
X150935162Y52785167D01*
X150833729Y53030655D01*
X150771439Y53343805D01*
X150590434Y53614698D01*
X149735000Y54470132D01*
X149735000Y59072766D01*
X149834838Y59313201D01*
X149835162Y59685167D01*
X149693117Y60028943D01*
X149430327Y60292192D01*
X149086799Y60434838D01*
X148714833Y60435162D01*
X148371057Y60293117D01*
X148107808Y60030327D01*
X147965162Y59686799D01*
X147964838Y59314833D01*
X148065000Y59072422D01*
X148065000Y54124264D01*
X148128561Y53804723D01*
X148255532Y53614698D01*
X148309566Y53533830D01*
X149065155Y52778241D01*
X149064964Y52560000D01*
X148562114Y52560000D01*
X148330327Y52792192D01*
X147986799Y52934838D01*
X147614833Y52935162D01*
X147271057Y52793117D01*
X147007808Y52530327D01*
X146865162Y52186799D01*
X146864838Y51814833D01*
X147006883Y51471057D01*
X147269673Y51207808D01*
X147613201Y51065162D01*
X147874648Y51064934D01*
X148000000Y51040000D01*
X151200000Y51040000D01*
X151490839Y51097852D01*
X151737401Y51262599D01*
X154039680Y53564878D01*
X154065000Y53564856D01*
X154065000Y49050836D01*
X154064838Y48864853D01*
X154065000Y48864461D01*
X154065000Y44287290D01*
X144835000Y35057290D01*
X144835000Y36199184D01*
X144835162Y36385167D01*
X144693117Y36728943D01*
X144430327Y36992192D01*
X144086799Y37134838D01*
X143714833Y37135162D01*
X143371057Y36993117D01*
X143107808Y36730327D01*
X142965162Y36386799D01*
X142964838Y36014833D01*
X142965000Y36014441D01*
X142965000Y35187290D01*
X140712710Y32935000D01*
X136661102Y32935000D01*
X137232542Y33505443D01*
X137634542Y34473567D01*
X137634744Y34705911D01*
X138594743Y34705911D01*
X138820344Y34159914D01*
X139237717Y33741812D01*
X139783319Y33515258D01*
X140374089Y33514743D01*
X140920086Y33740344D01*
X141338188Y34157717D01*
X141564742Y34703319D01*
X141565257Y35294089D01*
X141339656Y35840086D01*
X140922283Y36258188D01*
X140376681Y36484742D01*
X139785911Y36485257D01*
X139239914Y36259656D01*
X138821812Y35842283D01*
X138595258Y35296681D01*
X138594743Y34705911D01*
X137634744Y34705911D01*
X137635457Y35521834D01*
X137235147Y36490658D01*
X136494557Y37232542D01*
X135526433Y37634542D01*
X134478166Y37635457D01*
X133509342Y37235147D01*
X132817815Y36544827D01*
X133074672Y37163405D01*
X133075326Y37913305D01*
X132788957Y38606372D01*
X132259161Y39137093D01*
X131566595Y39424672D01*
X130816695Y39425326D01*
X130123628Y39138957D01*
X129592907Y38609161D01*
X129305328Y37916595D01*
X129304674Y37166695D01*
X129591043Y36473628D01*
X129593006Y36471661D01*
X129079914Y36259656D01*
X128661812Y35842283D01*
X128435258Y35296681D01*
X128434743Y34705911D01*
X128660344Y34159914D01*
X129077717Y33741812D01*
X129623319Y33515258D01*
X130214089Y33514743D01*
X130760086Y33740344D01*
X131178188Y34157717D01*
X131404742Y34703319D01*
X131405257Y35294089D01*
X131256156Y35654942D01*
X131563305Y35654674D01*
X132256372Y35941043D01*
X132736736Y36420569D01*
X132365458Y35526433D01*
X132364543Y34478166D01*
X132764853Y33509342D01*
X133338193Y32935000D01*
X128560852Y32935000D01*
X128634848Y33113201D01*
X128635172Y33485167D01*
X128493127Y33828943D01*
X128230337Y34092192D01*
X128229945Y34092355D01*
X127935000Y34387300D01*
X127935000Y37699184D01*
X127935162Y37885167D01*
X127793117Y38228943D01*
X127530327Y38492192D01*
X127186799Y38634838D01*
X126814833Y38635162D01*
X126471057Y38493117D01*
X126207808Y38230327D01*
X126065162Y37886799D01*
X126064838Y37514833D01*
X126065000Y37514441D01*
X126065000Y34000010D01*
X126136173Y33642201D01*
X126338855Y33338865D01*
X126742720Y32935000D01*
X116661102Y32935000D01*
X117232542Y33505443D01*
X117634542Y34473567D01*
X117634744Y34705911D01*
X118594743Y34705911D01*
X118820344Y34159914D01*
X119237717Y33741812D01*
X119783319Y33515258D01*
X120374089Y33514743D01*
X120920086Y33740344D01*
X121338188Y34157717D01*
X121564742Y34703319D01*
X121565257Y35294089D01*
X121339656Y35840086D01*
X120922283Y36258188D01*
X120376681Y36484742D01*
X119785911Y36485257D01*
X119239914Y36259656D01*
X118821812Y35842283D01*
X118595258Y35296681D01*
X118594743Y34705911D01*
X117634744Y34705911D01*
X117635457Y35521834D01*
X117235147Y36490658D01*
X116494557Y37232542D01*
X115526433Y37634542D01*
X114478166Y37635457D01*
X113509342Y37235147D01*
X112817815Y36544827D01*
X113074672Y37163405D01*
X113075326Y37913305D01*
X112788957Y38606372D01*
X112259161Y39137093D01*
X111566595Y39424672D01*
X110816695Y39425326D01*
X110123628Y39138957D01*
X109592907Y38609161D01*
X109305328Y37916595D01*
X109304674Y37166695D01*
X109591043Y36473628D01*
X109593006Y36471661D01*
X109079914Y36259656D01*
X108661812Y35842283D01*
X108435258Y35296681D01*
X108434743Y34705911D01*
X108660344Y34159914D01*
X109077717Y33741812D01*
X109623319Y33515258D01*
X110214089Y33514743D01*
X110760086Y33740344D01*
X111178188Y34157717D01*
X111404742Y34703319D01*
X111405257Y35294089D01*
X111256156Y35654942D01*
X111563305Y35654674D01*
X112256372Y35941043D01*
X112736736Y36420569D01*
X112365458Y35526433D01*
X112364543Y34478166D01*
X112764853Y33509342D01*
X113338193Y32935000D01*
X96661102Y32935000D01*
X97232542Y33505443D01*
X97634542Y34473567D01*
X97634744Y34705911D01*
X98594743Y34705911D01*
X98820344Y34159914D01*
X99237717Y33741812D01*
X99783319Y33515258D01*
X100374089Y33514743D01*
X100920086Y33740344D01*
X101338188Y34157717D01*
X101564742Y34703319D01*
X101565257Y35294089D01*
X101339656Y35840086D01*
X100922283Y36258188D01*
X100376681Y36484742D01*
X99785911Y36485257D01*
X99239914Y36259656D01*
X98821812Y35842283D01*
X98595258Y35296681D01*
X98594743Y34705911D01*
X97634744Y34705911D01*
X97635457Y35521834D01*
X97235147Y36490658D01*
X96494557Y37232542D01*
X95526433Y37634542D01*
X94478166Y37635457D01*
X93509342Y37235147D01*
X92817815Y36544827D01*
X93074672Y37163405D01*
X93075326Y37913305D01*
X92788957Y38606372D01*
X92259161Y39137093D01*
X91566595Y39424672D01*
X90816695Y39425326D01*
X90123628Y39138957D01*
X89592907Y38609161D01*
X89305328Y37916595D01*
X89304674Y37166695D01*
X89591043Y36473628D01*
X89593006Y36471661D01*
X89079914Y36259656D01*
X88661812Y35842283D01*
X88435258Y35296681D01*
X88434743Y34705911D01*
X88660344Y34159914D01*
X89077717Y33741812D01*
X89623319Y33515258D01*
X90214089Y33514743D01*
X90760086Y33740344D01*
X91178188Y34157717D01*
X91404742Y34703319D01*
X91405257Y35294089D01*
X91256156Y35654942D01*
X91563305Y35654674D01*
X92256372Y35941043D01*
X92736736Y36420569D01*
X92365458Y35526433D01*
X92364543Y34478166D01*
X92764853Y33509342D01*
X93338193Y32935000D01*
X76661102Y32935000D01*
X77232542Y33505443D01*
X77634542Y34473567D01*
X77634744Y34705911D01*
X78594743Y34705911D01*
X78820344Y34159914D01*
X79237717Y33741812D01*
X79783319Y33515258D01*
X80374089Y33514743D01*
X80920086Y33740344D01*
X81338188Y34157717D01*
X81564742Y34703319D01*
X81565257Y35294089D01*
X81339656Y35840086D01*
X80922283Y36258188D01*
X80376681Y36484742D01*
X79785911Y36485257D01*
X79239914Y36259656D01*
X78821812Y35842283D01*
X78595258Y35296681D01*
X78594743Y34705911D01*
X77634744Y34705911D01*
X77635457Y35521834D01*
X77235147Y36490658D01*
X76494557Y37232542D01*
X75526433Y37634542D01*
X74478166Y37635457D01*
X73509342Y37235147D01*
X72817815Y36544827D01*
X73074672Y37163405D01*
X73075326Y37913305D01*
X72788957Y38606372D01*
X72259161Y39137093D01*
X71566595Y39424672D01*
X70816695Y39425326D01*
X70123628Y39138957D01*
X69592907Y38609161D01*
X69305328Y37916595D01*
X69304674Y37166695D01*
X69591043Y36473628D01*
X69593006Y36471661D01*
X69079914Y36259656D01*
X68661812Y35842283D01*
X68435258Y35296681D01*
X68434743Y34705911D01*
X68660344Y34159914D01*
X69077717Y33741812D01*
X69623319Y33515258D01*
X70214089Y33514743D01*
X70760086Y33740344D01*
X71178188Y34157717D01*
X71404742Y34703319D01*
X71405257Y35294089D01*
X71256156Y35654942D01*
X71563305Y35654674D01*
X72256372Y35941043D01*
X72736736Y36420569D01*
X72365458Y35526433D01*
X72364543Y34478166D01*
X72764853Y33509342D01*
X73338193Y32935000D01*
X56661102Y32935000D01*
X57232542Y33505443D01*
X57634542Y34473567D01*
X57634744Y34705911D01*
X58594743Y34705911D01*
X58820344Y34159914D01*
X59237717Y33741812D01*
X59783319Y33515258D01*
X60374089Y33514743D01*
X60920086Y33740344D01*
X61338188Y34157717D01*
X61564742Y34703319D01*
X61565257Y35294089D01*
X61339656Y35840086D01*
X60922283Y36258188D01*
X60376681Y36484742D01*
X59785911Y36485257D01*
X59239914Y36259656D01*
X58821812Y35842283D01*
X58595258Y35296681D01*
X58594743Y34705911D01*
X57634744Y34705911D01*
X57635457Y35521834D01*
X57235147Y36490658D01*
X56494557Y37232542D01*
X55526433Y37634542D01*
X54478166Y37635457D01*
X53509342Y37235147D01*
X52817815Y36544827D01*
X53074672Y37163405D01*
X53075326Y37913305D01*
X52788957Y38606372D01*
X52259161Y39137093D01*
X51566595Y39424672D01*
X50816695Y39425326D01*
X50123628Y39138957D01*
X49592907Y38609161D01*
X49305328Y37916595D01*
X49304674Y37166695D01*
X49591043Y36473628D01*
X49593006Y36471661D01*
X49079914Y36259656D01*
X48661812Y35842283D01*
X48435258Y35296681D01*
X48434743Y34705911D01*
X48660344Y34159914D01*
X49077717Y33741812D01*
X49623319Y33515258D01*
X50214089Y33514743D01*
X50760086Y33740344D01*
X51178188Y34157717D01*
X51404742Y34703319D01*
X51405257Y35294089D01*
X51256156Y35654942D01*
X51563305Y35654674D01*
X52256372Y35941043D01*
X52736736Y36420569D01*
X52365458Y35526433D01*
X52364543Y34478166D01*
X52764853Y33509342D01*
X53338193Y32935000D01*
X36661102Y32935000D01*
X37232542Y33505443D01*
X37634542Y34473567D01*
X37634744Y34705911D01*
X38594743Y34705911D01*
X38820344Y34159914D01*
X39237717Y33741812D01*
X39783319Y33515258D01*
X40374089Y33514743D01*
X40920086Y33740344D01*
X41338188Y34157717D01*
X41564742Y34703319D01*
X41565257Y35294089D01*
X41339656Y35840086D01*
X40922283Y36258188D01*
X40376681Y36484742D01*
X39785911Y36485257D01*
X39239914Y36259656D01*
X38821812Y35842283D01*
X38595258Y35296681D01*
X38594743Y34705911D01*
X37634744Y34705911D01*
X37635457Y35521834D01*
X37235147Y36490658D01*
X36494557Y37232542D01*
X35526433Y37634542D01*
X34478166Y37635457D01*
X33509342Y37235147D01*
X32817815Y36544827D01*
X33074672Y37163405D01*
X33075326Y37913305D01*
X32788957Y38606372D01*
X32259161Y39137093D01*
X31566595Y39424672D01*
X30816695Y39425326D01*
X30123628Y39138957D01*
X29592907Y38609161D01*
X29305328Y37916595D01*
X29304674Y37166695D01*
X29591043Y36473628D01*
X29593006Y36471661D01*
X29079914Y36259656D01*
X28661812Y35842283D01*
X28435258Y35296681D01*
X28434743Y34705911D01*
X28660344Y34159914D01*
X29077717Y33741812D01*
X29623319Y33515258D01*
X30214089Y33514743D01*
X30760086Y33740344D01*
X31178188Y34157717D01*
X31404742Y34703319D01*
X31405257Y35294089D01*
X31256156Y35654942D01*
X31563305Y35654674D01*
X32256372Y35941043D01*
X32736736Y36420569D01*
X32365458Y35526433D01*
X32364543Y34478166D01*
X32764853Y33509342D01*
X33338193Y32935000D01*
X16661102Y32935000D01*
X17232542Y33505443D01*
X17634542Y34473567D01*
X17634744Y34705911D01*
X18594743Y34705911D01*
X18820344Y34159914D01*
X19237717Y33741812D01*
X19783319Y33515258D01*
X20374089Y33514743D01*
X20920086Y33740344D01*
X21338188Y34157717D01*
X21564742Y34703319D01*
X21565257Y35294089D01*
X21339656Y35840086D01*
X20922283Y36258188D01*
X20376681Y36484742D01*
X19785911Y36485257D01*
X19239914Y36259656D01*
X18821812Y35842283D01*
X18595258Y35296681D01*
X18594743Y34705911D01*
X17634744Y34705911D01*
X17635457Y35521834D01*
X17235147Y36490658D01*
X16494557Y37232542D01*
X15526433Y37634542D01*
X14478166Y37635457D01*
X13509342Y37235147D01*
X12817815Y36544827D01*
X13074672Y37163405D01*
X13075326Y37913305D01*
X12788957Y38606372D01*
X12259161Y39137093D01*
X11566595Y39424672D01*
X10816695Y39425326D01*
X10123628Y39138957D01*
X9592907Y38609161D01*
X9305328Y37916595D01*
X9304674Y37166695D01*
X9591043Y36473628D01*
X9593006Y36471661D01*
X9079914Y36259656D01*
X8661812Y35842283D01*
X8435258Y35296681D01*
X8434743Y34705911D01*
X8660344Y34159914D01*
X9077717Y33741812D01*
X9623319Y33515258D01*
X10214089Y33514743D01*
X10760086Y33740344D01*
X11178188Y34157717D01*
X11404742Y34703319D01*
X11405257Y35294089D01*
X11256156Y35654942D01*
X11563305Y35654674D01*
X12256372Y35941043D01*
X12736736Y36420569D01*
X12365458Y35526433D01*
X12364543Y34478166D01*
X12764853Y33509342D01*
X13338193Y32935000D01*
X3000816Y32935000D01*
X2814833Y32935162D01*
X2471057Y32793117D01*
X2207808Y32530327D01*
X2065162Y32186799D01*
X2064838Y31814833D01*
X2206883Y31471057D01*
X2469673Y31207808D01*
X2813201Y31065162D01*
X3185167Y31064838D01*
X3185559Y31065000D01*
X141097821Y31065000D01*
X141065000Y30900000D01*
X141065000Y24587290D01*
X139612710Y23135000D01*
X130900000Y23135000D01*
X130542191Y23063827D01*
X130238855Y22861145D01*
X127500000Y20122290D01*
X125961145Y21661145D01*
X125657809Y21863827D01*
X125300000Y21935000D01*
X123200816Y21935000D01*
X123014833Y21935162D01*
X122671057Y21793117D01*
X122407808Y21530327D01*
X122265162Y21186799D01*
X122264838Y20814833D01*
X122406883Y20471057D01*
X122669673Y20207808D01*
X123013201Y20065162D01*
X123385167Y20064838D01*
X123385559Y20065000D01*
X124912710Y20065000D01*
X126565000Y18412710D01*
X126565000Y12000000D01*
X126636173Y11642191D01*
X126838855Y11338855D01*
X133138564Y5039146D01*
X133269673Y4907808D01*
X133613201Y4765162D01*
X133985167Y4764838D01*
X134328943Y4906883D01*
X134592192Y5169673D01*
X134734838Y5513201D01*
X134735162Y5885167D01*
X134593117Y6228943D01*
X134330327Y6492192D01*
X134329935Y6492355D01*
X128435000Y12387290D01*
X128435000Y14705289D01*
X128660344Y14159914D01*
X129077717Y13741812D01*
X129623319Y13515258D01*
X130214089Y13514743D01*
X130760086Y13740344D01*
X131178188Y14157717D01*
X131404742Y14703319D01*
X131405257Y15294089D01*
X131256156Y15654942D01*
X131563305Y15654674D01*
X132256372Y15941043D01*
X132736736Y16420569D01*
X132365458Y15526433D01*
X132364543Y14478166D01*
X132764853Y13509342D01*
X133505443Y12767458D01*
X134473567Y12365458D01*
X135521834Y12364543D01*
X136490658Y12764853D01*
X137232542Y13505443D01*
X137634542Y14473567D01*
X137634744Y14705911D01*
X138594743Y14705911D01*
X138820344Y14159914D01*
X139237717Y13741812D01*
X139783319Y13515258D01*
X140374089Y13514743D01*
X140920086Y13740344D01*
X141338188Y14157717D01*
X141564742Y14703319D01*
X141565257Y15294089D01*
X141339656Y15840086D01*
X140922283Y16258188D01*
X140376681Y16484742D01*
X139785911Y16485257D01*
X139239914Y16259656D01*
X138821812Y15842283D01*
X138595258Y15296681D01*
X138594743Y14705911D01*
X137634744Y14705911D01*
X137635457Y15521834D01*
X137235147Y16490658D01*
X137121004Y16605000D01*
X149536761Y16605000D01*
X149591043Y16473628D01*
X149593006Y16471661D01*
X149079914Y16259656D01*
X148661812Y15842283D01*
X148435258Y15296681D01*
X148434743Y14705911D01*
X148660344Y14159914D01*
X149077717Y13741812D01*
X149623319Y13515258D01*
X150214089Y13514743D01*
X150760086Y13740344D01*
X151178188Y14157717D01*
X151404742Y14703319D01*
X151405257Y15294089D01*
X151256156Y15654942D01*
X151563305Y15654674D01*
X152256372Y15941043D01*
X152736736Y16420569D01*
X152365458Y15526433D01*
X152364543Y14478166D01*
X152764853Y13509342D01*
X153505443Y12767458D01*
X154473567Y12365458D01*
X155521834Y12364543D01*
X156490658Y12764853D01*
X157232542Y13505443D01*
X157634542Y14473567D01*
X157634744Y14705911D01*
X158594743Y14705911D01*
X158820344Y14159914D01*
X159237717Y13741812D01*
X159783319Y13515258D01*
X160374089Y13514743D01*
X160920086Y13740344D01*
X161338188Y14157717D01*
X161564742Y14703319D01*
X161565257Y15294089D01*
X161339656Y15840086D01*
X160922283Y16258188D01*
X160376681Y16484742D01*
X159785911Y16485257D01*
X159239914Y16259656D01*
X158821812Y15842283D01*
X158595258Y15296681D01*
X158594743Y14705911D01*
X157634744Y14705911D01*
X157635457Y15521834D01*
X157235147Y16490658D01*
X156494557Y17232542D01*
X155526433Y17634542D01*
X154478166Y17635457D01*
X153509342Y17235147D01*
X152817815Y16544827D01*
X153074672Y17163405D01*
X153075326Y17913305D01*
X152788957Y18606372D01*
X152259161Y19137093D01*
X151566595Y19424672D01*
X150816695Y19425326D01*
X150123628Y19138957D01*
X149592907Y18609161D01*
X149537198Y18475000D01*
X138591747Y18475000D01*
X138606372Y18481043D01*
X139137093Y19010839D01*
X139424672Y19703405D01*
X139424674Y19706695D01*
X155654674Y19706695D01*
X155941043Y19013628D01*
X156470839Y18482907D01*
X157163405Y18195328D01*
X157913305Y18194674D01*
X158606372Y18481043D01*
X159137093Y19010839D01*
X159424672Y19703405D01*
X159425326Y20453305D01*
X159138957Y21146372D01*
X158609161Y21677093D01*
X157916595Y21964672D01*
X157166695Y21965326D01*
X156473628Y21678957D01*
X155942907Y21149161D01*
X155655328Y20456595D01*
X155654674Y19706695D01*
X139424674Y19706695D01*
X139425326Y20453305D01*
X139138957Y21146372D01*
X139020536Y21265000D01*
X140000000Y21265000D01*
X140357809Y21336173D01*
X140661145Y21538855D01*
X142487290Y23365000D01*
X143499184Y23365000D01*
X143685167Y23364838D01*
X144028943Y23506883D01*
X144292192Y23769673D01*
X144434838Y24113201D01*
X144435162Y24485167D01*
X144293117Y24828943D01*
X144030327Y25092192D01*
X143686799Y25234838D01*
X143314833Y25235162D01*
X143314441Y25235000D01*
X142935000Y25235000D01*
X142935000Y30512710D01*
X149387801Y36965511D01*
X149591043Y36473628D01*
X149593006Y36471661D01*
X149079914Y36259656D01*
X148661812Y35842283D01*
X148435258Y35296681D01*
X148434743Y34705911D01*
X148660344Y34159914D01*
X149077717Y33741812D01*
X149623319Y33515258D01*
X150214089Y33514743D01*
X150760086Y33740344D01*
X151178188Y34157717D01*
X151404742Y34703319D01*
X151405257Y35294089D01*
X151256156Y35654942D01*
X151563305Y35654674D01*
X152256372Y35941043D01*
X152736736Y36420569D01*
X152365458Y35526433D01*
X152364543Y34478166D01*
X152764853Y33509342D01*
X153505443Y32767458D01*
X154473567Y32365458D01*
X155521834Y32364543D01*
X156490658Y32764853D01*
X157232542Y33505443D01*
X157634542Y34473567D01*
X157634744Y34705911D01*
X158594743Y34705911D01*
X158820344Y34159914D01*
X159237717Y33741812D01*
X159783319Y33515258D01*
X160374089Y33514743D01*
X160920086Y33740344D01*
X161338188Y34157717D01*
X161564742Y34703319D01*
X161565257Y35294089D01*
X161339656Y35840086D01*
X160922283Y36258188D01*
X160376681Y36484742D01*
X159785911Y36485257D01*
X159239914Y36259656D01*
X158821812Y35842283D01*
X158595258Y35296681D01*
X158594743Y34705911D01*
X157634744Y34705911D01*
X157635457Y35521834D01*
X157235147Y36490658D01*
X157061109Y36665000D01*
X158572766Y36665000D01*
X158813201Y36565162D01*
X159185167Y36564838D01*
X159528943Y36706883D01*
X159792192Y36969673D01*
X159934838Y37313201D01*
X159935162Y37685167D01*
X159793117Y38028943D01*
X159530327Y38292192D01*
X159186799Y38434838D01*
X158814833Y38435162D01*
X158572422Y38335000D01*
X158252920Y38335000D01*
X158606372Y38481043D01*
X159137093Y39010839D01*
X159424672Y39703405D01*
X159425326Y40453305D01*
X159138957Y41146372D01*
X158609161Y41677093D01*
X157916595Y41964672D01*
X157166695Y41965326D01*
X156473628Y41678957D01*
X155942907Y41149161D01*
X155655328Y40456595D01*
X155654674Y39706695D01*
X155911553Y39085000D01*
X152311163Y39085000D01*
X152259161Y39137093D01*
X151764701Y39342411D01*
X155661145Y43238855D01*
X155863827Y43542191D01*
X155935000Y43900000D01*
X155935000Y47742542D01*
X155969673Y47707808D01*
X156313201Y47565162D01*
X156685167Y47564838D01*
X156927578Y47665000D01*
X159572766Y47665000D01*
X159813201Y47565162D01*
X160185167Y47564838D01*
X160528943Y47706883D01*
X160792192Y47969673D01*
X160934838Y48313201D01*
X160935162Y48685167D01*
X160793117Y49028943D01*
X160530327Y49292192D01*
X160186799Y49434838D01*
X160134857Y49434883D01*
X160135162Y49785167D01*
X160035000Y50027578D01*
X160035000Y57172766D01*
X160134838Y57413201D01*
X160135162Y57785167D01*
X159993117Y58128943D01*
X159730327Y58392192D01*
X159386799Y58534838D01*
X159035000Y58535144D01*
X159035000Y59072766D01*
X159134838Y59313201D01*
X159135036Y59540001D01*
X162699993Y59540001D01*
X162990832Y59597853D01*
X163237394Y59762600D01*
X163339672Y59864878D01*
X163385159Y59864838D01*
X163728935Y60006883D01*
X163836222Y60113982D01*
X164140000Y59810204D01*
X164140000Y55262463D01*
X164107808Y55230327D01*
X163965162Y54886799D01*
X163964838Y54514833D01*
X164106883Y54171057D01*
X164369673Y53907808D01*
X164713201Y53765162D01*
X165085167Y53764838D01*
X165428943Y53906883D01*
X165692192Y54169673D01*
X165834838Y54513201D01*
X165835162Y54885167D01*
X165693117Y55228943D01*
X165660000Y55262118D01*
X165660000Y56217498D01*
X165669673Y56207808D01*
X166013201Y56065162D01*
X166385167Y56064838D01*
X166728943Y56206883D01*
X166992192Y56469673D01*
X167134838Y56813201D01*
X167135162Y57185167D01*
X166993117Y57528943D01*
X166960000Y57562118D01*
X166960000Y59600000D01*
X166902148Y59890839D01*
X166902148Y59890840D01*
X166737401Y60137401D01*
X165499071Y61375731D01*
X165861486Y61303642D01*
X165931416Y61303642D01*
X166000000Y61290000D01*
X168930070Y61290000D01*
X169105655Y61255074D01*
X169195225Y61195226D01*
X169255074Y61105655D01*
X169290000Y60930070D01*
X169290000Y6517758D01*
X167824513Y7126282D01*
X166182690Y7127715D01*
X164665296Y6500741D01*
X163503340Y5340810D01*
X162873718Y3824513D01*
X162872285Y2182690D01*
X163480788Y710000D01*
X6517758Y710000D01*
X7126282Y2175487D01*
X7127715Y3817310D01*
X6500741Y5334704D01*
X5340810Y6496660D01*
X3824513Y7126282D01*
X2182690Y7127715D01*
X710000Y6519212D01*
X710000Y8919841D01*
X8699446Y8919841D01*
X8785852Y8663357D01*
X9359336Y8453542D01*
X9969460Y8479161D01*
X10414148Y8663357D01*
X10500554Y8919841D01*
X9600000Y9820395D01*
X8699446Y8919841D01*
X710000Y8919841D01*
X710000Y10240664D01*
X8053542Y10240664D01*
X8079161Y9630540D01*
X8263357Y9185852D01*
X8519841Y9099446D01*
X9420395Y10000000D01*
X9779605Y10000000D01*
X10680159Y9099446D01*
X10936643Y9185852D01*
X11123289Y9696009D01*
X58864735Y9696009D01*
X59097932Y9131629D01*
X59529357Y8699449D01*
X60093330Y8465267D01*
X60703991Y8464735D01*
X61268371Y8697932D01*
X61700551Y9129357D01*
X61934733Y9693330D01*
X61934735Y9696009D01*
X68064735Y9696009D01*
X68297932Y9131629D01*
X68729357Y8699449D01*
X69293330Y8465267D01*
X69903991Y8464735D01*
X70468371Y8697932D01*
X70900551Y9129357D01*
X71134733Y9693330D01*
X71134735Y9696009D01*
X118864735Y9696009D01*
X119097932Y9131629D01*
X119529357Y8699449D01*
X120093330Y8465267D01*
X120703991Y8464735D01*
X121268371Y8697932D01*
X121700551Y9129357D01*
X121934733Y9693330D01*
X121935265Y10303991D01*
X121702068Y10868371D01*
X121270643Y11300551D01*
X120706670Y11534733D01*
X120096009Y11535265D01*
X119531629Y11302068D01*
X119099449Y10870643D01*
X118865267Y10306670D01*
X118864735Y9696009D01*
X71134735Y9696009D01*
X71135265Y10303991D01*
X70902068Y10868371D01*
X70470643Y11300551D01*
X69906670Y11534733D01*
X69296009Y11535265D01*
X68731629Y11302068D01*
X68299449Y10870643D01*
X68065267Y10306670D01*
X68064735Y9696009D01*
X61934735Y9696009D01*
X61935265Y10303991D01*
X61702068Y10868371D01*
X61270643Y11300551D01*
X60706670Y11534733D01*
X60096009Y11535265D01*
X59531629Y11302068D01*
X59099449Y10870643D01*
X58865267Y10306670D01*
X58864735Y9696009D01*
X11123289Y9696009D01*
X11146458Y9759336D01*
X11120839Y10369460D01*
X10936643Y10814148D01*
X10680159Y10900554D01*
X9779605Y10000000D01*
X9420395Y10000000D01*
X8519841Y10900554D01*
X8263357Y10814148D01*
X8053542Y10240664D01*
X710000Y10240664D01*
X710000Y11080159D01*
X8699446Y11080159D01*
X9600000Y10179605D01*
X10500554Y11080159D01*
X10414148Y11336643D01*
X9840664Y11546458D01*
X9230540Y11520839D01*
X8785852Y11336643D01*
X8699446Y11080159D01*
X710000Y11080159D01*
X710000Y39706695D01*
X15654674Y39706695D01*
X15941043Y39013628D01*
X16470839Y38482907D01*
X17163405Y38195328D01*
X17913305Y38194674D01*
X18606372Y38481043D01*
X19137093Y39010839D01*
X19424672Y39703405D01*
X19424674Y39706695D01*
X35654674Y39706695D01*
X35941043Y39013628D01*
X36470839Y38482907D01*
X37163405Y38195328D01*
X37913305Y38194674D01*
X38606372Y38481043D01*
X39137093Y39010839D01*
X39424672Y39703405D01*
X39424674Y39706695D01*
X55654674Y39706695D01*
X55941043Y39013628D01*
X56470839Y38482907D01*
X57163405Y38195328D01*
X57913305Y38194674D01*
X58606372Y38481043D01*
X59137093Y39010839D01*
X59424672Y39703405D01*
X59424674Y39706695D01*
X75654674Y39706695D01*
X75941043Y39013628D01*
X76470839Y38482907D01*
X77163405Y38195328D01*
X77913305Y38194674D01*
X78606372Y38481043D01*
X79137093Y39010839D01*
X79424672Y39703405D01*
X79424674Y39706695D01*
X95654674Y39706695D01*
X95941043Y39013628D01*
X96470839Y38482907D01*
X97163405Y38195328D01*
X97913305Y38194674D01*
X98606372Y38481043D01*
X99137093Y39010839D01*
X99424672Y39703405D01*
X99424674Y39706695D01*
X115654674Y39706695D01*
X115941043Y39013628D01*
X116470839Y38482907D01*
X117163405Y38195328D01*
X117913305Y38194674D01*
X118606372Y38481043D01*
X119137093Y39010839D01*
X119424672Y39703405D01*
X119424674Y39706695D01*
X135654674Y39706695D01*
X135941043Y39013628D01*
X136470839Y38482907D01*
X137163405Y38195328D01*
X137913305Y38194674D01*
X138606372Y38481043D01*
X139137093Y39010839D01*
X139424672Y39703405D01*
X139425326Y40453305D01*
X139138957Y41146372D01*
X138609161Y41677093D01*
X137916595Y41964672D01*
X137166695Y41965326D01*
X136473628Y41678957D01*
X135942907Y41149161D01*
X135655328Y40456595D01*
X135654674Y39706695D01*
X119424674Y39706695D01*
X119425326Y40453305D01*
X119138957Y41146372D01*
X118609161Y41677093D01*
X117916595Y41964672D01*
X117166695Y41965326D01*
X116473628Y41678957D01*
X115942907Y41149161D01*
X115655328Y40456595D01*
X115654674Y39706695D01*
X99424674Y39706695D01*
X99425326Y40453305D01*
X99138957Y41146372D01*
X98609161Y41677093D01*
X97916595Y41964672D01*
X97166695Y41965326D01*
X96473628Y41678957D01*
X95942907Y41149161D01*
X95655328Y40456595D01*
X95654674Y39706695D01*
X79424674Y39706695D01*
X79425326Y40453305D01*
X79138957Y41146372D01*
X78609161Y41677093D01*
X77916595Y41964672D01*
X77166695Y41965326D01*
X76473628Y41678957D01*
X75942907Y41149161D01*
X75655328Y40456595D01*
X75654674Y39706695D01*
X59424674Y39706695D01*
X59425326Y40453305D01*
X59138957Y41146372D01*
X58609161Y41677093D01*
X57916595Y41964672D01*
X57166695Y41965326D01*
X56473628Y41678957D01*
X55942907Y41149161D01*
X55655328Y40456595D01*
X55654674Y39706695D01*
X39424674Y39706695D01*
X39425326Y40453305D01*
X39138957Y41146372D01*
X38609161Y41677093D01*
X37916595Y41964672D01*
X37166695Y41965326D01*
X36473628Y41678957D01*
X35942907Y41149161D01*
X35655328Y40456595D01*
X35654674Y39706695D01*
X19424674Y39706695D01*
X19425326Y40453305D01*
X19138957Y41146372D01*
X18609161Y41677093D01*
X17916595Y41964672D01*
X17166695Y41965326D01*
X16473628Y41678957D01*
X15942907Y41149161D01*
X15655328Y40456595D01*
X15654674Y39706695D01*
X710000Y39706695D01*
X710000Y44814833D01*
X9064838Y44814833D01*
X9206883Y44471057D01*
X9469673Y44207808D01*
X9813201Y44065162D01*
X10185167Y44064838D01*
X10306569Y44115000D01*
X13193178Y44115000D01*
X13313201Y44065162D01*
X13685167Y44064838D01*
X13806569Y44115000D01*
X33193178Y44115000D01*
X33313201Y44065162D01*
X33685167Y44064838D01*
X33806569Y44115000D01*
X53193178Y44115000D01*
X53313201Y44065162D01*
X53685167Y44064838D01*
X53806569Y44115000D01*
X73193178Y44115000D01*
X73313201Y44065162D01*
X73685167Y44064838D01*
X73806569Y44115000D01*
X93193178Y44115000D01*
X93313201Y44065162D01*
X93685167Y44064838D01*
X93806569Y44115000D01*
X113193178Y44115000D01*
X113313201Y44065162D01*
X113685167Y44064838D01*
X113806569Y44115000D01*
X133193178Y44115000D01*
X133313201Y44065162D01*
X133685167Y44064838D01*
X133806569Y44115000D01*
X151693178Y44115000D01*
X151813201Y44065162D01*
X152185167Y44064838D01*
X152528943Y44206883D01*
X152792192Y44469673D01*
X152934838Y44813201D01*
X152935162Y45185167D01*
X152793117Y45528943D01*
X152530327Y45792192D01*
X152186799Y45934838D01*
X151814833Y45935162D01*
X151693431Y45885000D01*
X133806822Y45885000D01*
X133686799Y45934838D01*
X133314833Y45935162D01*
X133193431Y45885000D01*
X113806822Y45885000D01*
X113686799Y45934838D01*
X113314833Y45935162D01*
X113193431Y45885000D01*
X93806822Y45885000D01*
X93686799Y45934838D01*
X93314833Y45935162D01*
X93193431Y45885000D01*
X73806822Y45885000D01*
X73686799Y45934838D01*
X73314833Y45935162D01*
X73193431Y45885000D01*
X53806822Y45885000D01*
X53686799Y45934838D01*
X53314833Y45935162D01*
X53193431Y45885000D01*
X33806822Y45885000D01*
X33686799Y45934838D01*
X33314833Y45935162D01*
X33193431Y45885000D01*
X13806822Y45885000D01*
X13686799Y45934838D01*
X13314833Y45935162D01*
X13193431Y45885000D01*
X10306822Y45885000D01*
X10186799Y45934838D01*
X9814833Y45935162D01*
X9471057Y45793117D01*
X9207808Y45530327D01*
X9065162Y45186799D01*
X9064838Y44814833D01*
X710000Y44814833D01*
X710000Y51814833D01*
X2064838Y51814833D01*
X2206883Y51471057D01*
X2469673Y51207808D01*
X2813201Y51065162D01*
X3185167Y51064838D01*
X3185559Y51065000D01*
X141300000Y51065000D01*
X141657809Y51136173D01*
X141961145Y51338855D01*
X145460854Y54838564D01*
X145592192Y54969673D01*
X145734838Y55313201D01*
X145735162Y55685167D01*
X145593117Y56028943D01*
X145330327Y56292192D01*
X144986799Y56434838D01*
X144614833Y56435162D01*
X144271057Y56293117D01*
X144007808Y56030327D01*
X144007645Y56029935D01*
X140912710Y52935000D01*
X136661102Y52935000D01*
X137232542Y53505443D01*
X137634542Y54473567D01*
X137634744Y54705911D01*
X138594743Y54705911D01*
X138820344Y54159914D01*
X139237717Y53741812D01*
X139783319Y53515258D01*
X140374089Y53514743D01*
X140920086Y53740344D01*
X141338188Y54157717D01*
X141564742Y54703319D01*
X141565257Y55294089D01*
X141339656Y55840086D01*
X140922283Y56258188D01*
X140376681Y56484742D01*
X139785911Y56485257D01*
X139239914Y56259656D01*
X138821812Y55842283D01*
X138595258Y55296681D01*
X138594743Y54705911D01*
X137634744Y54705911D01*
X137635457Y55521834D01*
X137235147Y56490658D01*
X136494557Y57232542D01*
X135526433Y57634542D01*
X134478166Y57635457D01*
X133509342Y57235147D01*
X132817815Y56544827D01*
X133074672Y57163405D01*
X133075326Y57913305D01*
X132788957Y58606372D01*
X132259161Y59137093D01*
X131566595Y59424672D01*
X130816695Y59425326D01*
X130123628Y59138957D01*
X129592907Y58609161D01*
X129305328Y57916595D01*
X129304674Y57166695D01*
X129591043Y56473628D01*
X129593006Y56471661D01*
X129079914Y56259656D01*
X128661812Y55842283D01*
X128435258Y55296681D01*
X128434743Y54705911D01*
X128660344Y54159914D01*
X129077717Y53741812D01*
X129623319Y53515258D01*
X130214089Y53514743D01*
X130760086Y53740344D01*
X131178188Y54157717D01*
X131404742Y54703319D01*
X131405257Y55294089D01*
X131256156Y55654942D01*
X131563305Y55654674D01*
X132256372Y55941043D01*
X132736736Y56420569D01*
X132365458Y55526433D01*
X132364543Y54478166D01*
X132764853Y53509342D01*
X133338193Y52935000D01*
X116661102Y52935000D01*
X117232542Y53505443D01*
X117634542Y54473567D01*
X117634744Y54705911D01*
X118594743Y54705911D01*
X118820344Y54159914D01*
X119237717Y53741812D01*
X119783319Y53515258D01*
X120374089Y53514743D01*
X120920086Y53740344D01*
X121338188Y54157717D01*
X121564742Y54703319D01*
X121565257Y55294089D01*
X121339656Y55840086D01*
X120922283Y56258188D01*
X120376681Y56484742D01*
X119785911Y56485257D01*
X119239914Y56259656D01*
X118821812Y55842283D01*
X118595258Y55296681D01*
X118594743Y54705911D01*
X117634744Y54705911D01*
X117635457Y55521834D01*
X117235147Y56490658D01*
X116494557Y57232542D01*
X115526433Y57634542D01*
X114478166Y57635457D01*
X113509342Y57235147D01*
X112817815Y56544827D01*
X113074672Y57163405D01*
X113075326Y57913305D01*
X112788957Y58606372D01*
X112259161Y59137093D01*
X111566595Y59424672D01*
X110816695Y59425326D01*
X110123628Y59138957D01*
X109592907Y58609161D01*
X109305328Y57916595D01*
X109304674Y57166695D01*
X109591043Y56473628D01*
X109593006Y56471661D01*
X109079914Y56259656D01*
X108661812Y55842283D01*
X108435258Y55296681D01*
X108434743Y54705911D01*
X108660344Y54159914D01*
X109077717Y53741812D01*
X109623319Y53515258D01*
X110214089Y53514743D01*
X110760086Y53740344D01*
X111178188Y54157717D01*
X111404742Y54703319D01*
X111405257Y55294089D01*
X111256156Y55654942D01*
X111563305Y55654674D01*
X112256372Y55941043D01*
X112736736Y56420569D01*
X112365458Y55526433D01*
X112364543Y54478166D01*
X112764853Y53509342D01*
X113338193Y52935000D01*
X96661102Y52935000D01*
X97232542Y53505443D01*
X97634542Y54473567D01*
X97634744Y54705911D01*
X98594743Y54705911D01*
X98820344Y54159914D01*
X99237717Y53741812D01*
X99783319Y53515258D01*
X100374089Y53514743D01*
X100920086Y53740344D01*
X101338188Y54157717D01*
X101564742Y54703319D01*
X101565257Y55294089D01*
X101339656Y55840086D01*
X100922283Y56258188D01*
X100376681Y56484742D01*
X99785911Y56485257D01*
X99239914Y56259656D01*
X98821812Y55842283D01*
X98595258Y55296681D01*
X98594743Y54705911D01*
X97634744Y54705911D01*
X97635457Y55521834D01*
X97235147Y56490658D01*
X96494557Y57232542D01*
X95526433Y57634542D01*
X94478166Y57635457D01*
X93509342Y57235147D01*
X92817815Y56544827D01*
X93074672Y57163405D01*
X93075326Y57913305D01*
X92788957Y58606372D01*
X92259161Y59137093D01*
X91566595Y59424672D01*
X90816695Y59425326D01*
X90123628Y59138957D01*
X89592907Y58609161D01*
X89305328Y57916595D01*
X89304674Y57166695D01*
X89591043Y56473628D01*
X89593006Y56471661D01*
X89079914Y56259656D01*
X88661812Y55842283D01*
X88435258Y55296681D01*
X88434743Y54705911D01*
X88660344Y54159914D01*
X89077717Y53741812D01*
X89623319Y53515258D01*
X90214089Y53514743D01*
X90760086Y53740344D01*
X91178188Y54157717D01*
X91404742Y54703319D01*
X91405257Y55294089D01*
X91256156Y55654942D01*
X91563305Y55654674D01*
X92256372Y55941043D01*
X92736736Y56420569D01*
X92365458Y55526433D01*
X92364543Y54478166D01*
X92764853Y53509342D01*
X93338193Y52935000D01*
X76661102Y52935000D01*
X77232542Y53505443D01*
X77634542Y54473567D01*
X77634744Y54705911D01*
X78594743Y54705911D01*
X78820344Y54159914D01*
X79237717Y53741812D01*
X79783319Y53515258D01*
X80374089Y53514743D01*
X80920086Y53740344D01*
X81338188Y54157717D01*
X81564742Y54703319D01*
X81565257Y55294089D01*
X81339656Y55840086D01*
X80922283Y56258188D01*
X80376681Y56484742D01*
X79785911Y56485257D01*
X79239914Y56259656D01*
X78821812Y55842283D01*
X78595258Y55296681D01*
X78594743Y54705911D01*
X77634744Y54705911D01*
X77635457Y55521834D01*
X77235147Y56490658D01*
X76494557Y57232542D01*
X75526433Y57634542D01*
X74478166Y57635457D01*
X73509342Y57235147D01*
X72817815Y56544827D01*
X73074672Y57163405D01*
X73075326Y57913305D01*
X72788957Y58606372D01*
X72259161Y59137093D01*
X71566595Y59424672D01*
X70816695Y59425326D01*
X70123628Y59138957D01*
X69592907Y58609161D01*
X69305328Y57916595D01*
X69304674Y57166695D01*
X69591043Y56473628D01*
X69593006Y56471661D01*
X69079914Y56259656D01*
X68661812Y55842283D01*
X68435258Y55296681D01*
X68434743Y54705911D01*
X68660344Y54159914D01*
X69077717Y53741812D01*
X69623319Y53515258D01*
X70214089Y53514743D01*
X70760086Y53740344D01*
X71178188Y54157717D01*
X71404742Y54703319D01*
X71405257Y55294089D01*
X71256156Y55654942D01*
X71563305Y55654674D01*
X72256372Y55941043D01*
X72736736Y56420569D01*
X72365458Y55526433D01*
X72364543Y54478166D01*
X72764853Y53509342D01*
X73338193Y52935000D01*
X56661102Y52935000D01*
X57232542Y53505443D01*
X57634542Y54473567D01*
X57634744Y54705911D01*
X58594743Y54705911D01*
X58820344Y54159914D01*
X59237717Y53741812D01*
X59783319Y53515258D01*
X60374089Y53514743D01*
X60920086Y53740344D01*
X61338188Y54157717D01*
X61564742Y54703319D01*
X61565257Y55294089D01*
X61339656Y55840086D01*
X60922283Y56258188D01*
X60376681Y56484742D01*
X59785911Y56485257D01*
X59239914Y56259656D01*
X58821812Y55842283D01*
X58595258Y55296681D01*
X58594743Y54705911D01*
X57634744Y54705911D01*
X57635457Y55521834D01*
X57235147Y56490658D01*
X56494557Y57232542D01*
X55526433Y57634542D01*
X54478166Y57635457D01*
X53509342Y57235147D01*
X52817815Y56544827D01*
X53074672Y57163405D01*
X53075326Y57913305D01*
X52788957Y58606372D01*
X52259161Y59137093D01*
X51566595Y59424672D01*
X50816695Y59425326D01*
X50123628Y59138957D01*
X49592907Y58609161D01*
X49305328Y57916595D01*
X49304674Y57166695D01*
X49591043Y56473628D01*
X49593006Y56471661D01*
X49079914Y56259656D01*
X48661812Y55842283D01*
X48435258Y55296681D01*
X48434743Y54705911D01*
X48660344Y54159914D01*
X49077717Y53741812D01*
X49623319Y53515258D01*
X50214089Y53514743D01*
X50760086Y53740344D01*
X51178188Y54157717D01*
X51404742Y54703319D01*
X51405257Y55294089D01*
X51256156Y55654942D01*
X51563305Y55654674D01*
X52256372Y55941043D01*
X52736736Y56420569D01*
X52365458Y55526433D01*
X52364543Y54478166D01*
X52764853Y53509342D01*
X53338193Y52935000D01*
X36661102Y52935000D01*
X37232542Y53505443D01*
X37634542Y54473567D01*
X37634744Y54705911D01*
X38594743Y54705911D01*
X38820344Y54159914D01*
X39237717Y53741812D01*
X39783319Y53515258D01*
X40374089Y53514743D01*
X40920086Y53740344D01*
X41338188Y54157717D01*
X41564742Y54703319D01*
X41565257Y55294089D01*
X41339656Y55840086D01*
X40922283Y56258188D01*
X40376681Y56484742D01*
X39785911Y56485257D01*
X39239914Y56259656D01*
X38821812Y55842283D01*
X38595258Y55296681D01*
X38594743Y54705911D01*
X37634744Y54705911D01*
X37635457Y55521834D01*
X37235147Y56490658D01*
X36494557Y57232542D01*
X35526433Y57634542D01*
X34478166Y57635457D01*
X33509342Y57235147D01*
X32817815Y56544827D01*
X33074672Y57163405D01*
X33075326Y57913305D01*
X32788957Y58606372D01*
X32259161Y59137093D01*
X31566595Y59424672D01*
X30816695Y59425326D01*
X30123628Y59138957D01*
X29592907Y58609161D01*
X29305328Y57916595D01*
X29304674Y57166695D01*
X29591043Y56473628D01*
X29593006Y56471661D01*
X29079914Y56259656D01*
X28661812Y55842283D01*
X28435258Y55296681D01*
X28434743Y54705911D01*
X28660344Y54159914D01*
X29077717Y53741812D01*
X29623319Y53515258D01*
X30214089Y53514743D01*
X30760086Y53740344D01*
X31178188Y54157717D01*
X31404742Y54703319D01*
X31405257Y55294089D01*
X31256156Y55654942D01*
X31563305Y55654674D01*
X32256372Y55941043D01*
X32736736Y56420569D01*
X32365458Y55526433D01*
X32364543Y54478166D01*
X32764853Y53509342D01*
X33338193Y52935000D01*
X16661102Y52935000D01*
X17232542Y53505443D01*
X17634542Y54473567D01*
X17634744Y54705911D01*
X18594743Y54705911D01*
X18820344Y54159914D01*
X19237717Y53741812D01*
X19783319Y53515258D01*
X20374089Y53514743D01*
X20920086Y53740344D01*
X21338188Y54157717D01*
X21564742Y54703319D01*
X21565257Y55294089D01*
X21339656Y55840086D01*
X20922283Y56258188D01*
X20376681Y56484742D01*
X19785911Y56485257D01*
X19239914Y56259656D01*
X18821812Y55842283D01*
X18595258Y55296681D01*
X18594743Y54705911D01*
X17634744Y54705911D01*
X17635457Y55521834D01*
X17235147Y56490658D01*
X16494557Y57232542D01*
X15526433Y57634542D01*
X14478166Y57635457D01*
X13509342Y57235147D01*
X12817815Y56544827D01*
X13074672Y57163405D01*
X13075326Y57913305D01*
X12788957Y58606372D01*
X12259161Y59137093D01*
X11566595Y59424672D01*
X10816695Y59425326D01*
X10123628Y59138957D01*
X9592907Y58609161D01*
X9305328Y57916595D01*
X9304674Y57166695D01*
X9591043Y56473628D01*
X9593006Y56471661D01*
X9079914Y56259656D01*
X8661812Y55842283D01*
X8435258Y55296681D01*
X8434743Y54705911D01*
X8660344Y54159914D01*
X9077717Y53741812D01*
X9623319Y53515258D01*
X10214089Y53514743D01*
X10760086Y53740344D01*
X11178188Y54157717D01*
X11404742Y54703319D01*
X11405257Y55294089D01*
X11256156Y55654942D01*
X11563305Y55654674D01*
X12256372Y55941043D01*
X12736736Y56420569D01*
X12365458Y55526433D01*
X12364543Y54478166D01*
X12764853Y53509342D01*
X13338193Y52935000D01*
X3000816Y52935000D01*
X2814833Y52935162D01*
X2471057Y52793117D01*
X2207808Y52530327D01*
X2065162Y52186799D01*
X2064838Y51814833D01*
X710000Y51814833D01*
X710000Y59706695D01*
X15654674Y59706695D01*
X15941043Y59013628D01*
X16470839Y58482907D01*
X17163405Y58195328D01*
X17913305Y58194674D01*
X18606372Y58481043D01*
X19137093Y59010839D01*
X19424672Y59703405D01*
X19424674Y59706695D01*
X35654674Y59706695D01*
X35941043Y59013628D01*
X36470839Y58482907D01*
X37163405Y58195328D01*
X37913305Y58194674D01*
X38606372Y58481043D01*
X39137093Y59010839D01*
X39424672Y59703405D01*
X39424674Y59706695D01*
X55654674Y59706695D01*
X55941043Y59013628D01*
X56470839Y58482907D01*
X57163405Y58195328D01*
X57913305Y58194674D01*
X58606372Y58481043D01*
X59137093Y59010839D01*
X59424672Y59703405D01*
X59424674Y59706695D01*
X75654674Y59706695D01*
X75941043Y59013628D01*
X76470839Y58482907D01*
X77163405Y58195328D01*
X77913305Y58194674D01*
X78606372Y58481043D01*
X79137093Y59010839D01*
X79424672Y59703405D01*
X79425326Y60453305D01*
X79138957Y61146372D01*
X78609161Y61677093D01*
X77916595Y61964672D01*
X77166695Y61965326D01*
X76473628Y61678957D01*
X75942907Y61149161D01*
X75655328Y60456595D01*
X75654674Y59706695D01*
X59424674Y59706695D01*
X59425326Y60453305D01*
X59138957Y61146372D01*
X58609161Y61677093D01*
X57916595Y61964672D01*
X57166695Y61965326D01*
X56473628Y61678957D01*
X55942907Y61149161D01*
X55655328Y60456595D01*
X55654674Y59706695D01*
X39424674Y59706695D01*
X39425326Y60453305D01*
X39138957Y61146372D01*
X38609161Y61677093D01*
X37916595Y61964672D01*
X37166695Y61965326D01*
X36473628Y61678957D01*
X35942907Y61149161D01*
X35655328Y60456595D01*
X35654674Y59706695D01*
X19424674Y59706695D01*
X19425326Y60453305D01*
X19138957Y61146372D01*
X18609161Y61677093D01*
X17916595Y61964672D01*
X17166695Y61965326D01*
X16473628Y61678957D01*
X15942907Y61149161D01*
X15655328Y60456595D01*
X15654674Y59706695D01*
X710000Y59706695D01*
X710000Y64817373D01*
X9065358Y64817373D01*
X9207403Y64473597D01*
X9470193Y64210348D01*
X9813721Y64067702D01*
X10185687Y64067378D01*
X10307089Y64117540D01*
X13193178Y64117540D01*
X13313201Y64067702D01*
X13685167Y64067378D01*
X13806569Y64117540D01*
X33193178Y64117540D01*
X33313201Y64067702D01*
X33685167Y64067378D01*
X33806569Y64117540D01*
X53193178Y64117540D01*
X53313201Y64067702D01*
X53685167Y64067378D01*
X53806569Y64117540D01*
X73193178Y64117540D01*
X73313201Y64067702D01*
X73685167Y64067378D01*
X73806569Y64117540D01*
X84158065Y64117540D01*
X82665296Y63500741D01*
X81503340Y62340810D01*
X80873718Y60824513D01*
X80872285Y59182690D01*
X81499259Y57665296D01*
X82659190Y56503340D01*
X84175487Y55873718D01*
X85817310Y55872285D01*
X87334704Y56499259D01*
X88496660Y57659190D01*
X89126282Y59175487D01*
X89126745Y59706695D01*
X95654674Y59706695D01*
X95941043Y59013628D01*
X96470839Y58482907D01*
X97163405Y58195328D01*
X97913305Y58194674D01*
X98606372Y58481043D01*
X99137093Y59010839D01*
X99424672Y59703405D01*
X99424674Y59706695D01*
X115654674Y59706695D01*
X115941043Y59013628D01*
X116470839Y58482907D01*
X117163405Y58195328D01*
X117913305Y58194674D01*
X118606372Y58481043D01*
X119137093Y59010839D01*
X119424672Y59703405D01*
X119424674Y59706695D01*
X135654674Y59706695D01*
X135941043Y59013628D01*
X136470839Y58482907D01*
X137163405Y58195328D01*
X137913305Y58194674D01*
X138606372Y58481043D01*
X139137093Y59010839D01*
X139424672Y59703405D01*
X139425326Y60453305D01*
X139138957Y61146372D01*
X138609161Y61677093D01*
X137916595Y61964672D01*
X137166695Y61965326D01*
X136473628Y61678957D01*
X135942907Y61149161D01*
X135655328Y60456595D01*
X135654674Y59706695D01*
X119424674Y59706695D01*
X119425326Y60453305D01*
X119138957Y61146372D01*
X118609161Y61677093D01*
X117916595Y61964672D01*
X117166695Y61965326D01*
X116473628Y61678957D01*
X115942907Y61149161D01*
X115655328Y60456595D01*
X115654674Y59706695D01*
X99424674Y59706695D01*
X99425326Y60453305D01*
X99138957Y61146372D01*
X98609161Y61677093D01*
X97916595Y61964672D01*
X97166695Y61965326D01*
X96473628Y61678957D01*
X95942907Y61149161D01*
X95655328Y60456595D01*
X95654674Y59706695D01*
X89126745Y59706695D01*
X89127715Y60817310D01*
X88500741Y62334704D01*
X87340810Y63496660D01*
X85845566Y64117540D01*
X93093178Y64117540D01*
X93213201Y64067702D01*
X93585167Y64067378D01*
X93706569Y64117540D01*
X113193178Y64117540D01*
X113313201Y64067702D01*
X113685167Y64067378D01*
X113806569Y64117540D01*
X133193178Y64117540D01*
X133313201Y64067702D01*
X133685167Y64067378D01*
X133806569Y64117540D01*
X143587061Y64117540D01*
X143713201Y64065162D01*
X144085167Y64064838D01*
X144428943Y64206883D01*
X144692192Y64469673D01*
X144834838Y64813201D01*
X144835162Y65185167D01*
X144693117Y65528943D01*
X144430327Y65792192D01*
X144086799Y65934838D01*
X143714833Y65935162D01*
X143599579Y65887540D01*
X133806822Y65887540D01*
X133686799Y65937378D01*
X133314833Y65937702D01*
X133193431Y65887540D01*
X113806822Y65887540D01*
X113686799Y65937378D01*
X113314833Y65937702D01*
X113193431Y65887540D01*
X93706822Y65887540D01*
X93586799Y65937378D01*
X93214833Y65937702D01*
X93093431Y65887540D01*
X73806822Y65887540D01*
X73686799Y65937378D01*
X73314833Y65937702D01*
X73193431Y65887540D01*
X53806822Y65887540D01*
X53686799Y65937378D01*
X53314833Y65937702D01*
X53193431Y65887540D01*
X33806822Y65887540D01*
X33686799Y65937378D01*
X33314833Y65937702D01*
X33193431Y65887540D01*
X13806822Y65887540D01*
X13686799Y65937378D01*
X13314833Y65937702D01*
X13193431Y65887540D01*
X10307342Y65887540D01*
X10187319Y65937378D01*
X9815353Y65937702D01*
X9471577Y65795657D01*
X9208328Y65532867D01*
X9065682Y65189339D01*
X9065358Y64817373D01*
X710000Y64817373D01*
X710000Y99706695D01*
X15654674Y99706695D01*
X15941043Y99013628D01*
X16470839Y98482907D01*
X17163405Y98195328D01*
X17913305Y98194674D01*
X18606372Y98481043D01*
X19137093Y99010839D01*
X19424672Y99703405D01*
X19424674Y99706695D01*
X35654674Y99706695D01*
X35941043Y99013628D01*
X36470839Y98482907D01*
X37163405Y98195328D01*
X37913305Y98194674D01*
X38606372Y98481043D01*
X39137093Y99010839D01*
X39424672Y99703405D01*
X39424674Y99706695D01*
X55654674Y99706695D01*
X55941043Y99013628D01*
X56470839Y98482907D01*
X57163405Y98195328D01*
X57913305Y98194674D01*
X58606372Y98481043D01*
X59137093Y99010839D01*
X59424672Y99703405D01*
X59424674Y99706695D01*
X75654674Y99706695D01*
X75941043Y99013628D01*
X76470839Y98482907D01*
X77163405Y98195328D01*
X77913305Y98194674D01*
X78606372Y98481043D01*
X79137093Y99010839D01*
X79424672Y99703405D01*
X79424674Y99706695D01*
X95654674Y99706695D01*
X95941043Y99013628D01*
X96470839Y98482907D01*
X97163405Y98195328D01*
X97913305Y98194674D01*
X98606372Y98481043D01*
X99137093Y99010839D01*
X99424672Y99703405D01*
X99424674Y99706695D01*
X115654674Y99706695D01*
X115941043Y99013628D01*
X116470839Y98482907D01*
X117163405Y98195328D01*
X117913305Y98194674D01*
X118606372Y98481043D01*
X119137093Y99010839D01*
X119424672Y99703405D01*
X119424674Y99706695D01*
X135654674Y99706695D01*
X135941043Y99013628D01*
X136470839Y98482907D01*
X137163405Y98195328D01*
X137913305Y98194674D01*
X138606372Y98481043D01*
X139137093Y99010839D01*
X139424672Y99703405D01*
X139425326Y100453305D01*
X139138957Y101146372D01*
X138609161Y101677093D01*
X137916595Y101964672D01*
X137166695Y101965326D01*
X136473628Y101678957D01*
X135942907Y101149161D01*
X135655328Y100456595D01*
X135654674Y99706695D01*
X119424674Y99706695D01*
X119425326Y100453305D01*
X119138957Y101146372D01*
X118609161Y101677093D01*
X117916595Y101964672D01*
X117166695Y101965326D01*
X116473628Y101678957D01*
X115942907Y101149161D01*
X115655328Y100456595D01*
X115654674Y99706695D01*
X99424674Y99706695D01*
X99425326Y100453305D01*
X99138957Y101146372D01*
X98609161Y101677093D01*
X97916595Y101964672D01*
X97166695Y101965326D01*
X96473628Y101678957D01*
X95942907Y101149161D01*
X95655328Y100456595D01*
X95654674Y99706695D01*
X79424674Y99706695D01*
X79425326Y100453305D01*
X79138957Y101146372D01*
X78609161Y101677093D01*
X77916595Y101964672D01*
X77166695Y101965326D01*
X76473628Y101678957D01*
X75942907Y101149161D01*
X75655328Y100456595D01*
X75654674Y99706695D01*
X59424674Y99706695D01*
X59425326Y100453305D01*
X59138957Y101146372D01*
X58609161Y101677093D01*
X57916595Y101964672D01*
X57166695Y101965326D01*
X56473628Y101678957D01*
X55942907Y101149161D01*
X55655328Y100456595D01*
X55654674Y99706695D01*
X39424674Y99706695D01*
X39425326Y100453305D01*
X39138957Y101146372D01*
X38609161Y101677093D01*
X37916595Y101964672D01*
X37166695Y101965326D01*
X36473628Y101678957D01*
X35942907Y101149161D01*
X35655328Y100456595D01*
X35654674Y99706695D01*
X19424674Y99706695D01*
X19425326Y100453305D01*
X19138957Y101146372D01*
X18609161Y101677093D01*
X17916595Y101964672D01*
X17166695Y101965326D01*
X16473628Y101678957D01*
X15942907Y101149161D01*
X15655328Y100456595D01*
X15654674Y99706695D01*
X710000Y99706695D01*
X710000Y103482242D01*
X2175487Y102873718D01*
X3817310Y102872285D01*
X5334704Y103499259D01*
X6496660Y104659190D01*
X6562343Y104817373D01*
X9064838Y104817373D01*
X9206883Y104473597D01*
X9469673Y104210348D01*
X9813201Y104067702D01*
X10185167Y104067378D01*
X10306569Y104117540D01*
X32193178Y104117540D01*
X32313201Y104067702D01*
X32685167Y104067378D01*
X32806569Y104117540D01*
X52193178Y104117540D01*
X52313201Y104067702D01*
X52685167Y104067378D01*
X52806569Y104117540D01*
X72193178Y104117540D01*
X72313201Y104067702D01*
X72685167Y104067378D01*
X72806569Y104117540D01*
X92193178Y104117540D01*
X92313201Y104067702D01*
X92685167Y104067378D01*
X92806569Y104117540D01*
X112193178Y104117540D01*
X112313201Y104067702D01*
X112685167Y104067378D01*
X112806569Y104117540D01*
X132193178Y104117540D01*
X132313201Y104067702D01*
X132685167Y104067378D01*
X133028943Y104209423D01*
X133292192Y104472213D01*
X133434838Y104815741D01*
X133435162Y105187707D01*
X133293117Y105531483D01*
X133030327Y105794732D01*
X132686799Y105937378D01*
X132314833Y105937702D01*
X132193431Y105887540D01*
X112806822Y105887540D01*
X112686799Y105937378D01*
X112314833Y105937702D01*
X112193431Y105887540D01*
X92806822Y105887540D01*
X92686799Y105937378D01*
X92314833Y105937702D01*
X92193431Y105887540D01*
X72806822Y105887540D01*
X72686799Y105937378D01*
X72314833Y105937702D01*
X72193431Y105887540D01*
X52806822Y105887540D01*
X52686799Y105937378D01*
X52314833Y105937702D01*
X52193431Y105887540D01*
X32806822Y105887540D01*
X32686799Y105937378D01*
X32314833Y105937702D01*
X32193431Y105887540D01*
X10306822Y105887540D01*
X10186799Y105937378D01*
X9814833Y105937702D01*
X9471057Y105795657D01*
X9207808Y105532867D01*
X9065162Y105189339D01*
X9064838Y104817373D01*
X6562343Y104817373D01*
X7126282Y106175487D01*
X7127715Y107817310D01*
X6519212Y109290000D01*
X163482242Y109290000D01*
X162873718Y107824513D01*
M02*
