M48
;DRILL file {KiCad 4.0.7} date 
;FORMAT={-:-/ absolute / metric / decimal}
FMAT,2
METRIC,TZ
T1C0.400
T2C1.000
T3C1.500
T4C1.700
T5C3.200
T6C4.000
%
G90
G05
M71
T1
X1.5Y102.5
X1.5Y90.
X1.5Y77.5
X1.5Y65.
X1.5Y52.5
X1.5Y40.
X1.5Y27.5
X1.5Y15.
X1.5Y7.5
X3.Y92.
X3.Y72.
X3.Y52.
X3.Y32.
X6.35Y94.
X7.5Y108.75
X7.5Y83.5
X7.5Y1.5
X7.75Y63.
X8.5Y43.5
X9.84Y85.003
X10.Y105.003
X10.Y89.
X10.Y72.5
X10.Y67.
X10.Y48.5
X10.Y45.
X10.001Y65.003
X10.5Y81.75
X10.5Y61.25
X10.5Y41.5
X12.5Y108.75
X13.5Y65.003
X13.5Y45.
X14.4Y86.4
X15.Y102.5
X15.Y89.
X15.Y67.
X15.Y48.5
X15.Y27.5
X15.Y17.5
X17.5Y72.5
X20.Y102.5
X20.Y85.05
X20.Y80.
X20.Y60.
X20.Y40.
X22.5Y1.5
X25.Y93.
X25.Y72.5
X27.5Y108.75
X30.Y89.
X30.Y84.5
X30.Y80.
X30.Y72.5
X30.Y67.
X30.Y60.
X30.Y48.5
X30.Y40.
X30.Y27.5
X32.5Y105.003
X33.5Y65.003
X33.5Y45.
X34.4Y86.4
X35.Y102.5
X35.Y89.
X35.Y67.
X35.Y48.5
X35.Y27.5
X37.5Y72.5
X37.5Y1.5
X40.Y102.5
X40.Y80.
X40.Y60.
X40.Y40.
X40.Y17.5
X42.5Y108.75
X45.Y93.
X50.Y89.
X50.Y84.5
X50.Y80.
X50.Y72.5
X50.Y67.
X50.Y60.
X50.Y48.5
X50.Y40.
X50.Y27.5
X51.9Y85.3
X52.5Y105.003
X52.5Y1.5
X53.5Y65.003
X53.5Y45.
X54.4Y86.4
X55.Y102.5
X55.Y89.
X55.Y67.
X55.Y48.5
X55.Y27.5
X57.5Y108.75
X57.5Y72.5
X60.Y102.5
X60.Y80.
X60.Y60.
X60.Y40.
X65.Y93.
X65.Y17.5
X67.5Y1.5
X70.Y89.
X70.Y80.
X70.Y72.5
X70.Y67.
X70.Y60.
X70.Y48.5
X70.Y40.
X70.Y27.5
X72.5Y108.75
X72.5Y105.003
X73.5Y65.003
X73.5Y45.
X74.4Y86.4
X75.Y102.5
X75.Y89.
X75.Y67.
X75.Y48.5
X75.Y27.5
X77.5Y72.5
X80.Y102.5
X80.Y80.
X80.Y60.
X80.Y40.
X82.5Y1.5
X85.Y93.
X85.Y72.5
X87.5Y108.75
X90.Y89.
X90.Y80.
X90.Y67.
X90.Y60.
X90.Y48.5
X90.Y40.
X90.Y27.5
X90.Y17.5
X90.25Y72.75
X92.5Y105.003
X93.4Y65.003
X93.5Y45.
X94.4Y86.4
X95.Y102.5
X95.Y89.
X95.Y80.
X95.Y67.
X95.Y48.5
X95.Y27.5
X97.5Y1.5
X100.Y102.5
X100.Y60.
X100.Y40.
X101.Y80.
X101.Y72.5
X102.5Y108.75
X105.Y93.
X110.Y89.
X110.Y67.
X110.Y60.
X110.Y48.5
X110.Y40.
X110.Y27.5
X112.5Y105.003
X112.5Y1.5
X113.5Y65.003
X113.5Y45.
X114.4Y86.4
X115.Y102.5
X115.Y89.
X115.Y67.
X115.Y60.
X115.Y48.5
X115.Y27.5
X115.Y17.5
X117.5Y108.75
X120.Y60.
X122.5Y102.5
X122.5Y40.
X122.5Y27.5
X123.2Y21.
X125.Y93.
X125.Y89.
X125.Y67.
X125.Y60.
X125.Y48.5
X125.Y17.5
X125.Y1.5
X127.Y86.4
X127.Y37.7
X127.7Y33.3
X130.Y67.
X130.Y60.
X130.Y48.5
X131.9Y85.4
X132.5Y108.75
X132.5Y105.003
X132.5Y102.5
X133.5Y65.003
X133.5Y45.
X133.7Y86.4
X133.8Y5.7
X135.Y67.
X135.Y60.
X135.Y48.5
X135.1Y2.4
X140.Y48.5
X140.5Y66.5
X140.5Y63.5
X140.5Y57.
X140.75Y86.5
X141.Y89.75
X143.5Y102.
X143.5Y99.
X143.5Y87.25
X143.5Y73.3
X143.5Y24.3
X143.8Y78.5
X143.9Y92.6
X143.9Y72.
X143.9Y65.
X143.9Y36.2
X144.3Y69.6
X144.75Y97.75
X144.8Y55.5
X145.Y20.
X145.Y15.
X145.5Y106.
X146.Y64.5
X146.4Y92.8
X146.445Y77.655
X147.5Y54.6
X147.5Y1.5
X147.8Y52.
X148.Y86.25
X148.25Y95.
X148.5Y90.5
X148.6Y93.9
X148.6Y87.5
X148.875Y91.6
X148.9Y59.5
X149.5Y87.6
X149.5Y78.1
X149.6Y93.6
X150.Y68.
X150.Y52.6
X150.15Y74.05
X150.287Y95.537
X150.395Y93.213
X150.6Y87.7
X150.75Y86.
X150.9Y81.5
X151.161Y92.982
X151.5Y106.75
X151.75Y102.75
X152.Y87.6
X152.Y45.
X152.2Y62.8
X152.75Y75.25
X153.Y65.
X153.1Y69.6
X153.1Y57.2
X153.3Y92.5
X153.338Y97.262
X153.338Y95.537
X153.5Y108.75
X153.6Y55.4
X153.9Y71.1
X153.9Y54.5
X154.2Y63.5
X154.25Y86.5
X154.5Y101.
X154.5Y100.
X155.Y61.2
X155.Y49.05
X155.Y22.5
X155.062Y97.262
X155.062Y95.537
X155.2Y104.25
X155.5Y101.75
X155.6Y78.1
X156.Y68.
X156.1Y55.2
X156.2Y53.2
X156.5Y48.5
X156.6Y57.
X156.9Y72.5
X157.2Y104.3
X157.6Y93.6
X158.2Y59.5
X158.2Y51.5
X158.4Y95.9
X158.8Y75.4
X159.Y103.4
X159.Y37.5
X159.1Y70.6
X159.2Y96.4
X159.2Y57.6
X159.2Y49.6
X159.4Y91.6
X159.5Y105.5
X159.6Y73.
X159.623Y98.275
X159.7Y88.1
X159.8Y103.8
X160.Y75.4
X160.Y70.5
X160.Y48.5
X160.Y30.
X160.5Y97.25
X160.9Y75.7
X161.1Y70.6
X161.25Y86.55
X161.7Y84.3
X161.9Y70.4
X161.9Y63.2
X162.149Y73.701
X162.2Y92.3
X162.25Y106.5
X162.25Y102.25
X162.5Y109.
X162.5Y1.5
X162.8Y70.4
X162.825Y75.
X162.85Y74.2
X163.Y72.3
X163.Y55.2
X163.2Y60.8
X163.5Y83.8
X164.2Y85.
X164.75Y103.
X164.9Y54.7
X165.25Y91.25
X165.25Y84.8
X165.5Y101.5
X166.2Y57.
X167.5Y60.
X167.5Y42.5
X167.5Y30.
X167.5Y17.5
X168.5Y90.5
X168.5Y85.5
T2
X9.6Y10.
X60.4Y10.
X69.6Y10.
X120.4Y10.
T3
X11.19Y97.54
X11.19Y77.54
X11.19Y57.54
X11.19Y37.54
X17.54Y100.08
X17.54Y80.08
X17.54Y60.08
X17.54Y40.08
X31.19Y97.54
X31.19Y77.54
X31.19Y57.54
X31.19Y37.54
X37.54Y100.08
X37.54Y80.08
X37.54Y60.08
X37.54Y40.08
X51.19Y97.54
X51.19Y77.54
X51.19Y57.54
X51.19Y37.54
X57.54Y100.08
X57.54Y80.08
X57.54Y60.08
X57.54Y40.08
X71.19Y97.54
X71.19Y77.54
X71.19Y57.54
X71.19Y37.54
X77.54Y100.08
X77.54Y80.08
X77.54Y60.08
X77.54Y40.08
X91.19Y97.54
X91.19Y77.54
X91.19Y57.54
X91.19Y37.54
X97.54Y100.08
X97.54Y80.08
X97.54Y60.08
X97.54Y40.08
X111.19Y97.54
X111.19Y77.54
X111.19Y57.54
X111.19Y37.54
X117.54Y100.08
X117.54Y80.08
X117.54Y60.08
X117.54Y40.08
X131.19Y97.54
X131.19Y77.54
X131.19Y57.54
X131.19Y37.54
X131.19Y17.54
X137.54Y100.08
X137.54Y80.08
X137.54Y60.08
X137.54Y40.08
X137.54Y20.08
X151.19Y37.54
X151.19Y17.54
X157.54Y40.08
X157.54Y20.08
T4
X9.92Y95.
X9.92Y75.
X9.92Y55.
X9.92Y35.
X20.08Y95.
X20.08Y75.
X20.08Y55.
X20.08Y35.
X29.92Y95.
X29.92Y75.
X29.92Y55.
X29.92Y35.
X40.08Y95.
X40.08Y75.
X40.08Y55.
X40.08Y35.
X49.92Y95.
X49.92Y75.
X49.92Y55.
X49.92Y35.
X60.08Y95.
X60.08Y75.
X60.08Y55.
X60.08Y35.
X69.92Y95.
X69.92Y75.
X69.92Y55.
X69.92Y35.
X80.08Y95.
X80.08Y75.
X80.08Y55.
X80.08Y35.
X89.92Y95.
X89.92Y75.
X89.92Y55.
X89.92Y35.
X100.08Y95.
X100.08Y75.
X100.08Y55.
X100.08Y35.
X109.92Y95.
X109.92Y75.
X109.92Y55.
X109.92Y35.
X120.08Y95.
X120.08Y75.
X120.08Y55.
X120.08Y35.
X129.92Y95.
X129.92Y75.
X129.92Y55.
X129.92Y35.
X129.92Y15.
X140.08Y95.
X140.08Y75.
X140.08Y55.
X140.08Y35.
X140.08Y15.
X149.92Y35.
X149.92Y15.
X160.08Y35.
X160.08Y15.
T5
X3.Y107.
X3.Y3.
X85.Y60.
X167.Y107.
X167.Y3.
T6
X15.Y95.
X15.Y75.
X15.Y55.
X15.Y35.
X35.Y95.
X35.Y75.
X35.Y55.
X35.Y35.
X55.Y95.
X55.Y75.
X55.Y55.
X55.Y35.
X75.Y95.
X75.Y75.
X75.Y55.
X75.Y35.
X95.Y95.
X95.Y75.
X95.Y55.
X95.Y35.
X115.Y95.
X115.Y75.
X115.Y55.
X115.Y35.
X135.Y95.
X135.Y75.
X135.Y55.
X135.Y35.
X135.Y15.
X155.Y35.
X155.Y15.
T0
M30
